STARTFONT 2.1
COMMENT
COMMENT Converted from OpenType font "Q:\font stuff\winfont\ZapfinoExtraLT-Four.otf" by "otf2bdf 3.0".
COMMENT
FONT -FreeType-Zapfino Extra LT Four-Medium-R-Normal--72-720-72-72-P-362-ISO10646-1
SIZE 72 72 72
FONTBOUNDINGBOX 154 97 -48 -37
STARTPROPERTIES 19
FOUNDRY "FreeType"
FAMILY_NAME "Zapfino Extra LT Four"
WEIGHT_NAME "Medium"
SLANT "R"
SETWIDTH_NAME "Normal"
ADD_STYLE_NAME ""
PIXEL_SIZE 72
POINT_SIZE 720
RESOLUTION_X 72
RESOLUTION_Y 72
SPACING "P"
AVERAGE_WIDTH 362
CHARSET_REGISTRY "ISO10646"
CHARSET_ENCODING "1"
FONT_ASCENT 48
FONT_DESCENT 35
COPYRIGHT "Copyright (c) 2003 Linotype Library GmbH, www.linotype.com. All rights reserved. This software may not be reproduced, used, displayed, modified, disclosed or transferred without the express written approval of Linotype Library GmbH. Zapfino is a trademark of Heidelberger Druckmaschinen AG, exclusively licensed through Linotype Library GmbH, and may be registered in certain jurisdictions. The typeface is original artwork of Hermann Zapf. The design may be protected in certain jurisdictions."
_OTF_FONTFILE "Q:\font stuff\winfont\ZapfinoExtraLT-Four.otf"
_OTF_PSNAME "ZapfinoExtraLT-Four"
ENDPROPERTIES
CHARS 371
STARTCHAR 000D
ENCODING 13
SWIDTH 0 0
DWIDTH 0 0
BBX 0 0 0 0
BITMAP
ENDCHAR
STARTCHAR 0020
ENCODING 32
SWIDTH 194 0
DWIDTH 14 0
BBX 0 0 0 0
BITMAP
ENDCHAR
STARTCHAR 0021
ENCODING 33
SWIDTH 222 0
DWIDTH 16 0
BBX 17 29 7 -1
BITMAP
000700
000F80
001E00
001C00
003800
003000
006000
006000
00C000
00C000
018000
010000
010000
030000
020000
060000
040000
040000
080000
080000
100000
100000
000000
000000
000000
600000
F00000
F00000
E00000
ENDCHAR
STARTCHAR 0022
ENCODING 34
SWIDTH 333 0
DWIDTH 24 0
BBX 18 19 12 15
BITMAP
001800
0038C0
0071C0
006380
00E300
00C600
018E00
030C00
031800
063000
043000
086000
184000
108000
218000
410000
420000
840000
040000
ENDCHAR
STARTCHAR 0023
ENCODING 35
SWIDTH 333 0
DWIDTH 24 0
BBX 23 29 6 1
BITMAP
000002
000004
000084
000108
000210
000210
000420
000840
007FF8
00FFF0
01E100
002100
004200
004400
008400
010800
010800
021000
1FFF00
1FFE00
384200
084000
108000
108000
210000
630000
420000
860000
840000
ENDCHAR
STARTCHAR 0024
ENCODING 36
SWIDTH 375 0
DWIDTH 27 0
BBX 28 49 2 -14
BITMAP
00000010
00000010
00000020
00000040
00003E40
0000FF80
00010780
00060380
00040380
00080380
00100580
00100800
00300800
00301000
00381000
007C2000
003F4000
003FE000
0007F800
0000FE00
00011F00
00020F00
00020700
00040700
00040700
00080700
00080700
00100600
00200600
00200C00
80400800
80401000
C0802000
E0804000
71018000
7F0E0000
1FF00000
02000000
04000000
04000000
08000000
08000000
10000000
10000000
30000000
20000000
20000000
40000000
40000000
ENDCHAR
STARTCHAR 0025
ENCODING 37
SWIDTH 625 0
DWIDTH 45 0
BBX 37 37 6 -6
BITMAP
0001FFF800
0001FF3C00
0002800C00
000C600400
0018300800
0030300800
0030301000
0060601000
0060602000
00C0404000
00C0808000
00C1808000
00C1010000
00C6020000
0078040000
0000080000
0000100000
00001007E0
0000201398
0000406380
000081C180
0001028180
00020D8300
0004110300
0008630300
0011870200
0022060400
0044060400
0098060800
01A0071000
03C003E000
0700000000
0E00000000
1C00000000
3000000000
E000000000
4000000000
ENDCHAR
STARTCHAR 0026
ENCODING 38
SWIDTH 569 0
DWIDTH 41 0
BBX 34 32 4 0
BITMAP
000001E000
0000067000
0000083000
0000103000
0000202000
0000206000
0000404000
0000418000
0000C200C0
00008C01C0
0000B00040
0001C00040
000F800040
0071800040
0181800080
0701800F00
0C0183FE00
18018FE000
3801904000
7001A02000
7001C02000
7001C02000
F001804000
F001C04000
F001C08000
7001C10000
7000C20000
7800E40000
3800E80400
1E00700800
0783BC3000
007C0FC000
ENDCHAR
STARTCHAR 0027
ENCODING 39
SWIDTH 222 0
DWIDTH 16 0
BBX 10 15 13 18
BITMAP
00C0
01C0
0380
0300
0700
0600
0C00
0800
1800
3000
2000
6000
4000
8000
8000
ENDCHAR
STARTCHAR 0028
ENCODING 40
SWIDTH 361 0
DWIDTH 26 0
BBX 25 39 7 -5
BITMAP
00000080
00000300
00000400
00001800
00002000
00004000
00008000
00010000
00020000
00060000
000C0000
00180000
00300000
00700000
00E00000
00C00000
01C00000
03800000
03000000
07000000
0E000000
0E000000
1C000000
1C000000
38000000
38000000
30000000
70000000
60000000
60000000
E0000000
E0000000
C0000000
C0000000
C0000000
40000000
40000000
20000000
30000000
ENDCHAR
STARTCHAR 0029
ENCODING 41
SWIDTH 402 0
DWIDTH 29 0
BBX 24 40 9 -4
BITMAP
000004
000002
000002
000001
000001
000001
000001
000003
000003
000003
000003
000007
000007
000006
00000E
00000E
00001C
00001C
000038
000038
000070
000060
0000E0
0001C0
0001C0
000380
000700
000600
000E00
001C00
001800
003000
006000
00C000
018000
030000
060000
180000
200000
C00000
ENDCHAR
STARTCHAR 002A
ENCODING 42
SWIDTH 250 0
DWIDTH 18 0
BBX 12 12 12 16
BITMAP
0040
00C0
1880
0900
0500
0630
FFF0
C500
0580
0880
18C0
1000
ENDCHAR
STARTCHAR 002B
ENCODING 43
SWIDTH 402 0
DWIDTH 29 0
BBX 16 15 9 1
BITMAP
0018
0030
0020
0060
00C0
0080
FFFE
E17F
0300
0200
0600
0400
0C00
1800
0800
ENDCHAR
STARTCHAR 002C
ENCODING 44
SWIDTH 208 0
DWIDTH 15 0
BBX 13 16 -1 -9
BITMAP
0008
0018
0038
0038
0070
00E0
01C0
0380
0300
0600
0C00
1800
3000
2000
4000
8000
ENDCHAR
STARTCHAR 002D
ENCODING 45
SWIDTH 319 0
DWIDTH 23 0
BBX 12 1 10 9
BITMAP
FFF0
ENDCHAR
STARTCHAR 002E
ENCODING 46
SWIDTH 236 0
DWIDTH 17 0
BBX 4 4 7 0
BITMAP
70
F0
E0
C0
ENDCHAR
STARTCHAR 002F
ENCODING 47
SWIDTH 375 0
DWIDTH 27 0
BBX 24 51 7 -11
BITMAP
000001
000003
000002
000006
000004
00000C
000008
000018
000010
000010
000020
000020
000060
000040
0000C0
000080
000180
000100
000300
000200
000600
000400
000C00
000800
001800
001800
001000
003000
002000
006000
004000
00C000
008000
018000
010000
030000
020000
060000
060000
040000
0C0000
080000
180000
100000
300000
200000
600000
400000
C00000
800000
800000
ENDCHAR
STARTCHAR 0030
ENCODING 48
SWIDTH 305 0
DWIDTH 22 0
BBX 17 18 4 -1
BITMAP
000600
007F00
018780
020380
040380
080180
100180
300180
200180
600100
400300
C00200
C00400
C00800
C01000
E02000
70C000
3F0000
ENDCHAR
STARTCHAR 0031
ENCODING 49
SWIDTH 291 0
DWIDTH 21 0
BBX 17 16 2 0
BITMAP
07FF80
000700
000700
000E00
000C00
001C00
001800
003800
003000
007000
00E000
00C000
01C000
038000
038000
FFFE00
ENDCHAR
STARTCHAR 0032
ENCODING 50
SWIDTH 305 0
DWIDTH 22 0
BBX 20 16 2 0
BITMAP
00FE00
011F00
000700
000700
000700
000600
000C00
001800
002000
004000
008000
030000
040000
0E0000
3F8000
FFF810
ENDCHAR
STARTCHAR 0033
ENCODING 51
SWIDTH 250 0
DWIDTH 18 0
BBX 22 29 -8 -14
BITMAP
0001F8
00001C
00000C
00000C
00000C
000018
000030
000060
0000F8
0001F8
00003C
00001C
00000C
00000C
00000C
000008
000008
000010
000010
000020
000040
000080
000100
000200
800400
801800
E06000
7F8000
3E0000
ENDCHAR
STARTCHAR 0034
ENCODING 52
SWIDTH 444 0
DWIDTH 32 0
BBX 35 30 -2 -13
BITMAP
000000C000
000001E000
000001E000
000001C040
000001C180
0000018200
0000030C00
0000061800
00000C3000
0000186000
000020E000
0000C0C000
0001818000
0006030000
0008070000
0030060000
00C00C0000
03001C0000
FCFFF3FFE0
0000700040
0000600040
0000E00000
0001C00000
0001C00000
0003800000
0003800000
0007000000
0003000000
0003000000
0001000000
ENDCHAR
STARTCHAR 0035
ENCODING 53
SWIDTH 277 0
DWIDTH 20 0
BBX 29 29 -5 -13
BITMAP
00007FF8
0000FFE0
0001E000
00020000
00040000
00040000
00080000
00080000
00180000
001C0000
001E0000
000F8000
00078000
0003C000
0001C000
0000C000
00004000
00004000
00008000
00008000
00010000
00010000
00020000
00040000
00080000
00100000
C0600000
FFC00000
7F000000
ENDCHAR
STARTCHAR 0036
ENCODING 54
SWIDTH 347 0
DWIDTH 25 0
BBX 32 34 6 0
BITMAP
0000007E
00000187
00000601
00001801
00006000
00008000
00030000
00040000
00080000
00100000
00200000
00200000
00400000
00800000
01000000
03000000
02000000
06000000
0C7E0000
08870000
18038000
38038000
30038000
70038000
70038000
60030000
E0070000
E0060000
E0040000
E00C0000
E0180000
E0200000
70C00000
3F000000
ENDCHAR
STARTCHAR 0037
ENCODING 55
SWIDTH 319 0
DWIDTH 23 0
BBX 22 31 6 -12
BITMAP
000004
04000C
040018
0F8020
0FFFC0
1FFF80
200100
400200
400400
800800
001000
002000
004000
008000
018000
010000
020000
040000
080000
080000
100000
100000
200000
200000
400000
400000
C00000
C00000
C00000
E00000
780000
ENDCHAR
STARTCHAR 0038
ENCODING 56
SWIDTH 333 0
DWIDTH 24 0
BBX 28 35 5 1
BITMAP
00000020
00000030
00000030
00000030
00000030
00003860
0000C060
000300C0
00060080
00040100
00080200
00180400
00180800
001C3000
001C4000
001F8000
001F0000
002F0000
00C78000
0103C000
0201C000
0401C000
0800C000
1000C000
2000C000
60008000
40008000
C0010000
C0010000
C0020000
C0040000
E0180000
F0200000
7FC00000
1F000000
ENDCHAR
STARTCHAR 0039
ENCODING 57
SWIDTH 319 0
DWIDTH 23 0
BBX 30 30 -8 -13
BITMAP
000003F0
00000C38
0000101C
0000201C
0000401C
0000C01C
0001801C
0001801C
0003001C
00030038
00060038
00060030
00060030
00060070
00060060
000300C0
000181C0
00007180
00000300
00000700
00000E00
00000C00
00001800
00007000
0000E000
00018000
00070000
801C0000
60F00000
3F800000
ENDCHAR
STARTCHAR 003A
ENCODING 58
SWIDTH 236 0
DWIDTH 17 0
BBX 11 16 6 -1
BITMAP
00E0
01E0
01C0
03C0
0100
0000
0000
0000
0000
0000
0000
0000
3800
7800
F000
E000
ENDCHAR
STARTCHAR 003B
ENCODING 59
SWIDTH 236 0
DWIDTH 17 0
BBX 19 25 -2 -10
BITMAP
0000E0
0001E0
0003C0
0003C0
000100
000000
000000
000000
000000
000C00
000C00
001C00
003800
007000
006000
00C000
018000
030000
060000
040000
080000
100000
200000
600000
C00000
ENDCHAR
STARTCHAR 003C
ENCODING 60
SWIDTH 402 0
DWIDTH 29 0
BBX 20 13 9 4
BITMAP
000070
0003E0
001F00
00F800
078000
7C0000
C00000
780000
0F0000
03C000
00F000
003C00
000C00
ENDCHAR
STARTCHAR 003D
ENCODING 61
SWIDTH 402 0
DWIDTH 29 0
BBX 18 7 9 6
BITMAP
1FFFC0
1FFF80
000000
000000
000000
7FFF00
FFFF00
ENDCHAR
STARTCHAR 003E
ENCODING 62
SWIDTH 402 0
DWIDTH 29 0
BBX 20 12 8 4
BITMAP
030000
03C000
007800
001F00
0001E0
000070
0007C0
003C00
03E000
1F0000
FC0000
E00000
ENDCHAR
STARTCHAR 003F
ENCODING 63
SWIDTH 277 0
DWIDTH 20 0
BBX 22 34 7 1
BITMAP
000400
000600
000F80
0007F0
0000F8
00003C
00001C
00001C
00000C
00000C
000018
000018
000010
000020
000040
000080
000100
000600
000800
003000
004000
008000
010000
020000
060000
030000
030000
000000
000000
000000
700000
700000
F00000
600000
ENDCHAR
STARTCHAR 0040
ENCODING 64
SWIDTH 583 0
DWIDTH 42 0
BBX 40 37 6 -4
BITMAP
0000000C00
000003F3E0
00000C0038
000070000C
0000800006
0003000007
0004000003
0018000003
0020000003
004001F803
0080063003
0100183003
0300306003
060070E003
0400E1C002
0C01C1C006
1801838004
180385800C
30070B0008
3006130010
700E270020
600C470040
600C870080
E00F070100
E00E038E00
E00001F000
E000000200
E000000400
E000000400
7000000800
7000001000
3800002000
3C0000C000
1E00030000
0F000C0000
03E0F00000
007F000000
ENDCHAR
STARTCHAR 0041
ENCODING 65
SWIDTH 722 0
DWIDTH 52 0
BBX 54 46 4 -4
BITMAP
00000000000004
00000000000004
00000000001F84
0000000001FFE4
000000000FFFF4
000000007FFFFC
00000001FF007C
00000007F0001C
0000001F80001C
0000003C00003C
000000F0000070
000001C00000E0
000007800000E0
00000E000001C0
00003800000380
00007000000780
0000E000000F00
00038000001E00
00070000002E00
000E0000005C00
001C000000B800
00380000013800
00700000027000
00E0000004E000
01C0000008E000
0380000011C000
0700000021C000
07000000438000
0E000000878000
1C000003070000
1C0000040F0000
380000080E0000
780000301E0000
780000401C0000
700001803C0000
F0000200380000
F0000C00780000
F0003000780000
F000C000700004
F8030000F00008
7FFC0000F00010
1FC00000F00060
00000000F00080
00000000F80300
000000007C1C00
000000003FE000
ENDCHAR
STARTCHAR 0042
ENCODING 66
SWIDTH 736 0
DWIDTH 53 0
BBX 49 52 2 -1
BITMAP
00000000000100
00000000000200
00000000000C00
00000000001800
00000000001000
00000000003000
00000000006000
0000000000C000
0000000000C000
00000000018000
00000000FFF800
0000007FFFFF00
000007FFFFFF80
00003FE0041F80
0001F800080780
0003C000080180
000E0000100180
001C0000200100
00300000200300
00600000400200
00400000400400
00C00000800800
00800000801000
00800001002000
00800001004000
00000002008000
00000002018000
00000004038000
0000000803C000
0000000803F000
0000001001F800
0000001000FC00
00000020003F00
00000060001F00
00000040000F80
00000080000780
00000180000380
00000300000180
00000200000180
00000400000100
00000C00000100
00001800000200
00003000000200
00004000000400
00008000000800
00030000001000
000C0000006000
00700000038000
3FFFFFFFFC0000
7FFFFFFFF00000
7FFFFFFE000000
FFFFFE00000000
ENDCHAR
STARTCHAR 0043
ENCODING 67
SWIDTH 611 0
DWIDTH 44 0
BBX 46 44 4 0
BITMAP
00000000001C
000000000018
000000000030
000000000030
00000003F860
0000003C0640
000000E003C0
000003800180
00000E000180
000038000100
000070000300
0001E0000200
0003C0000600
000700000E00
000E00000C00
001C00001C00
003C00001C00
007800003800
00F000003000
01E000000000
03C000000000
07C000000000
078000000000
0F0000000000
1F0000000000
1E0000000000
3E0000000000
3C0000000000
7C0000000000
780000000000
780000000000
F80000000000
F00000000000
F00000000000
F00000000000
F00000000000
F00000000000
F00000001F00
70000000FF80
780000078080
3800001C0080
1C0001C00080
0F000E000100
01FFF0000000
ENDCHAR
STARTCHAR 0044
ENCODING 68
SWIDTH 888 0
DWIDTH 64 0
BBX 64 50 3 1
BITMAP
0000000000004000
0000000000018000
0000000000060000
00000000000E0000
00000000001C0000
0000000000380000
0000000000380000
0000000000700000
0000000000F00000
0000000000E00000
0000000001E00000
00000001FFFF8000
0000003E01C0F800
000001C003801F00
00000E0003800380
00003800070001E0
00006000070000F0
0001C0000E000078
000380000E00003C
000700001C00003C
000600003C00001E
000E00003800001E
001C00007000000F
001C00007000000F
00180000E000000F
00080000E000000F
00000001C000000F
00000001C000000F
000000038000000F
000000038000000F
000000070000000F
0000000E0000000E
0000000E0000001E
0000001C0000001E
180000180000001C
3C0000380000003C
3C0000700000003C
3E0000E000000078
5F0000C000000070
4F800180000000F0
87C00300000001E0
83E00600000001C0
81F00C0000000380
807C180000000F00
C03E200000001C00
C01FC00000003800
E007E0000000E000
7003FC0000070000
780C3FE000380000
1FF000FFFFC00000
ENDCHAR
STARTCHAR 0045
ENCODING 69
SWIDTH 777 0
DWIDTH 56 0
BBX 59 45 0 0
BITMAP
0000000001800000
0000000002000000
0000000004000000
0000000008000000
0000000018000000
00000007FFFFF000
0000007FFFFFE000
000001F020000000
0000070040000000
0000180040000000
0000600080000000
0000C00180000000
0001800100000000
0003000200000000
0006000200000000
0004000400000000
000C000400000000
0008000800000000
0018001000000000
0018001000000000
0018002000000000
0018004000000000
0018004000000000
001801FFFFF80000
000803FFF0000000
0000010000000000
0000020000000020
0000040000000020
0000080000000020
0000100000000020
0000200000000020
0000400000000020
0001800000000040
1FFF000000000040
203FC00000000080
4007F00000000080
C008FC0000000100
C0103F0000000300
E0200FC000000600
70C003F800000C00
3F0000FF00003800
0000003FF001E000
00000007FFFFC000
00000001FFFF0000
000000001FF80000
ENDCHAR
STARTCHAR 0046
ENCODING 70
SWIDTH 458 0
DWIDTH 33 0
BBX 60 44 -2 -4
BITMAP
0000000000003F00
0000FF800000C0E0
0007FFFC00070070
000FFFFFF00800E0
003FFFFFFFFFFF00
007C000000600000
0060000000C00000
0080000001800000
0100000003000000
0200000002000000
0200000006000000
040000000C000000
0400000018000000
0400000038000000
0000000030000000
0000000070000000
00000000E0000000
00000000E0000000
00000001C0000000
00000001C0000000
0000000380000000
00000FFFFFFF0000
00001E0700000000
0000300E00000000
0000400E00000000
0000801C00000000
0000801C00000000
0000003800000000
0000003800000000
0000007000000000
000000E000000000
000000E000000000
000001C000000000
0000018000000000
0000030000000000
0000060000000000
0000040000000000
0000080000000000
8000100000000000
8000200000000000
C000C00000000000
6001000000000000
380E000000000000
07F0000000000000
ENDCHAR
STARTCHAR 0047
ENCODING 71
SWIDTH 541 0
DWIDTH 39 0
BBX 63 59 -13 -18
BITMAP
000000000000FFE0
00000000000F0078
000000000070000C
0000000001800006
0000000006000002
0000000018000002
0000000020000000
00000000C0000000
0000000100000000
0000000200000000
0000000E00000000
0000001C00000000
0000003800000000
0000007000000000
00000070000001E0
000000E000000320
000001E000000620
000001C000000C40
000003C000001C80
000003C000003880
0000078000007100
000007800000F200
000007800000E400
000007800001C800
000007800003F000
000007800003C000
000003C000078000
000003C0000F0000
000001E0000E0000
000000F0003C0000
0000007E03DC0000
0000000FFC380000
0000000000380000
0000000000700000
0000000000E00000
0000000000E00000
0000000001C00000
0000000001800000
0000000003800000
0000000003000000
0000000006000000
000000000C000000
000000000C000000
0000000018000000
4000000030000000
8000000020000000
8000000040000000
8000000080000000
8000000100000000
8000000200000000
8000000400000000
C000000800000000
C000001000000000
E000002000000000
700000C000000000
7800010000000000
3E00060000000000
0FC0780000000000
03FF800000000000
ENDCHAR
STARTCHAR 0048
ENCODING 72
SWIDTH 777 0
DWIDTH 56 0
BBX 64 44 2 -2
BITMAP
000000000020000F
000000000020001F
0000000000400033
0000000FFFC00063
000000FFFF8000C3
000003E001800183
00000C0001000382
0000100001000302
0000200002000606
0000400002000C04
000040000400080C
0000800004001818
0000800004003010
0000800008002060
0000800008006080
000080001000C300
0000800010008400
0000C0002001B800
0000C0002003C000
0000200040060000
00000000803E0000
0000000081C40000
000000011E0C0000
00000003E00C0000
000000FE00180000
00000F0200180000
0001F00400180000
001E000800300000
00F0001800300000
0380001000700000
0400002000700000
0800004000600000
3000008000600000
2000018000E00000
4000030000E00000
40000E0000E00000
40001C0000E00000
E000780000E00000
E001E00000E00000
F80FC00000F00000
FFFF800000F00180
FFFE000000780200
7FF80000003E1C00
3FC00000001FE000
ENDCHAR
STARTCHAR 0049
ENCODING 73
SWIDTH 361 0
DWIDTH 26 0
BBX 46 43 -1 0
BITMAP
00000000001C
00000000006C
00000000008C
000000000118
000000000230
0000000002C0
000000000F00
000000007800
000000039800
0000001C1800
000000603000
000001807000
000006006000
00000C00E000
00001801C000
00003001C000
000070038000
000070038000
000060070000
0000600F0000
0000200E0000
0000001E0000
0000001C0000
000000380000
000000380000
000000700000
000000700000
000000E00000
000001C00000
000001C00000
000003800000
000003000000
000007000000
00000E000000
00000C000000
000018000000
000030000000
000060000000
000080000000
400300000000
F80C00000000
FFF000000000
7F8000000000
ENDCHAR
STARTCHAR 004A
ENCODING 74
SWIDTH 291 0
DWIDTH 21 0
BBX 45 55 -11 -10
BITMAP
000000000008
000000000030
000000000060
0000000000E0
0000000001C0
0000008003C0
000000C00780
000000F03B80
000000FFC300
0000007E0700
000000000600
000000000E00
000000000C00
000000001C00
000000001800
000000003800
000000003000
000000007000
000000006000
00000000E000
00000000C000
00000001C000
000000018000
000000038000
000000030000
000000060000
000000060000
0000000C0000
0000000C0000
000000180000
000000180380
000000303C00
00000023C000
0000007C0000
000000E00000
000000C00000
000000800000
000001000000
000001000000
000002000000
000002000000
000004000000
000008000000
000008000000
000010000000
000020000000
000040000000
000040000000
800080000000
C00100000000
E00600000000
F81C00000000
7FF000000000
3FE000000000
1F0000000000
ENDCHAR
STARTCHAR 004B
ENCODING 75
SWIDTH 625 0
DWIDTH 45 0
BBX 79 46 -12 -6
BITMAP
000000000000000003F8
00000000080400003FFC
0000000008040000E00E
000000001E1800030002
000000001FE8000C0002
000000000F9000700000
00000000001000800000
00000000002003000000
0000000000200C000000
00000000004010000000
00000000004060000000
00000000008080000000
00000000008100000000
00000000010600000000
00000000010800000000
00000000023000000000
00000000024000000000
00000000048000000000
00000000070000000000
000000000C0000000000
00000000080000000000
00000000180000000000
000000003C0000000000
000000002C0000000000
000000004C0000000000
00000000440000000000
00000000860000000000
00000001060000000000
00000001060000000000
00000002060000000000
00000004030000000000
00000008030000000000
00000008030000000000
00000010018000000000
00000020018000000000
0000004000C000000000
8000008000C000000000
80000100006000000000
C0000200007000000000
C0000400003800000000
E0001800001C00020000
70007000000E000C0000
7C01C000000380700000
3FFF80000000FF800000
1FFE0000000000000000
07F00000000000000000
ENDCHAR
STARTCHAR 004C
ENCODING 76
SWIDTH 958 0
DWIDTH 69 0
BBX 67 46 3 -6
BITMAP
000000000001FE0000
0000000000061F0000
000000000018078000
00000000006003C000
0000000000C003C000
00000000010001C000
00000000020001C000
00000000060001C000
000000000C0001C000
000000001800018000
000000003000018000
000000002000018000
000000006000030000
00000000C000020000
000000008000060000
000000010000040000
000000030000080000
000000020000100000
000000040000200000
000000040000400000
000000080001800000
000000100002000000
00000010000C000000
01FC3E200030000000
060EC7C000C0000000
180700E00000000000
200601780000000000
2000011C0000000000
4000020E0000000000
400002078000000000
C0000403C000000000
C0000801E000000000
C00010007800000000
E00010003C00000000
700020001E00000000
7800C0000F80000000
3E03000007C0000000
1FFE000003F0000000
07F0000000F8000020
00000000007E000040
00000000003F800080
00000000001FE00100
000000000007FC0600
000000000001FFF800
0000000000007FF000
0000000000001F8000
ENDCHAR
STARTCHAR 004D
ENCODING 77
SWIDTH 1111 0
DWIDTH 80 0
BBX 82 50 8 -8
BITMAP
0000000000000000003F00
000000000000000001FF80
0000000000000000071FC0
00000000000000001807C0
0000003F000000006003C0
000003FFC00000008003C0
00001C07C00000030003C0
0000C003C00000040003C0
00030001C0000018000380
000C0001C0000020000380
0030000180000040000780
00C00001800C0080000700
03000001803E0100000600
04000001007E0200000E00
0800000301860400000C00
1000000202060800001800
300000060C041000003000
6000000410042000007000
6000000420044000006000
C000000C4008800000C000
C000000880090000018000
C0000011000A0000030000
C000001200140000060000
C000002C001800000C0000
0000002800300000180000
0000005000200000300000
000000E000400000600000
000000C000400000C00000
0000018000800001800000
0000030001000003800000
0000060003000007000000
00000E000600000E000000
00001C000600001C000000
000038000C000038000000
000078001C000070000000
0000F000380000E0000000
0001E000700000E0000000
0003C000700001C0000000
0007C000E00003C0000000
00078001C0000380000000
000F0001C0000780000000
0006000080000700000000
0000000000000F00000000
0000000000000F00000000
0000000000000F00000000
0000000000000F00004000
0000000000000F80018000
00000000000007800E0000
00000000000003E0F00000
00000000000000FF000000
ENDCHAR
STARTCHAR 004E
ENCODING 78
SWIDTH 791 0
DWIDTH 57 0
BBX 64 48 3 -8
BITMAP
0000000000000078
00000000000003FE
0000000000001FFE
000000000000781F
000000000000C00F
0000000000030007
0000000000040007
0000000780180007
0000003F80200006
000000E780400006
000003070180000C
00000C070200000C
0000300604000018
0000400608000010
0000800C10000020
0002000C20000040
00040018C00000C0
0008001980000080
0030003300000100
0060002400000200
00C0006C00000400
0180005800000800
030000F000001000
060000A000002000
0400014000004000
0C00038000008000
1800030000030000
3800060000030000
30000E00000E0000
70000C00001C0000
6000180000180000
6000300000300000
E000700000600000
C000600000C00000
C000E00001C00000
C001C00003800000
C001C00007000000
C003800007000000
C00380000F000000
C00300000E000000
400000001E000000
600000001E000000
200000001E000000
200000001E000080
100000001F000300
080000000F001C00
0400000007C1E000
0380000003FE0000
ENDCHAR
STARTCHAR 004F
ENCODING 79
SWIDTH 597 0
DWIDTH 43 0
BBX 46 39 4 0
BITMAP
000000007F80
0000000381E0
0000000C0070
000001F80038
00000E70003C
00003060001C
000040C0001C
000100C0001C
00020180001C
000C0180001C
00180180001C
003001800018
006000800018
00C000000030
01C000000030
038000000030
070000000060
070000000060
0E00000000C0
1E0000000080
1C0000000180
3C0000000100
380000000200
780000000400
780000000C00
700000000800
F00000001000
F00000002000
F00000004000
F00000008000
F00000030000
F00000040000
F80000080000
780000300000
7C0000400000
3E0001800000
1F000E000000
0FFFF0000000
01FE00000000
ENDCHAR
STARTCHAR 0050
ENCODING 80
SWIDTH 583 0
DWIDTH 42 0
BBX 55 56 -5 -16
BITMAP
00000000001FC0
0000000000FFF0
000000000381F8
0000000006007C
0000000018003C
0000000020003E
00007C0040001E
0001FE0080001E
00060F0100001E
00080F0200001E
0010070400001E
0020070800001E
0000071000001C
0000072000003C
0000064000003C
00000680000038
00000680000078
00000D00000070
00000E00000070
00000C000000E0
00000C000000C0
000018000001C0
00001000000180
00001000000300
00003000000600
00002000000600
0000A000000C00
0000C000001800
00014000003000
00028000006000
0002800000C000
00050000010000
00050000020000
000A00000C0000
00120000300000
00120000E00000
002401FF800000
00487FFC000000
0048FF00000000
00900000000000
00900000000000
01200000000000
03200000000000
02400000000000
04400000000000
0C800000000000
08800000000000
19000000000000
12000000000000
32000000000000
24000000000000
68000000000000
68000000000000
F0000000000000
E0000000000000
40000000000000
ENDCHAR
STARTCHAR 0051
ENCODING 81
SWIDTH 708 0
DWIDTH 51 0
BBX 50 47 4 -7
BITMAP
00000001FC0000
0000001FFF8000
000000E00FE000
0000030003F000
00000C0001F000
0000300000F800
00004000007800
00008000003C00
00030000003C00
00040000001C00
00080000001C00
00100000001C00
00200000001C00
00200000001C00
00400000001800
00800000001800
01800000001800
01000000001800
02000000003000
02000000003000
06000000002000
04000000006000
00000000004000
01800000008000
0FC00000008000
13C00000010000
21C00000020000
61E00000040000
40E00000040000
C0F00000080000
C0700000100000
C0780000200000
C0380000C00000
E03C0001000000
601C0002000000
700E000C000000
380F0030000040
0E0700C0000040
03838700000080
007FF800000080
0001F000000100
0000F800000200
00003C00000400
00001F00001800
000007C0006000
000001F8038000
0000003FFC0000
ENDCHAR
STARTCHAR 0052
ENCODING 82
SWIDTH 708 0
DWIDTH 51 0
BBX 79 56 -1 -12
BITMAP
00000000004000000000
00000000008000000000
00000000018000000000
00000000010000000000
00000000030000000000
000000007FFE00000000
00000007820FC0000000
000000180401F0000000
000000600400F8000000
00000180080078000000
0000030008007C000000
0000040010003C000000
0000080010003C000000
0000100020003C000000
0000300020003C000000
0000200040003C000000
00004000400038000000
00004000800078000000
0000C000800070000000
000080010000E0000000
000080010001C0000000
00018002000380000000
00018002000F00000000
00018004003C00000000
000180043FC000000000
0001C008380000000000
0001C0083C0000000000
0000E0101C0000000000
0000E0301C0000000000
000070201E0000000000
000038400E0000000000
00001C400F0000000000
00000E800F0000000000
00000F00078000000000
00000700078000000000
0000070003C000000000
0000090003C000000000
0000110001E000000000
0000610001F000000000
0000810000F000000000
0007020000F800000000
00380400007C00000000
7FFFF800003C00000000
FFFFE000003E00000000
00000000001F00000000
00000000000F80000000
000000000007C0000000
000000000003E0000000
000000000001F0000000
000000000000F8000000
0000000000007C000000
0000000000003F000006
0000000000000F800008
00000000000003E00030
00000000000000FE01C0
000000000000000FFE00
ENDCHAR
STARTCHAR 0053
ENCODING 83
SWIDTH 583 0
DWIDTH 42 0
BBX 43 45 1 -5
BITMAP
00000001FF80
0000000E07E0
0000003001E0
000000400060
000000800060
000001000020
000002000020
000002000020
000002000020
000006000000
000006000000
000006000000
000006000000
000007000000
000007000000
000007800000
000003E00000
000003F00000
000001FC0000
000000FE0000
0000007F8000
0000001FC000
00000007E000
00200001F000
00400000F000
004000007800
008000003800
010000001800
010000001800
020000001800
020000001800
040000001800
0C0000001800
0C0000001000
140000001000
140000002000
240000002000
260000004000
460000008000
470000010000
C78000040000
03E000380000
01FFEFE00000
007FFF000000
000FF0000000
ENDCHAR
STARTCHAR 0054
ENCODING 84
SWIDTH 513 0
DWIDTH 37 0
BBX 71 49 2 -3
BITMAP
000000000000200000
00000000000040000E
00000000000040000E
00000000000080000C
000000000000800008
0000003FFC01000010
000001FFFFF1000060
000007FFFFFFFFFF80
00001FFFFFFFFFF800
00003FF00004000000
00007E000004000000
0000F8000008000000
0001E0000008000000
0003C0000010000000
000380000010000000
000700000020000000
000600000020000000
000C00000040000000
000C00000040000000
000800000080000000
000800000100000000
001000000100000000
001000000200000000
001000000200000000
001000000400000000
000000000400000000
000000000800000000
000000000800000000
000000001000000000
000000002000000000
000000002000000000
000000004000000000
000000008000000000
400000008000000000
400000010000000000
800000020000000000
800000020000000000
800000040000000000
800000080000000000
800000100000000000
C00000200000000000
C00000400000000000
E00000800000000000
700001000000000000
7C0006000000000000
3F803C000000000000
1FFFF0000000000000
0FFFC0000000000000
03FE00000000000000
ENDCHAR
STARTCHAR 0055
ENCODING 85
SWIDTH 861 0
DWIDTH 62 0
BBX 66 45 3 -5
BITMAP
0000000FE0000000C0
0000007FF000000180
000001C0F800000380
000006007800000300
000018003800000600
000020003800000C00
000040003800001800
000180003000001000
000200003000002000
000400003000004000
000800006000008000
001000004000008000
00200000C000010000
004000018000020000
008000018000020000
0080000300000C0000
0100000200000C0000
020000060000380000
0600000C0000580000
040000080000900000
0C0000180001300000
080000300002200000
180000200004600000
100000600008400000
300000C00010C00000
300001C00020C00000
700001800041800000
600003000081800000
600007000101800000
E00006000603000000
E0000E000803000000
E0001E001003000000
E0001C006003000400
E0001C008007000400
E0003C030007000800
E0003C040007000800
70003E380007001000
70003FC00007801000
70001F000007802000
380000000003C04000
180000000003E08000
0C0000000001FF0000
060000000000F80000
018000000000000000
007800000000000000
ENDCHAR
STARTCHAR 0056
ENCODING 86
SWIDTH 666 0
DWIDTH 48 0
BBX 68 58 6 -8
BITMAP
00000000000007FC00
000000000000000F00
0000000000000007C0
0000000000000003E0
0000000000000001E0
0000000000000000F0
0000000000000000F0
0000000000000000F0
0000000000000000F0
0000000000000000F0
0000000007F80000F0
00000001FFF00000F0
0000001FFFF00001E0
000000FFFFE00001E0
000007FFFFC00001C0
00001FC001000003C0
000078000200000380
000180000200000780
000600000400000F00
000800000C00000E00
003000000800001C00
004000001800003800
008000001000007000
01000000300000E000
020000002000018000
040000006000030000
0800000040000E0000
18000000C000180000
100000008000300000
300000008000C00000
200000010001800000
600000010006000000
600000020008000000
600000020030000000
C000000400C0000000
C00000040100000000
C00000080600000000
C00000080800000000
C00000083000000000
000000104000000000
000000118000000000
000000220000000000
0000002C0000000000
000000500000000000
000000600000000000
000000800000000000
000001800000000000
000003000000000000
00000D000000000000
00001A000000000000
000032000000000000
000064000000000000
0000C4000000000000
000188000000000000
000390000000000000
000320000000000000
000320000000000000
0003C0000000000000
ENDCHAR
STARTCHAR 0057
ENCODING 87
SWIDTH 805 0
DWIDTH 58 0
BBX 105 55 1 -8
BITMAP
00000000000000000000000FF000
00000000000000000000007FFC00
0000000000000000000001FFFE00
0000000000000000000007FFFF00
000000000000000300001FC01F00
000000000000000600003E000780
000000000000000C0000F0000380
000000000002001C0001C0000180
000000000018003C000700000080
0000000000E00078000E00000080
00000000072000B8001800000080
0000000018600138003000000080
00000000E0700278004000000100
0000000300E00470018000000100
0000001C00E00870030000000200
0000006001C01070040000000000
0000018001C020E0080000000000
00000600038040E0100000000000
00001800038080E0200000000000
00006000070101C0400000000000
00008000070201C0800000000000
000300000E0401C1000000000000
000600000E080382000000000000
001800001C100384000000000000
003000001C200308000000000000
0060000038400310000000000000
00C0000030800610000000000000
0180000071000620000000000000
0300000062000640000000000000
07000000E4000C80000000000000
0E000000C8000D00000000000000
1C00000090000900000000000000
1C000001A0001A00000000000000
3800000140001400000000000000
3000000340001800000000000000
7000000280003800000000000000
7000000500003000000000000000
6000000600006000000000000000
E000000C00006000000000000000
E00000180000C000000000000000
C000001800008000000000000000
C000003000018000000000000000
C000006000030000000000000000
C00000C000070000000000000000
C00001C0000E0000000000000000
40000380000E0000000000000000
6000010000040000000000000000
2000000000000000000000000000
3000000000000000000000000000
1000000000000000000000000000
0800000000000000000000000000
0400000000000000000000000000
0300000000000000000000000000
00C0000000000000000000000000
0030000000000000000000000000
ENDCHAR
STARTCHAR 0058
ENCODING 88
SWIDTH 638 0
DWIDTH 46 0
BBX 57 58 3 -19
BITMAP
0000001C00000300
000000FE00000F00
000001FF00001F00
0000060F80007F80
000008078000E000
0000100380038000
0000200380060000
00004003800C0000
0000800380300000
0001000380600000
0001000380800000
0002000303000000
0000000306000000
0000000308000000
0000000310000000
0000000360000000
0000000680000000
0000000700000000
0000000600000000
0000000E00000000
0000001C00000000
0000006C00000000
0000008C00000000
0000010C00000000
0000021800000000
0000041800000000
0000081800000000
0000303800000000
0000403000000000
0000803000000000
0001003000000000
0002007000000000
0004007000000000
0008007000000000
0010007000040000
0020007000080000
0040007000300000
00C0007800C00000
0180007E07000000
0300003FF8000000
0200000E00000000
0600000000000000
0C00000000000000
1800000000000000
1800000000000000
3000000000000000
3000000000000000
7000000000000000
6000000000000000
6000000000000000
E000000000000000
E000000000000000
E000000000000000
6000000000000000
6000000000000000
6000000000000000
3000000000000000
0C00000000000000
ENDCHAR
STARTCHAR 0059
ENCODING 89
SWIDTH 555 0
DWIDTH 40 0
BBX 66 63 -7 -19
BITMAP
0000000000000003C0
000000000000000440
000000000000000840
0000000000000010C0
00000007C000003080
00000018E000002180
000000206000004100
000000C0600000C200
000001006000018400
000002006000010800
00000400E000031800
00000800C000061000
00001001C000062000
00002001C0000C4000
000000038000188000
000000038000190000
000000070000320000
000000070000740000
0000000E0000680000
0000000E0000F00000
0000001C0000E00000
0000001C0001C00000
000000180003800000
000000380003800000
000000300007000000
00000070000E000000
00000070001E000000
00000060007C000000
00000060019C000000
000000600638000000
000000601838000000
00000030E070000000
0000001F0070000000
0000000000E0000000
0000000000C0000000
0000000001C0000000
000000000380000000
000000000380000000
000000000700000000
000000000600000000
000000000E00000000
000000000C00000000
000000001800000000
000000001800000000
000000003000000000
000000006000000000
000000006000000000
00000000C000000000
000000018000000000
000000010000000000
000000030000000000
800000060000000000
8000000C0000000000
800000180000000000
C00000100000000000
C00000200000000000
C00000800000000000
E00001000000000000
700002000000000000
78000C000000000000
3E0070000000000000
1FFF80000000000000
03FC00000000000000
ENDCHAR
STARTCHAR 005A
ENCODING 90
SWIDTH 541 0
DWIDTH 39 0
BBX 45 54 0 -13
BITMAP
0003FFFF0000
0003FFFFC000
0001FFF82000
0001FF801000
0001FE000800
0000F0000800
000000000800
000000000800
000000000800
000000001000
000000002000
000000002000
000000004000
000000008000
000000010000
000000010000
000000020000
000000040000
000003FC0000
00001C330000
000070618000
0000C080C000
00018300E000
000304006000
000318006000
0001C0007018
000000007060
000000007180
000000007E00
000000007000
00000003F000
0000001CF000
00000060E000
00000380E000
00000C01C000
00007001C000
000180038000
000600078000
001800070000
0060000E0000
01C0001C0000
030000180000
0E0000300000
180000600000
300000C00000
600001800000
400003000000
C00006000000
800018000000
800030000000
8000C0000000
C00300000000
603C00000000
1FC000000000
ENDCHAR
STARTCHAR 005B
ENCODING 91
SWIDTH 333 0
DWIDTH 24 0
BBX 30 39 1 -4
BITMAP
000007FC
00000F00
00000E00
00001C00
00001C00
00003800
00003800
00007000
00007000
0000E000
0000C000
0001C000
00018000
00038000
00030000
00070000
000E0000
000E0000
001C0000
001C0000
00380000
00380000
00700000
00600000
00E00000
00C00000
01C00000
03800000
03800000
07000000
07000000
0E000000
0E000000
1C000000
3C000000
38000000
78000000
70000000
FFF00000
ENDCHAR
STARTCHAR 005C
ENCODING 92
SWIDTH 375 0
DWIDTH 27 0
BBX 16 50 13 -11
BITMAP
8000
8000
C000
4000
4000
6000
2000
2000
3000
3000
1000
1800
1800
0800
0C00
0C00
0400
0400
0600
0200
0200
0300
0300
0100
0180
0180
0080
00C0
00C0
0040
0040
0060
0020
0020
0030
0030
0010
0018
0018
0008
0008
000C
0004
0004
0006
0006
0002
0003
0003
0001
ENDCHAR
STARTCHAR 005D
ENCODING 93
SWIDTH 347 0
DWIDTH 25 0
BBX 30 39 6 -4
BITMAP
00000FFC
0000003C
00000038
00000038
00000070
000000F0
000000E0
000001C0
000001C0
00000380
00000380
00000700
00000700
00000E00
00000E00
00001C00
00001C00
00003800
00003000
00007000
00006000
0000E000
0000C000
0001C000
00038000
00038000
00070000
00070000
000E0000
000E0000
001C0000
001C0000
00380000
00780000
00700000
00F00000
00E00000
01E00000
FFE00000
ENDCHAR
STARTCHAR 005E
ENCODING 94
SWIDTH 402 0
DWIDTH 29 0
BBX 13 13 15 14
BITMAP
0008
0018
0038
0078
00D8
0198
0310
0610
0C10
1810
2010
C010
8010
ENDCHAR
STARTCHAR 005F
ENCODING 95
SWIDTH 500 0
DWIDTH 36 0
BBX 35 2 0 -4
BITMAP
FFFFFFFFE0
FFFFFFFFE0
ENDCHAR
STARTCHAR 0060
ENCODING 96
SWIDTH 236 0
DWIDTH 17 0
BBX 4 9 7 19
BITMAP
80
80
C0
40
40
20
20
20
10
ENDCHAR
STARTCHAR 0061
ENCODING 97
SWIDTH 263 0
DWIDTH 19 0
BBX 22 22 2 -3
BITMAP
000040
0000C0
000180
000780
001900
006300
008600
010600
020C00
041C00
082800
183800
305004
60B008
612010
C22020
C46020
F84040
E04080
004100
004600
003800
ENDCHAR
STARTCHAR 0062
ENCODING 98
SWIDTH 236 0
DWIDTH 17 0
BBX 41 47 1 0
BITMAP
000000007E00
000000018300
000000060180
000000080080
000000100080
000000600080
000000C00000
000001800000
000001000000
000002000000
000006000000
00000C000000
000018000000
000018000000
000030000000
000060000000
0000E0000000
0000C0000000
000180000000
000380000000
000300000000
000700000000
000600000000
000E00000000
001C00000000
001800000000
003800000000
003000000000
007000000000
006000000000
00E000000000
00C600000000
01DE00000000
03A600000000
03C600000000
078600000000
070400000000
0E0400000000
0C0800000000
1C0800000000
181000000000
381000000000
302000000000
704000000000
708000000000
790000000000
FE0000000000
ENDCHAR
STARTCHAR 0063
ENCODING 99
SWIDTH 208 0
DWIDTH 15 0
BBX 15 16 3 1
BITMAP
001E
00EE
0104
0604
0C00
1800
1800
3000
7002
6004
E008
E010
E020
E0C0
F300
7C00
ENDCHAR
STARTCHAR 0064
ENCODING 100
SWIDTH 250 0
DWIDTH 18 0
BBX 24 48 2 0
BITMAP
01F800
060E00
080780
1001C0
2001C0
6000E0
6000E0
400070
C00070
C00030
C00038
C00038
C00038
C00018
C00018
C00018
E00018
600018
600018
600018
300018
300010
300010
180030
180030
0C0020
040020
060060
020040
010040
0180C0
008080
004080
002100
001200
00EA00
010400
0607FF
0C0800
181000
301000
302000
604000
608000
C10000
C20000
CC0000
700000
ENDCHAR
STARTCHAR 0065
ENCODING 101
SWIDTH 236 0
DWIDTH 17 0
BBX 22 16 4 0
BITMAP
007000
01B000
063000
042000
08600C
18C3F0
317C00
328000
600000
600000
C00000
C00000
C00000
C00000
C00000
7F0000
ENDCHAR
STARTCHAR 0066
ENCODING 102
SWIDTH 180 0
DWIDTH 13 0
BBX 85 84 -39 -31
BITMAP
00000000000000000001F0
0000000000000000000FF8
0000000000000000003FF8
0000000000000000006000
0000000000000000008000
0000000000000000010000
0000000000000000040000
0000000000000000040000
0000000000000000080000
0000000000000000100000
0000000000000000200000
0000000000000000400000
0000000000000000400000
0000000000000000800000
0000000000000001000000
0000000000000003000000
0000000000000002000000
0000000000000006000000
000000000000000C000000
000000000000000C000000
0000000000000018000000
0000000000000010000000
0000000000000030000000
0000000000000060000000
0000000000000060000000
00000000000000C0000000
00000000000001C0000000
0000000000000180000000
0000000000000380000000
0000000000000300000000
0000000000000700000000
0000000000000600000000
0000000000000E00000000
0000000000000C00000000
0000000000001C00000000
0000000000003800000000
0000000000003800000000
0000000000007000000000
00000000007FFFF8000000
000000000000E000000000
000000000000E000000000
000000000001C000000000
000000000001C000000000
0000000000038000000000
0000000000038000000000
0000000000070000000000
0000000000070000000000
00000000000E0000000000
00000000000C0000000000
00000000001C0000000000
0000000000180000000000
0000000000380000000000
0000000000700000000000
0000000000700000000000
0000000000E00000000000
0000000000E00000000000
0000000001C00000000000
0000000001800000000000
0000000003800000000000
0000000007000000000000
0000000006000000000000
000000000E000000000000
000000000C000000000000
0000000018000000000000
0000000038000000000000
0000000030000000000000
0000000060000000000000
00000000C0000000000000
0000000180000000000000
0000000180000000000000
0000000300000000000000
0000000600000000000000
0000000C00000000000000
0000001800000000000000
0000003000000000000000
0000006000000000000000
0000008000000000000000
0000030000000000000000
0000060000000000000000
8000180000000000000000
4000300000000000000000
6001C00000000000000000
380E000000000000000000
1FF0000000000000000000
ENDCHAR
STARTCHAR 0067
ENCODING 103
SWIDTH 236 0
DWIDTH 17 0
BBX 40 42 -16 -28
BITMAP
00000007FF
0000001980
0000006180
0000008100
0000010200
0000030200
0000060400
0000040800
00000C1000
00000C6000
00000FC000
0000018000
0000010000
0000020000
0000040000
0000040000
00000C0000
00000C0000
00000E0000
00000E0000
0000070000
0000078000
0000038000
002001C000
00C001C000
010000E000
020000E000
0400006000
1800006000
1000006000
2000006000
6000004000
4000008000
C000008000
C000010000
C000020000
C000040000
E000180000
7000200000
7C01C00000
1FFE000000
07E0000000
ENDCHAR
STARTCHAR 0068
ENCODING 104
SWIDTH 222 0
DWIDTH 16 0
BBX 54 59 -6 -8
BITMAP
0000000000007C
000000000003FC
00000000000E0C
00000000001004
00000000006004
00000000008000
00000000010000
00000000020000
00000000040000
00000000080000
00000000100000
00000000200000
00000000400000
00000000800000
00000001000000
00000002000000
00000004000000
0000000C000000
00000008000000
00000010000000
00000020000000
00000060000000
000000C0000000
00000080000000
00000180000000
00000300000000
00000200000000
00000600000000
00000C00000000
00001800000000
00001800000000
00003000000000
00006000000000
00006000000000
0000C000000000
0001C000000000
00018C00000000
00033C00000000
00034C00000000
00068C00000000
000F1800000000
000C1800000000
001C1800000000
00183000000000
00303000000000
00306000000000
00606000000000
00E0C000000000
00C0C000000000
01818000000000
01010000000000
00020000000000
00040000000000
00080000000000
00100000000000
00200000000000
00C00000000000
07000000000000
F8000000000000
ENDCHAR
STARTCHAR 0069
ENCODING 105
SWIDTH 166 0
DWIDTH 12 0
BBX 15 26 3 0
BITMAP
0018
0038
0030
0000
0000
0000
0000
0000
0000
0000
0000
3F00
0700
0600
0C00
0C00
1800
3002
3002
6004
6008
6030
C040
C080
E300
7C00
ENDCHAR
STARTCHAR 006A
ENCODING 106
SWIDTH 166 0
DWIDTH 12 0
BBX 44 59 -25 -33
BITMAP
000000000180
000000000380
000000000380
000000000300
000000000000
000000000000
000000000000
000000000000
000000000000
000000000000
00000000E000
00000007E000
00000000C000
00000000C000
000000018000
000000010000
000000010010
000000020020
000000020040
000000040180
000000040200
000000080400
000000080800
000000101000
000000102000
00000030C000
000000210000
000000620000
000000440000
000000D80000
000000A00000
000001C00000
000001800000
000003000000
000007000000
00001E000000
00002E000000
00004C000000
00019C000000
000218000000
000438000000
001838000000
003070000000
004070000000
0080E0000000
0101E0000000
0601C0000000
040380000000
080380000000
100700000000
200600000000
600E00000000
401C00000000
C01800000000
803000000000
806000000000
80C000000000
418000000000
3E0000000000
ENDCHAR
STARTCHAR 006B
ENCODING 107
SWIDTH 263 0
DWIDTH 19 0
BBX 37 48 2 -5
BITMAP
00000000F0
00000003F8
0000000C00
0000001000
0000006000
0000008000
0000010000
0000020000
0000040000
0000080000
0000080000
0000100000
0000200000
0000200000
0000400000
0000800000
0001000000
0001000000
0002000000
0006000000
0004000000
0008000000
0018000000
0010000000
0030000000
0060000000
0040000000
00C0000000
008F800000
01B1800000
0341800000
0381000000
0602000000
0E0C000000
0C70000000
1FF0000000
1830000000
3830000000
3060000000
7060000000
E040000000
E0C0100000
4080200000
0180400000
0180800000
0181000000
01C6000000
00F8000000
ENDCHAR
STARTCHAR 006C
ENCODING 108
SWIDTH 194 0
DWIDTH 14 0
BBX 38 47 3 0
BITMAP
00000001F8
000000061C
000000180C
0000002004
0000004000
0000008000
0000010000
0000020000
0000040000
00000C0000
0000080000
0000100000
0000200000
0000600000
0000400000
0000C00000
0001800000
0003000000
0003000000
0006000000
000C000000
000C000000
0018000000
0038000000
0030000000
0060000000
00E0000000
00C0000000
01C0000000
0180000000
0300000000
0700000000
0600000000
0E00000000
0C00000000
1C00000000
1800000000
3800400000
3000800000
7001000000
7002000000
6004000000
E008000000
E010000000
E060000000
F180000000
7E00000000
ENDCHAR
STARTCHAR 006D
ENCODING 109
SWIDTH 361 0
DWIDTH 26 0
BBX 25 19 3 -4
BITMAP
03000000
03000000
06183000
0678F000
0C993000
0D1A2000
1A346000
14386000
3870C000
7070C000
60E18000
C0C38000
C1870000
81870180
000F0200
000E0400
001E1800
001E6000
000F8000
ENDCHAR
STARTCHAR 006E
ENCODING 110
SWIDTH 263 0
DWIDTH 19 0
BBX 22 16 1 -3
BITMAP
00C600
078E00
01A600
034600
038C00
070C00
061800
0C1800
083000
18700C
106010
30E020
60C040
61C180
C1C600
C1F800
ENDCHAR
STARTCHAR 006F
ENCODING 111
SWIDTH 236 0
DWIDTH 17 0
BBX 23 16 3 0
BITMAP
003802
01C404
068408
088430
088440
108580
20CE00
20F800
601000
401000
C02000
C04000
C08000
C10000
E60000
780000
ENDCHAR
STARTCHAR 0070
ENCODING 112
SWIDTH 250 0
DWIDTH 18 0
BBX 50 49 -25 -32
BITMAP
000000000C0000
000000000C0000
000000001C0000
00000000380000
00000000300000
00000000700000
00000000E0E000
00000000C3E000
00000001C4E000
0000000198C000
00000003A1C040
00000007438180
00000006830600
0000000F071800
0000000E0E6000
0000001C3D8000
00000039FA0000
00000070000000
000001F0000000
000002E0000000
000004C0000000
000009C0000000
00003180000000
00004380000000
00008300000000
00010600000000
00020E00000000
00040C00000000
00081800000000
00101800000000
00203000000000
00406000000000
00806000000000
0080C000000000
0101C000000000
02018000000000
04030000000000
08030000000000
18060000000000
100C0000000000
20180000000000
60180000000000
40300000000000
40600000000000
80C00000000000
81800000000000
83000000000000
86000000000000
78000000000000
ENDCHAR
STARTCHAR 0071
ENCODING 113
SWIDTH 319 0
DWIDTH 23 0
BBX 34 55 -10 -35
BITMAP
0000000200
0000000400
0000000400
0000000800
0000001000
000000FC00
0000072640
0000182240
0000204040
0000404040
0000408040
0000830040
0001030040
0003060080
00020A0080
0006140100
0004240100
000CC80200
000F080400
000E100800
0000201000
0000202000
0000404000
0000408000
0000810000
0001830000
0001020000
0002040000
0002080000
0004100000
000C200000
0008400000
0018800000
0011000000
0031000000
0062000000
0064000000
00C8000000
0090000000
01A0000000
0340000000
0380000000
0680000000
0700000000
0E00000000
1C00000000
1800000000
3000000000
3000000000
6000000000
C000000000
C000000000
8000000000
8000000000
8000000000
ENDCHAR
STARTCHAR 0072
ENCODING 114
SWIDTH 222 0
DWIDTH 16 0
BBX 19 16 2 0
BITMAP
000180
3FC300
018E00
019600
01EC00
018C00
030E00
020F20
0400C0
0C0000
180000
100000
300000
600000
E00000
C00000
ENDCHAR
STARTCHAR 0073
ENCODING 115
SWIDTH 208 0
DWIDTH 15 0
BBX 20 24 -3 -5
BITMAP
000010
000060
0000C0
0000C0
0001C0
0003C0
000580
000980
001180
002380
004380
008300
010300
020300
040600
080600
100600
E00C00
C00800
C01800
C03000
E06000
71C000
3E0000
ENDCHAR
STARTCHAR 0074
ENCODING 116
SWIDTH 208 0
DWIDTH 15 0
BBX 23 24 3 0
BITMAP
000200
000C00
001C00
001800
003000
007000
006000
00C000
00C000
3FFFFE
038000
068000
044000
0C4000
084000
184000
304000
308000
608000
608000
C10000
C20000
C40000
780000
ENDCHAR
STARTCHAR 0075
ENCODING 117
SWIDTH 291 0
DWIDTH 21 0
BBX 22 16 3 0
BITMAP
078100
184180
604380
004700
008600
018E00
030C00
061800
0C3800
187000
30E004
616008
C24010
844020
8840C0
F03F00
ENDCHAR
STARTCHAR 0076
ENCODING 118
SWIDTH 250 0
DWIDTH 18 0
BBX 22 16 5 0
BITMAP
1C1FFC
FC1F80
0C1800
0C1800
081000
182000
182000
184000
108000
310000
360000
2C0000
780000
700000
E00000
800000
ENDCHAR
STARTCHAR 0077
ENCODING 119
SWIDTH 319 0
DWIDTH 23 0
BBX 21 15 2 1
BITMAP
01C070
038038
038018
070018
061018
0E3018
0CF010
1D3030
3A3020
3C3040
783040
783080
F03100
C03E00
803800
ENDCHAR
STARTCHAR 0078
ENCODING 120
SWIDTH 291 0
DWIDTH 21 0
BBX 29 23 -5 -5
BITMAP
00018018
0003C038
000FC0C0
0003C100
0003C200
00038C00
00039000
0003A000
0003C000
00018000
00038000
00050000
00090020
000B0040
00130080
00230100
00430200
00838C00
0101F000
06000000
1C000000
F0000000
E0000000
ENDCHAR
STARTCHAR 0079
ENCODING 121
SWIDTH 236 0
DWIDTH 17 0
BBX 76 59 -48 -37
BITMAP
000000000000000000F0
000000000000000001F0
00000000000000000630
00000000000000000810
00000000000000001000
00000000000000002000
00000000000000004000
00000000000000204000
00000000000003E08000
0000000000000CE10000
00000000000030C10000
00000000000001820000
00000000000001840000
00000000000003040000
00000000000007080000
00000000000006080000
0000000000000E100000
0000000000001C100000
0000000000001C200000
00000000000038400000
00000000000038400000
0000000000003B800000
00000000000004800000
00000000000001000000
00000000000002000000
00000000000002000000
00000000000004000000
00000000000004000000
00000000000008000000
00000000000010000000
00000000000010000000
00000000000020000000
00000000000040000000
00000000000080000000
00000000000080000000
00000000000100000000
00000000000200000000
00000000000400000000
00000000000400000000
00000000000800000000
00000000001000000000
00000000002000000000
80000000004000000000
80000000008000000000
80000000010000000000
80000000010000000000
80000000020000000000
800000000C0000000000
80000000100000000000
C0000000200000000000
40000000400000000000
60000000800000000000
70000003000000000000
38000004000000000000
3C000018000000000000
1F000060000000000000
07F00780000000000000
03FFFC00000000000000
007FC000000000000000
ENDCHAR
STARTCHAR 007A
ENCODING 122
SWIDTH 222 0
DWIDTH 16 0
BBX 40 39 -22 -22
BITMAP
0000000002
0000001006
0000001004
0000003808
0000003C30
0000001FE0
0000000040
0000000080
0000000300
0000000400
0000000800
0000003F01
000000018E
00000001F0
0000000180
0000000F80
0000003300
000001C700
0000060700
0000180600
0000600C00
0001801C00
0006001800
0018003000
0060007000
00C0006000
030000C000
0600018000
0800030000
1000060000
20000C0000
4000180000
4000200000
8000C00000
8001800000
8006000000
C018000000
6060000000
3F80000000
ENDCHAR
STARTCHAR 007B
ENCODING 123
SWIDTH 263 0
DWIDTH 19 0
BBX 27 42 4 -7
BITMAP
000003E0
00000E00
00001C00
00003800
00007000
00007000
0000E000
0001C000
00018000
00038000
00030000
00060000
00040000
000C0000
00180000
00300000
00600000
01800000
3F000000
00800000
00800000
00800000
00800000
01800000
01000000
03000000
02000000
06000000
0C000000
0C000000
18000000
38000000
30000000
70000000
60000000
E0000000
E0000000
C0000000
C0000000
C0000000
60000000
38000000
ENDCHAR
STARTCHAR 007C
ENCODING 124
SWIDTH 222 0
DWIDTH 16 0
BBX 2 71 10 -18
BITMAP
C0
C0
C0
C0
C0
C0
C0
C0
C0
C0
C0
C0
C0
C0
C0
C0
C0
C0
C0
C0
C0
C0
C0
C0
C0
C0
C0
C0
C0
C0
C0
C0
C0
C0
C0
C0
C0
C0
C0
C0
C0
C0
C0
C0
C0
C0
C0
C0
C0
C0
C0
C0
C0
C0
C0
C0
C0
C0
C0
C0
C0
C0
C0
C0
C0
C0
C0
C0
C0
C0
C0
ENDCHAR
STARTCHAR 007D
ENCODING 125
SWIDTH 263 0
DWIDTH 19 0
BBX 26 42 3 -7
BITMAP
00000300
00000080
00000080
000000C0
000000C0
000000C0
000001C0
00000180
00000380
00000700
00000700
00000E00
00001C00
00001C00
00003800
00003000
00003000
00002000
00002200
00001E00
00001000
00006000
0000C000
00018000
00030000
00030000
00060000
000E0000
000C0000
001C0000
00380000
00380000
00700000
00600000
00E00000
01C00000
01800000
03000000
06000000
0C000000
30000000
C0000000
ENDCHAR
STARTCHAR 007E
ENCODING 126
SWIDTH 402 0
DWIDTH 29 0
BBX 18 4 9 8
BITMAP
1F00C0
3FC1C0
60FB80
C03F00
ENDCHAR
STARTCHAR 00A0
ENCODING 160
SWIDTH 194 0
DWIDTH 14 0
BBX 0 0 0 0
BITMAP
ENDCHAR
STARTCHAR 00A1
ENCODING 161
SWIDTH 222 0
DWIDTH 16 0
BBX 17 29 1 -12
BITMAP
000300
000780
000780
000700
000000
000000
000000
000400
000800
000800
000800
001000
001000
003000
002000
002000
004000
004000
00C000
018000
018000
030000
030000
060000
0E0000
0E0000
1C0000
780000
F00000
ENDCHAR
STARTCHAR 00A2
ENCODING 162
SWIDTH 361 0
DWIDTH 26 0
BBX 25 45 6 -11
BITMAP
00000080
00000100
00000300
00000200
00000400
00000800
00000800
0000FC00
0003FE00
000C2E00
00104600
00204400
00408000
00810000
01810000
03020000
06020000
06040000
0E080000
0C080000
1C100400
1C100800
38201000
38202000
3840C000
38810000
78860000
3D180000
3FE00000
0E000000
02000000
04000000
04000000
08000000
08000000
10000000
10000000
20000000
20000000
20000000
40000000
40000000
C0000000
80000000
80000000
ENDCHAR
STARTCHAR 00A3
ENCODING 163
SWIDTH 486 0
DWIDTH 35 0
BBX 34 32 -1 0
BITMAP
0000003FC0
000000E3C0
0000010080
0000020000
0000040000
0000080000
0000100000
0000300000
0000200000
0000400000
0000C00000
0000800000
0001800000
000103C000
007EFC0000
0002000000
0004000000
0008000000
0008000000
0010000000
0020000000
0040000000
0080000000
01FE000000
0207800000
0401E00040
1800F00080
30007C0100
60003E0200
C0000FCC00
000007F800
000001E000
ENDCHAR
STARTCHAR 00A4
ENCODING 164
SWIDTH 500 0
DWIDTH 36 0
BBX 33 25 5 3
BITMAP
0000000080
0800000100
0403FF0600
020C00CC00
0120007000
00C0003000
0080001000
0180001000
0100001800
0200000800
0200000800
0600000800
0400000800
0400000800
0400001000
0400001000
0400001000
0600002000
0200002000
0200004000
070000A000
0980011000
30C0060C00
6030180600
800FE00200
ENDCHAR
STARTCHAR 00A5
ENCODING 165
SWIDTH 444 0
DWIDTH 32 0
BBX 40 34 4 1
BITMAP
0000000007
000000000E
0000000018
03FE000070
0C1F0000C0
1007800180
2003800600
4003C00C00
8001C01000
0001C02000
0001C04000
0001C18000
0001C20000
0001840000
0001880000
0001B00000
0003400000
0003800000
03FFFE0000
0006000000
000E000000
000C000000
0FFFF80000
0018000000
0038000000
0030000000
0070000000
0060000000
00C0000000
01C0000000
0180000000
0380000000
0780000000
FFF8000000
ENDCHAR
STARTCHAR 00A6
ENCODING 166
SWIDTH 222 0
DWIDTH 16 0
BBX 1 60 15 -13
BITMAP
80
80
80
80
80
80
80
80
80
80
80
80
80
80
80
80
80
80
80
80
80
80
80
80
80
00
00
00
00
00
00
00
00
00
00
00
80
80
80
80
80
80
80
80
80
80
80
80
80
80
80
80
80
80
80
80
80
80
80
80
ENDCHAR
STARTCHAR 00A7
ENCODING 167
SWIDTH 305 0
DWIDTH 22 0
BBX 27 35 -1 -5
BITMAP
00000780
00001FE0
000020E0
00004040
00008040
00010000
00010000
00010000
00010000
00078000
00098000
0011C000
0010C000
00306000
00307000
00383000
00381800
001C1800
001E0800
000F0800
00070800
00038800
0001C800
0001D000
0000E000
8000C000
80004000
80004000
80004000
80008000
C0008000
C0010000
70020000
7E1C0000
1FE00000
ENDCHAR
STARTCHAR 00A8
ENCODING 168
SWIDTH 236 0
DWIDTH 17 0
BBX 8 3 4 22
BITMAP
63
E7
C6
ENDCHAR
STARTCHAR 00A9
ENCODING 169
SWIDTH 597 0
DWIDTH 43 0
BBX 37 33 5 -2
BITMAP
0003FFE000
000C001800
0030000600
00C0000100
0100000080
02000000C0
04007FC060
080180E020
0802007030
1004003830
1008003010
2018002010
2010004018
4030000018
4030000018
4070000018
4060000018
4060000010
C070000010
C070000010
C070000020
C038004020
4038008020
401E010040
600FCE0080
6001F00080
2000000100
1000000200
1800000400
0400000800
0208003000
018600C000
0079FF0000
ENDCHAR
STARTCHAR 00AA
ENCODING 170
SWIDTH 263 0
DWIDTH 19 0
BBX 18 20 6 11
BITMAP
000300
000300
000600
000E00
007C00
009C00
031800
063800
0C7000
187000
30F000
716000
626000
E4E000
E8C000
F0C040
E0C180
00E200
00FC00
004000
ENDCHAR
STARTCHAR 00AB
ENCODING 171
SWIDTH 333 0
DWIDTH 24 0
BBX 16 18 9 -1
BITMAP
0031
0042
0084
0308
0410
0860
1080
6100
C300
C380
C380
E180
61C0
61C0
70C0
30E0
3860
3000
ENDCHAR
STARTCHAR 00AC
ENCODING 172
SWIDTH 402 0
DWIDTH 29 0
BBX 14 7 10 6
BITMAP
FFFC
000C
0008
0018
0018
0030
0030
ENDCHAR
STARTCHAR 00AD
ENCODING 173
SWIDTH 319 0
DWIDTH 23 0
BBX 12 1 10 9
BITMAP
FFF0
ENDCHAR
STARTCHAR 00AE
ENCODING 174
SWIDTH 402 0
DWIDTH 29 0
BBX 22 22 11 12
BITMAP
007F80
038070
040018
083F08
106184
206184
404184
40C184
408304
81FC04
816004
833004
821804
861808
840C08
8C0610
CC0720
400020
6000C0
300100
0E0E00
01F000
ENDCHAR
STARTCHAR 00AF
ENCODING 175
SWIDTH 236 0
DWIDTH 17 0
BBX 6 1 6 22
BITMAP
FC
ENDCHAR
STARTCHAR 00B0
ENCODING 176
SWIDTH 222 0
DWIDTH 16 0
BBX 7 7 14 26
BITMAP
1C
62
82
82
82
C4
38
ENDCHAR
STARTCHAR 00B1
ENCODING 177
SWIDTH 402 0
DWIDTH 29 0
BBX 20 16 6 1
BITMAP
000180
000300
000600
000400
000C00
07FFF0
001800
001000
003000
006000
006000
00C000
004000
000000
FFFF00
FFFE00
ENDCHAR
STARTCHAR 00B2
ENCODING 178
SWIDTH 250 0
DWIDTH 18 0
BBX 15 14 10 16
BITMAP
01E0
0670
0038
0030
0030
0060
0040
0100
0200
0400
1800
7C00
BF82
07FC
ENDCHAR
STARTCHAR 00B3
ENCODING 179
SWIDTH 250 0
DWIDTH 18 0
BBX 13 16 11 16
BITMAP
00F0
03F8
0418
0018
0020
00C0
0180
0180
01C0
00C0
00E0
00C0
00C0
8100
C600
7800
ENDCHAR
STARTCHAR 00B4
ENCODING 180
SWIDTH 236 0
DWIDTH 17 0
BBX 12 9 2 19
BITMAP
0010
0060
00C0
0100
0600
0800
1000
6000
8000
ENDCHAR
STARTCHAR 00B5
ENCODING 181
SWIDTH 402 0
DWIDTH 29 0
BBX 26 32 0 -17
BITMAP
000181C0
00030180
00060300
00060300
000C0600
000C0600
00180C00
00101800
00301800
00703800
00607040
00E0B080
01613100
01627200
027C3C00
04000000
04000000
08000000
08000000
10000000
10000000
10000000
20000000
20000000
60000000
40000000
40000000
C0000000
C0000000
C0000000
C0000000
40000000
ENDCHAR
STARTCHAR 00B6
ENCODING 182
SWIDTH 500 0
DWIDTH 36 0
BBX 26 41 16 -5
BITMAP
000000C0
000000C0
000001C0
00000380
00007F00
000FF000
003FE000
00FFE000
01FFC000
03FFC000
07FF8000
0FFF0000
1FFF0000
1FFE0000
3FFE0000
3FFC0000
7FFC0000
7FF80000
7FF80000
7FF00000
3FF00000
1FE00000
06400000
00400000
00800000
00800000
01000000
01000000
02000000
02000000
04000000
04000000
08000000
10000000
10000000
20000000
20000000
40000000
40000000
80000000
80000000
ENDCHAR
STARTCHAR 00B7
ENCODING 183
SWIDTH 222 0
DWIDTH 16 0
BBX 4 5 10 11
BITMAP
20
70
F0
E0
C0
ENDCHAR
STARTCHAR 00B8
ENCODING 184
SWIDTH 236 0
DWIDTH 17 0
BBX 7 10 4 -10
BITMAP
02
0C
18
1C
0E
06
04
18
20
C0
ENDCHAR
STARTCHAR 00B9
ENCODING 185
SWIDTH 250 0
DWIDTH 18 0
BBX 13 14 11 16
BITMAP
00F8
0338
0030
0030
0060
0060
00C0
01C0
0180
0380
0300
0700
0E00
FFF0
ENDCHAR
STARTCHAR 00BA
ENCODING 186
SWIDTH 236 0
DWIDTH 17 0
BBX 13 15 7 12
BITMAP
0038
00F8
0138
0238
0438
0830
1830
3020
3060
6040
6080
E080
E100
E200
7C00
ENDCHAR
STARTCHAR 00BB
ENCODING 187
SWIDTH 361 0
DWIDTH 26 0
BBX 18 18 6 -2
BITMAP
070C00
070E00
038600
018700
01C300
00E380
0061C0
0071C0
0030C0
002100
00C200
010400
021800
042000
084000
108000
610000
C00000
ENDCHAR
STARTCHAR 00BC
ENCODING 188
SWIDTH 597 0
DWIDTH 43 0
BBX 35 37 8 -4
BITMAP
0000000060
00000000C0
001F000080
0067000100
0006000200
0006000400
000C000800
000C001000
0018002000
0038004000
0030008000
0070010000
0060020000
00C0060000
01C00C0000
1FFE080000
0000100000
0000200000
0000401000
0000803000
0001003080
0002002300
0004004400
0008008800
0010031800
0020041000
0040183000
00C0FFF000
0180FFDE00
030000C200
0600018000
0C00018000
0800010000
1000000000
2000000000
4000000000
C000000000
ENDCHAR
STARTCHAR 00BD
ENCODING 189
SWIDTH 597 0
DWIDTH 43 0
BBX 35 37 8 -4
BITMAP
0000000060
00000000C0
001F000080
0067000100
0006000200
0006000400
000C000800
000C001000
0018002000
0038004000
0030008000
0070010000
0060020000
00C0060000
01C00C0000
1FFE080000
0000100000
0000200000
0000400000
000081E000
0001067000
0002003000
0004003000
0008003000
0010006000
0020008000
0040010000
00C0020000
01800C0000
0300100000
06007C0000
0C01BF8200
080207FC00
1000000000
2000000000
4000000000
C000000000
ENDCHAR
STARTCHAR 00BE
ENCODING 190
SWIDTH 597 0
DWIDTH 43 0
BBX 35 37 8 -4
BITMAP
0000000060
000E0000C0
003F000080
00C3000100
0003000200
0006000400
0008000800
0030001000
0030002000
0038004000
0018008000
001C010000
0018020000
0018060000
10300C0000
1CC0080000
0F00100000
0000200000
0000401000
0000803000
0001003080
0002002300
0004004400
0008008800
0010031800
0020041000
0040183000
00C0FFF000
0180FFDE00
030000C200
0600018000
0C00018000
0800010000
1000000000
2000000000
4000000000
C000000000
ENDCHAR
STARTCHAR 00BF
ENCODING 191
SWIDTH 263 0
DWIDTH 19 0
BBX 21 34 -1 -18
BITMAP
000010
000038
000078
000038
000020
000000
000000
000700
000300
000300
000300
000300
000400
000800
003000
004000
008000
030000
040000
080000
100000
200000
600000
400000
C00000
C00000
C00000
E00000
F00000
780000
3F0000
0FC000
018000
008000
ENDCHAR
STARTCHAR 00C0
ENCODING 192
SWIDTH 722 0
DWIDTH 52 0
BBX 54 56 4 -4
BITMAP
00000000000C00
00000000000C00
00000000000600
00000000000200
00000000000200
00000000000100
00000000000100
00000000000080
00000000000000
00000000000000
00000000000004
00000000000004
00000000001F84
0000000001FFE4
000000000FFFF4
000000007FFFFC
00000001FF007C
00000007F0001C
0000001F80001C
0000003C00003C
000000F0000070
000001C00000E0
000007800000E0
00000E000001C0
00003800000380
00007000000780
0000E000000F00
00038000001E00
00070000002E00
000E0000005C00
001C000000B800
00380000013800
00700000027000
00E0000004E000
01C0000008E000
0380000011C000
0700000021C000
07000000438000
0E000000878000
1C000003070000
1C0000040F0000
380000080E0000
780000301E0000
780000401C0000
700001803C0000
F0000200380000
F0000C00780000
F0003000780000
F000C000700004
F8030000F00008
7FFC0000F00010
1FC00000F00060
00000000F00080
00000000F80300
000000007C1C00
000000003FE000
ENDCHAR
STARTCHAR 00C1
ENCODING 193
SWIDTH 722 0
DWIDTH 52 0
BBX 54 56 4 -4
BITMAP
0000000000000C
00000000000010
00000000000020
00000000000040
00000000000180
00000000000200
00000000000400
00000000000800
00000000000000
00000000000000
00000000000004
00000000000004
00000000001F84
0000000001FFE4
000000000FFFF4
000000007FFFFC
00000001FF007C
00000007F0001C
0000001F80001C
0000003C00003C
000000F0000070
000001C00000E0
000007800000E0
00000E000001C0
00003800000380
00007000000780
0000E000000F00
00038000001E00
00070000002E00
000E0000005C00
001C000000B800
00380000013800
00700000027000
00E0000004E000
01C0000008E000
0380000011C000
0700000021C000
07000000438000
0E000000878000
1C000003070000
1C0000040F0000
380000080E0000
780000301E0000
780000401C0000
700001803C0000
F0000200380000
F0000C00780000
F0003000780000
F000C000700004
F8030000F00008
7FFC0000F00010
1FC00000F00060
00000000F00080
00000000F80300
000000007C1C00
000000003FE000
ENDCHAR
STARTCHAR 00C2
ENCODING 194
SWIDTH 722 0
DWIDTH 52 0
BBX 54 56 4 -4
BITMAP
000000000000C0
000000000001C0
000000000006C0
000000000008C0
000000000010C0
000000000010C0
000000000020C0
000000000040C0
00000000000080
00000000000000
00000000000004
0000000000000C
00000000007C0C
0000000007FF9C
000000003FFFFC
00000000FFFFE0
00000003F800E0
0000000F800198
0000003E000180
000000F8000300
000001E0000600
00000780000600
00000E00000C00
00001C00001C00
00007000003800
0000E000003800
0001C000007000
0003000000B000
00060000012000
001C0000036000
00380000064000
007000000CC000
00E0000009C000
00C00000118000
01800000238000
03800000430000
07000000870000
0E000001070000
0E0000060E0000
1C00000C0E0000
3C0000181C0000
380000201C0000
780000401C0000
78000180380000
70000300380000
F0000400780000
F0001800780000
F0006000700000
F001C000F00040
F8070000F00080
7FF80000F00100
3FC00000F00200
00000000F00400
00000000F80800
000000007C3000
000000003FC000
ENDCHAR
STARTCHAR 00C3
ENCODING 195
SWIDTH 722 0
DWIDTH 52 0
BBX 54 54 4 -5
BITMAP
00000000003804
00000000004E04
00000000008708
00000000010388
000000000200F0
00000000000000
00000000000000
00000000000000
00000000000004
00000000000004
00000000001F84
0000000001FFE4
000000000FFFF4
000000007FFFFC
00000001FF007C
00000007F0001C
0000001F80001C
0000003C00003C
000000F0000070
000001C00000E0
000007800000E0
00000E000001C0
00003800000380
00007000000780
0000E000000F00
00038000001E00
00070000002E00
000E0000005C00
001C000000B800
00380000013800
00700000027000
00E0000004E000
01C0000008E000
0380000011C000
0700000021C000
07000000438000
0E000000878000
1C000003070000
1C0000040F0000
380000080E0000
780000301E0000
780000401C0000
700001803C0000
F0000200380000
F0000C00780000
F0003000780000
F000C000700004
F8030000F00008
7FFC0000F00010
1FC00000F00060
00000000F00080
00000000F80300
000000007C1C00
000000003FE000
ENDCHAR
STARTCHAR 00C4
ENCODING 196
SWIDTH 722 0
DWIDTH 52 0
BBX 54 51 4 -5
BITMAP
00000000000C60
00000000001CE0
000000000018C0
00000000000000
00000000000000
00000000000004
0000000000000C
0000000000FC0C
000000000FFF1C
000000003FFFBC
00000001FFFFFC
00000007F800FC
0000000F8001F0
0000003E0003E0
000000F80003E0
000001E00007C0
00000780000F80
00000E00000F80
00003C00001F00
00007000003F00
0000E000007E00
0001C000007C00
0003000000DC00
000E000001B800
001C0000037800
00380000067000
007000000CE000
00E0000018E000
01C0000011C000
0180000021C000
03800000438000
07000000838000
0E000003070000
0E000006070000
1C00000C0E0000
3C0000180E0000
380000301E0000
780000601C0000
780001803C0000
70000300380000
F0000E00780000
F0001800780000
F0006000780000
F001C000F00004
F8070000F00008
7FF80000F00010
1FC00000F00060
00000000F00080
00000000F80300
000000007C1C00
000000003FE000
ENDCHAR
STARTCHAR 00C5
ENCODING 197
SWIDTH 722 0
DWIDTH 52 0
BBX 54 55 4 -5
BITMAP
000000000003F0
0000000000040C
00000000000804
00000000001004
00000000001004
00000000001008
00000000001810
000000000006E0
00000000000100
00000000000004
00000000000004
00000000003F04
0000000003FFCC
000000000FFFFC
000000007FFFFC
00000001FE007C
00000007E0001C
0000001F80003C
0000007C00007C
000000F0000070
000003C00000E0
000007000001E0
00001E000003C0
00003800000380
00007000000780
0001C000000F00
00038000001E00
00070000007C00
000E000000BC00
001C0000013800
00380000037800
00700000027000
00E0000004E000
01C0000009E000
0380000031C000
0700000043C000
07000000838000
0E000001078000
1C000002070000
1C0000040F0000
380000080E0000
780000301E0000
780000401C0000
700001803C0000
F0000200380000
F0000C00780000
F0003000780000
F000C000700004
F8070000F00008
7FFC0000F00010
1FC00000F00060
00000000F00080
00000000F80300
000000007C1C00
000000003FE000
ENDCHAR
STARTCHAR 00C6
ENCODING 198
SWIDTH 1013 0
DWIDTH 73 0
BBX 72 42 4 1
BITMAP
000000000000060000
0000000000001C0000
0000000000FC180FF0
000000000FFF3030F8
000000003FFF704030
00000001FFFFE08020
00000007FC00C10020
0000000FC001C20000
0000003E0001820000
000000F80003060000
000001E00007060000
000007800006060000
00000F00000C060000
00003C00001C070000
000070000038078000
0000E00000383FF000
0001C0000071F00000
0003800000A7800000
000E0000017E000000
001C00000278000000
0038000004F0000000
0070000008E0000000
00E0000011C0000000
01C000003380000000
01C000002380000001
038000004700000001
070000008700000001
0E0000010F00000002
0E0000020E00000002
1C00000C1E00000004
3C0000101E00000004
380000203E00000008
780000403E00000008
780000807E00000010
700003006E00000020
F0000400E700000040
F0001801C780000080
F0002001C380000300
F000800383E0000400
F806000381F8003800
7FF80007007FFFC000
3FC00000001FF80000
ENDCHAR
STARTCHAR 00C7
ENCODING 199
SWIDTH 611 0
DWIDTH 44 0
BBX 46 53 4 -10
BITMAP
00000000001C
000000000018
000000000030
000000000030
00000003F860
0000003C0640
000000E003C0
000003800180
00000E000180
000038000100
000070000300
0001E0000600
0003C0000600
000700000E00
000E00000C00
001C00001C00
003C00001C00
007800003800
00F000007000
01E000000000
03C000000000
07C000000000
078000000000
0F0000000000
1F0000000000
1E0000000000
3E0000000000
3C0000000000
7C0000000000
780000000000
780000000000
F80000000000
F00000000000
F00000000000
F00000000000
F00000000000
F00000000000
F00000001F00
70000000FF80
780000078080
3800003C0080
1C0001C00080
0F001E000100
01FFE0000000
002000000000
004000000000
00C000000000
00F000000000
007000000000
003000000000
004000000000
008000000000
030000000000
ENDCHAR
STARTCHAR 00C8
ENCODING 200
SWIDTH 777 0
DWIDTH 56 0
BBX 59 52 0 0
BITMAP
0000000000300000
0000000000100000
0000000000180000
0000000000080000
0000000000080000
0000000000040000
0000000000040000
0000000001800000
0000000002000000
0000000004000000
0000000008000000
0000000018000000
00000007FFFFF000
0000007FFFFFE000
000001F020000000
0000070040000000
0000180040000000
0000600080000000
0000C00180000000
0001800100000000
0003000200000000
0006000200000000
0004000400000000
000C000400000000
0008000800000000
0018001000000000
0018001000000000
0018002000000000
0018004000000000
0018004000000000
001801FFFFF80000
000803FFF0000000
0000010000000000
0000020000000020
0000040000000020
0000080000000020
0000100000000020
0000200000000020
0000400000000020
0001800000000040
1FFF000000000040
203FC00000000080
4007F00000000080
C008FC0000000100
C0103F0000000300
E0200FC000000600
70C003F800000C00
3F0000FF00003800
0000003FF001E000
00000007FFFFC000
00000001FFFF0000
000000001FF80000
ENDCHAR
STARTCHAR 00C9
ENCODING 201
SWIDTH 777 0
DWIDTH 56 0
BBX 59 53 0 0
BITMAP
0000000000000300
0000000000000600
0000000000001800
0000000000003000
0000000000004000
0000000000008000
0000000000030000
0000000000040000
0000000001880000
0000000002000000
0000000004000000
0000000008000000
0000000018000000
00000007FFFFF000
0000007FFFFFE000
000001F020000000
0000070040000000
0000180040000000
0000600080000000
0000C00180000000
0001800100000000
0003000200000000
0006000200000000
0004000400000000
000C000400000000
0008000800000000
0018001000000000
0018001000000000
0018002000000000
0018004000000000
0018004000000000
001801FFFFF80000
000803FFF0000000
0000010000000000
0000020000000020
0000040000000020
0000080000000020
0000100000000020
0000200000000020
0000400000000020
0001800000000040
1FFF000000000040
203FC00000000080
4007F00000000080
C008FC0000000100
C0103F0000000300
E0200FC000000600
70C003F800000C00
3F0000FF00003800
0000003FF001E000
00000007FFFFC000
00000001FFFF0000
000000001FF80000
ENDCHAR
STARTCHAR 00CA
ENCODING 202
SWIDTH 777 0
DWIDTH 56 0
BBX 59 53 0 -1
BITMAP
0000000000000800
0000000000001800
0000000000007800
0000000000009800
0000000000011800
0000000000021800
0000000000041800
0000000000081800
0000000000801800
0000000003000000
0000000006000000
000000000C000000
0000000008000000
00000007FFFFF000
0000007FFFFFE000
000001F020000000
0000070060000000
0000180040000000
00002000C0000000
0000C00080000000
0001800100000000
0003000100000000
0002000200000000
0004000600000000
000C000400000000
000C000800000000
0018000800000000
0018001000000000
0018002000000000
0018002000000000
0018004000000000
001801FFFFFC0000
000803FFF0000000
0000010000000000
0000020000000020
0000040000000020
0000080000000020
0000100000000020
0000200000000020
0000400000000020
0001800000000040
1FFF000000000040
203FC00000000080
4007F00000000080
C008FC0000000100
C0103F0000000300
E0200FC000000600
70C003F800000C00
3F0000FF00003800
0000003FF001E000
00000007FFFFC000
00000001FFFF0000
000000001FF80000
ENDCHAR
STARTCHAR 00CB
ENCODING 203
SWIDTH 777 0
DWIDTH 56 0
BBX 59 49 0 -1
BITMAP
0000000000063000
00000000000E7000
00000000000C6000
0000000000400000
0000000001800000
0000000003000000
0000000006000000
0000000004000000
000000000C000000
00000007FFFFF000
0000007FFFFFE000
000001F030000000
0000070020000000
0000180060000000
0000200040000000
0000C00080000000
0001800180000000
0003000100000000
0002000200000000
0004000200000000
000C000400000000
000C000C00000000
0018000800000000
0018001000000000
0018001000000000
0018002000000000
0018004000000000
001801FFFFFC0000
000801FFF8000000
0000010000000000
0000020000000020
0000040000000020
0000080000000020
0000100000000020
0000200000000020
0000400000000020
0000800000000040
1FFF000000000040
203FC00000000080
4007F00000000080
C008FC0000000100
C0103F0000000300
E0200FC000000600
70C003F800000C00
3F0000FF00003800
0000003FF001E000
00000007FFFFC000
00000001FFFF0000
000000001FF80000
ENDCHAR
STARTCHAR 00CC
ENCODING 204
SWIDTH 361 0
DWIDTH 26 0
BBX 46 54 -1 0
BITMAP
000000000020
000000000060
000000000030
000000000030
000000000010
000000000008
000000000008
000000000004
000000000000
000000000000
000000000000
00000000001C
00000000006C
00000000008C
000000000118
000000000230
0000000002C0
000000000F00
000000007800
000000039800
0000001C1800
000000603000
000001807000
000006006000
00000C00E000
00001801C000
00003001C000
000070038000
000070038000
000060070000
0000600F0000
0000200E0000
0000001E0000
0000001C0000
000000380000
000000380000
000000700000
000000700000
000000E00000
000001C00000
000001C00000
000003800000
000003000000
000007000000
00000E000000
00000C000000
000018000000
000030000000
000060000000
000080000000
400300000000
F80C00000000
FFF000000000
7F8000000000
ENDCHAR
STARTCHAR 00CD
ENCODING 205
SWIDTH 361 0
DWIDTH 26 0
BBX 49 51 -1 1
BITMAP
00000000000080
00000000000300
00000000000600
00000000000800
00000000001000
00000000006000
00000000008000
00000000010000
00000000021C00
00000000006C00
00000000008C00
00000000011800
00000000023000
0000000002C000
000000000F0000
00000000780000
00000003980000
0000001C180000
00000060300000
00000180700000
00000600600000
00000C00E00000
00001801C00000
00003001C00000
00007003800000
00007003800000
00006007000000
0000600F000000
0000200E000000
0000001E000000
0000001C000000
00000038000000
00000038000000
00000070000000
00000070000000
000000E0000000
000001C0000000
000001C0000000
00000380000000
00000300000000
00000700000000
00000E00000000
00000C00000000
00001800000000
00003000000000
00006000000000
00008000000000
40030000000000
F80C0000000000
FFF00000000000
7F800000000000
ENDCHAR
STARTCHAR 00CE
ENCODING 206
SWIDTH 361 0
DWIDTH 26 0
BBX 49 54 -1 0
BITMAP
00000000000080
00000000000180
00000000000780
00000000000980
00000000001180
00000000002180
00000000004180
00000000008180
00000000000100
00000000000000
00000000000000
00000000001C00
00000000006C00
00000000008C00
00000000011800
00000000023000
0000000002C000
000000000F0000
00000000780000
00000003980000
0000001C180000
00000060300000
00000180700000
00000600600000
00000C00E00000
00001801C00000
00003001C00000
00007003800000
00007003800000
00006007000000
0000600F000000
0000200E000000
0000001E000000
0000001C000000
00000038000000
00000038000000
00000070000000
00000070000000
000000E0000000
000001C0000000
000001C0000000
00000380000000
00000300000000
00000700000000
00000E00000000
00000C00000000
00001800000000
00003000000000
00006000000000
00008000000000
40030000000000
F80C0000000000
FFF00000000000
7F800000000000
ENDCHAR
STARTCHAR 00CF
ENCODING 207
SWIDTH 361 0
DWIDTH 26 0
BBX 49 49 -1 0
BITMAP
00000000003180
00000000007380
00000000006300
00000000000000
00000000000000
00000000000000
00000000003000
0000000000D000
00000000009000
00000000012000
00000000022000
0000000006C000
00000000070000
000000007C0000
00000003980000
0000001C180000
00000060300000
00000180700000
00000700600000
00000C00E00000
00001801C00000
00003801C00000
00007003800000
00007003800000
00006007000000
00006007000000
0000200E000000
0000001E000000
0000001C000000
0000003C000000
00000038000000
00000070000000
00000070000000
000000E0000000
000001E0000000
000001C0000000
00000380000000
00000300000000
00000700000000
00000E00000000
00000C00000000
00001800000000
00003000000000
00006000000000
00008000000000
40030000000000
F80C0000000000
FFF00000000000
7F800000000000
ENDCHAR
STARTCHAR 00D0
ENCODING 208
SWIDTH 888 0
DWIDTH 64 0
BBX 64 50 3 1
BITMAP
0000000000004000
0000000000018000
0000000000060000
00000000000E0000
00000000001C0000
0000000000380000
0000000000380000
0000000000700000
0000000000F00000
0000000000E00000
0000000001E00000
00000001FFFF8000
0000003E01C0F800
000001C003801F00
00000E0003800380
00003800070001E0
000070000F0000F0
0000C0000E000078
000380001E00003C
000700001C00003C
000600003800001E
000E00003800001E
001C00007000000F
001C00007000000F
00180000E000000F
00080000E000000F
00000001C000000F
00000003C000000F
000000038000000F
000000070000000F
000000070000000F
000003FFFFE0000E
0000001C0000001E
0000001C0000001E
180000380000001C
3C0000700000003C
3E0000600000003C
7F0000E000000078
5F0001C000000070
4F800180000000F0
87C00300000001E0
83E00600000001C0
81F80C0000000380
807C180000000F00
C03E200000001C00
C01FC00000003800
E007E0000000E000
7003FE0000070000
780C3FE000380000
1FF000FFFFC00000
ENDCHAR
STARTCHAR 00D1
ENCODING 209
SWIDTH 791 0
DWIDTH 57 0
BBX 64 56 3 -8
BITMAP
0000000000038040
000000000004E040
0000000000087080
0000000000103880
0000000000200F00
0000000000000000
0000000000000000
0000000000000000
0000000000000078
00000000000003FE
0000000000001FFE
000000000000781F
000000000000C00F
0000000000030007
0000000000040007
0000000780180007
0000003F80200006
000000E780400006
000003070180000C
00000C070200000C
0000300604000018
0000400608000010
0000800C10000020
0002000C20000040
00040018C00000C0
0008001980000080
0030003300000100
0060002400000200
00C0006C00000400
0180005800000800
030000F000001000
060000A000002000
0400014000004000
0C00038000008000
1800030000030000
3800060000030000
30000E00000E0000
70000C00001C0000
6000180000180000
6000300000300000
E000700000600000
C000600000C00000
C000E00001C00000
C001C00003800000
C001C00007000000
C003800007000000
C00380000F000000
C00300000E000000
400000001E000000
600000001E000000
200000001E000000
200000001E000040
100000001F000380
080000000F000C00
0400000007C1F000
0380000001FE0000
ENDCHAR
STARTCHAR 00D2
ENCODING 210
SWIDTH 597 0
DWIDTH 43 0
BBX 46 49 4 1
BITMAP
000000018000
000000008000
00000000C000
000000004000
000000004000
000000002000
000000002000
000000002000
000000000000
000000000000
000000007F80
0000000381E0
0000000C0070
000001F80038
00000E70003C
00003060001C
000040C0001C
000100C0001C
00020180001C
000C0180001C
00180180001C
003001800018
006000800018
00C000000030
01C000000030
038000000030
070000000060
070000000060
0E00000000C0
1E0000000080
1C0000000180
3C0000000100
380000000200
780000000400
780000000C00
700000000800
F00000001000
F00000002000
F00000004000
F00000008000
F00000030000
F00000040000
F80000080000
780000300000
7C0000400000
3E0001800000
1F000E000000
0FFFF0000000
01FE00000000
ENDCHAR
STARTCHAR 00D3
ENCODING 211
SWIDTH 597 0
DWIDTH 43 0
BBX 46 51 4 1
BITMAP
00000000000C
000000000018
000000000060
0000000000C0
000000000100
000000000200
000000000C00
000000001000
000000002000
000000000000
000000000000
000000000000
000000007F80
0000000381E0
0000000C0070
000001F80038
00000E70003C
00003060001C
000040C0001C
000100C0001C
00020180001C
000C0180001C
00180180001C
003001800018
006000800018
00C000000030
01C000000030
038000000030
070000000060
070000000060
0E00000000C0
1E0000000080
1C0000000180
3C0000000100
380000000200
780000000400
780000000C00
700000000800
F00000001000
F00000002000
F00000004000
F00000008000
F00000030000
F00000040000
F80000080000
780000300000
7C0000400000
3E0001800000
1F000E000000
0FFFF0000000
01FE00000000
ENDCHAR
STARTCHAR 00D4
ENCODING 212
SWIDTH 597 0
DWIDTH 43 0
BBX 46 50 4 1
BITMAP
000000000060
0000000000E0
000000000360
000000000460
000000000860
000000001060
000000002060
000000004060
000000000040
000000000000
000000000000
000000007F80
0000000181E0
0000000C0070
000001F80038
00000E70003C
00003060001C
000040C0001C
000180C0001C
00020180001C
000C0180001C
00180180001C
003001800018
006000800018
00C000000030
01C000000030
038000000030
070000000060
070000000060
0E00000000C0
1E0000000080
1C0000000180
3C0000000100
380000000200
780000000400
780000000C00
700000000800
F00000001000
F00000002000
F00000004000
F00000008000
F00000030000
F00000040000
F80000080000
780000300000
7C0000400000
3E0001800000
1F000E000000
0FFFF0000000
01FE00000000
ENDCHAR
STARTCHAR 00D5
ENCODING 213
SWIDTH 597 0
DWIDTH 43 0
BBX 46 47 4 0
BITMAP
00000000E010
000000013810
000000021C20
000000040E60
000000080380
000000000000
000000000000
000000000000
000000007F80
0000000381E0
0000000C0070
000001F80038
00000E70003C
00003060001C
000040C0001C
000100C0001C
00020180001C
000C0180001C
00180180001C
003001800018
006000800018
00C000000030
01C000000030
038000000030
070000000060
070000000060
0E00000000C0
1E0000000080
1C0000000180
3C0000000100
380000000200
780000000400
780000000C00
700000000800
F00000001000
F00000002000
F00000004000
F00000008000
F00000030000
F00000040000
F80000080000
780000300000
7C0000400000
3E0001800000
1F000E000000
0FFFF0000000
01FE00000000
ENDCHAR
STARTCHAR 00D6
ENCODING 214
SWIDTH 597 0
DWIDTH 43 0
BBX 44 45 4 0
BITMAP
000000000630
000000000E70
000000000C60
000000000000
000000000000
000000000000
000000007F00
000000038180
0000000C0060
000001F80020
00000E700030
000030600010
000040C00010
000180C00010
000201800010
000C01800010
001801800010
003001800020
006000800020
00C000000020
01C000000040
038000000040
070000000080
070000000080
0E0000000100
1E0000000100
1C0000000200
3C0000000200
380000000400
780000000800
780000000800
700000001000
F00000002000
F00000004000
F00000008000
F00000010000
F00000020000
F00000040000
F80000180000
780000200000
7C0000C00000
3E0003000000
1F000C000000
0FFFF0000000
03FE00000000
ENDCHAR
STARTCHAR 00D7
ENCODING 215
SWIDTH 402 0
DWIDTH 29 0
BBX 18 13 7 3
BITMAP
0180C0
0181C0
018700
008C00
00B800
00E000
01C000
03C000
0E4000
184000
306000
E06000
406000
ENDCHAR
STARTCHAR 00D8
ENCODING 216
SWIDTH 597 0
DWIDTH 43 0
BBX 47 46 3 -4
BITMAP
000000000002
000000000004
000000000008
00000001FFF0
0000007F8058
0000039E009C
00000C3C010E
00003078020E
00004070040E
000080E0080E
000300E0100E
000600C0200E
000C00C0400E
001800C0800C
00300041001C
00600002001C
00E000040018
00C000080018
018000100030
038000200030
030000400060
070000800060
0E00010000C0
0E0002000080
1E0004000180
1C0008000300
3C0010000200
3C0020000400
380040000800
380080001000
780100002000
780200004000
780400008000
780800010000
781000020000
782000040000
7C4000180000
3C8000200000
3D0001C00000
3E0006000000
1FFFF8000000
0FFF00000000
100000000000
200000000000
400000000000
800000000000
ENDCHAR
STARTCHAR 00D9
ENCODING 217
SWIDTH 861 0
DWIDTH 62 0
BBX 66 54 3 -5
BITMAP
000000000000800000
000000000000800000
000000000000800000
000000000000400000
000000000000400000
000000000000200000
000000000000200000
000000000000200000
000000000000000000
0000000FE0000000C0
0000007FF000000180
000001C0F800000380
000006007800000300
000018003800000600
000020003800000C00
000040003800001800
000180003000001000
000200003000002000
000400003000004000
000800006000008000
001000004000008000
00200000C000010000
004000018000020000
008000018000020000
0080000300000C0000
0100000200000C0000
020000060000380000
0600000C0000580000
040000080000900000
0C0000180001300000
080000300002200000
180000200004600000
100000600008400000
300000C00010C00000
300001C00020C00000
700001800041800000
600003000081800000
600007000101800000
E00006000603000000
E0000E000803000000
E0001E001003000000
E0001C006003000400
E0001C008007000400
E0003C030007000800
E0003C040007000800
70003E380007001000
70003FC00007801000
70001F000007802000
380000000003C04000
180000000003E08000
0C0000000001FF0000
060000000000F80000
018000000000000000
007800000000000000
ENDCHAR
STARTCHAR 00DA
ENCODING 218
SWIDTH 861 0
DWIDTH 62 0
BBX 66 55 3 -6
BITMAP
000000000000001000
000000000000002000
00000000000000C000
000000000000018000
000000000000020000
000000000000040000
000000000000180000
000000000000200000
000000000000400000
000000000000000000
0000000FE0000000C0
0000007FF000000180
000001C0F800000380
000006007800000300
000018003800000600
000020003800000C00
000040003800001800
000180003000001000
000200003000002000
000400003000004000
000800006000008000
001000004000008000
00200000C000010000
004000018000020000
008000018000020000
0080000300000C0000
0100000200000C0000
020000060000380000
0600000C0000580000
040000080000900000
0C0000180001300000
080000300002200000
180000200004600000
100000600008400000
300000C00010C00000
300001C00020C00000
700001800041800000
600003000081800000
600007000101800000
E00006000603000000
E0000E000803000000
E0001E001003000000
E0001C006003000400
E0001C008007000400
E0003C030007000800
E0003C040007000800
70003E380007001000
70003FC00007801000
70001F000007802000
380000000003C04000
180000000003E08000
0C0000000001FF0000
060000000000F80000
018000000000000000
007800000000000000
ENDCHAR
STARTCHAR 00DB
ENCODING 219
SWIDTH 861 0
DWIDTH 62 0
BBX 66 54 3 -5
BITMAP
000000000000030000
000000000000070000
0000000000001B0000
000000000000230000
000000000000430000
000000000001830000
000000000002030000
000000000004030000
000000000000020000
0000000FE0000000C0
0000007FF0000000C0
000001C0F800000180
000006007800000300
000018003800000700
000020003800000600
000040003800000C00
000180003000001800
000200003000002000
000400003000002000
000800006000004000
001000004000008000
00200000C000010000
004000018000010000
008000018000020000
008000030000040000
0100000200000C0000
020000060000180000
0600000C0000280000
040000080000500000
0C0000180000900000
080000300001200000
180000200002600000
100000600004400000
300000C00008C00000
300001C00030C00000
700001800040800000
600003000081800000
600007000101800000
E00006000203800000
E0000E000C03000000
E0001E001003000000
E0001C002003000200
E0001C00C007000200
E0003C010007000400
E0003C060007000400
70003E380007000800
70003FC00007801000
70001F000007801000
380000000003C02000
180000000003E0C000
0C0000000001FF0000
060000000000FC0000
018000000000000000
007800000000000000
ENDCHAR
STARTCHAR 00DC
ENCODING 220
SWIDTH 861 0
DWIDTH 62 0
BBX 65 53 3 -6
BITMAP
0000000000030C0000
0000000000071C0000
000000000006180000
000000000000000000
000000000000000000
000000000000000000
000000000000000000
000000000000000000
0000000FE000000180
0000007FF000000180
000001C0F800000300
000006007800000600
000018003800000E00
000020003800000C00
000040003800001800
000180003000003000
000200003000002000
000400003000004000
000800006000008000
001000004000010000
00200000C000010000
004000018000020000
008000018000060000
0080000300000C0000
010000020000180000
020000060000380000
0600000C0000500000
040000080000B00000
0C0000180001300000
080000300002200000
180000200004600000
100000600008400000
300000C00010C00000
300001C00020C00000
700001800041800000
600003000081800000
600007000301800000
E00006000403000000
E0000E000803000000
E0001E001003000000
E0001C006007000400
E0001C008007000800
E0003C030007000800
E0003C040007000800
70003E380007001000
70003FC00007802000
70001F000007802000
380000000003C04000
180000000003E18000
0C0000000001FE0000
060000000000F80000
018000000000000000
007800000000000000
ENDCHAR
STARTCHAR 00DD
ENCODING 221
SWIDTH 583 0
DWIDTH 42 0
BBX 66 71 -7 -20
BITMAP
000000000000008000
000000000000018000
000000000000020000
0000000000000C0000
000000000000180000
000000000000200000
000000000000400000
000000000001800000
0000000000020003C0
000000000004000440
000000000000000840
0000000000000010C0
00000007C000003080
00000018E000002180
000000206000004100
000000C0600000C200
000001006000018400
000002006000010800
00000400E000031800
00000800C000061000
00001001C000062000
00002001C0000C4000
000000038000188000
000000038000190000
000000070000320000
000000070000740000
0000000E0000680000
0000000E0000F00000
0000001C0000E00000
0000001C0001C00000
000000180003800000
000000380003800000
000000300007000000
00000070000E000000
00000070001E000000
00000060007C000000
00000060019C000000
000000600638000000
000000601838000000
00000030E070000000
0000001F0070000000
0000000000E0000000
0000000000C0000000
0000000001C0000000
000000000380000000
000000000380000000
000000000700000000
000000000600000000
000000000E00000000
000000000C00000000
000000001800000000
000000001800000000
000000003000000000
000000006000000000
000000006000000000
00000000C000000000
000000018000000000
000000010000000000
000000030000000000
800000060000000000
8000000C0000000000
800000180000000000
C00000100000000000
C00000200000000000
C00000800000000000
E00001000000000000
700002000000000000
78000C000000000000
3E0070000000000000
1FFF80000000000000
03FC00000000000000
ENDCHAR
STARTCHAR 00DE
ENCODING 222
SWIDTH 527 0
DWIDTH 38 0
BBX 46 53 2 -1
BITMAP
000000000100
000000000200
000000000C00
000000001000
000000002000
00000000E000
00000000C000
000000018000
000000038000
000000030000
000000070000
000000060000
0000000E0000
0000000C0000
000001FFC000
00003E183E00
0003C03807C0
001C003001E0
0060007000F0
01C000600078
030000C00078
0E0000C0003C
1C000180003C
38000180003C
380003000038
700003000038
700006000038
700006000030
70000C000030
70000C000060
000018000060
0000180000C0
000030000180
000030000300
000063000400
000067801800
0000C3F0E000
000081FF8000
000180000000
000100000000
000300000000
000200000000
000400000000
000400000000
000800000000
001000000000
001000000000
002000000000
004000000000
018000000000
1E0000C00000
7FFFFF000000
FFFFF8000000
ENDCHAR
STARTCHAR 00DF
ENCODING 223
SWIDTH 250 0
DWIDTH 18 0
BBX 68 71 -32 -32
BITMAP
0000000000000007E0
000000000000003870
000000000000004030
000000000000008030
000000000000030030
000000000000060030
0000000000000C0020
000000000000080060
000000000000180040
000000000000300080
000000000000600100
000000000000E00200
000000000000C00400
000000000001800800
000000000003801000
000000000003002000
000000000007004000
000000000006008000
00000000000E030000
00000000001C040000
000000000018180000
000000000038200000
000000000030C00000
000000000071000000
000000000062000000
0000000000E4000000
0000000000CC000000
0000000001CC000000
00000000018C000000
00000000030C000000
00000000030C000000
00000000060C000000
00000000060C000000
000000000C0C000000
000000002C0C000000
00000000780C000000
00000001FC08000000
000000023F30000000
000000003FC0000000
000000006000000000
000000006000000000
00000000C000000000
00000000C000000000
000000018000000000
000000018000000000
000000030000000000
000000020000000000
000000060000000000
0000000C0000000000
000000080000000000
000000180000000000
000000100000000000
000000200000000000
000000600000000000
000000400000000000
000000800000000000
000001800000000000
000003000000000000
000002000000000000
000004000000000000
000008000000000000
000010000000000000
000020000000000000
000040000000000000
000080000000000000
000100000000000000
000600000000000000
C00C00000000000000
E07000000000000000
FFC000000000000000
7F0000000000000000
ENDCHAR
STARTCHAR 00E0
ENCODING 224
SWIDTH 263 0
DWIDTH 19 0
BBX 22 32 2 -3
BITMAP
004000
004000
006000
002000
002000
001000
001000
000800
000800
000000
000080
000300
000300
001E00
006600
008E00
010C00
021C00
041800
0C7800
187800
10B000
313004
612008
626010
C46020
C86020
F04040
E04080
004100
004600
003800
ENDCHAR
STARTCHAR 00E1
ENCODING 225
SWIDTH 263 0
DWIDTH 19 0
BBX 23 32 2 -2
BITMAP
000002
00000C
000018
000030
000040
000180
000200
000400
000800
000000
000040
0000C0
000180
000780
001900
006300
008600
010600
020C00
041C00
082800
183800
305004
60B008
612010
C22020
C46020
F84040
E04080
004100
004600
003800
ENDCHAR
STARTCHAR 00E2
ENCODING 226
SWIDTH 263 0
DWIDTH 19 0
BBX 22 32 2 -2
BITMAP
000060
0000E0
000360
000460
000860
001060
002060
004060
000040
000000
000060
0000C0
0001C0
000F80
003380
004700
008700
010E00
061E00
0C1C00
083800
105800
30B004
613008
623010
C26020
CC6020
F04040
E04080
004100
004600
003800
ENDCHAR
STARTCHAR 00E3
ENCODING 227
SWIDTH 263 0
DWIDTH 19 0
BBX 22 29 2 -3
BITMAP
003804
004E04
008708
010388
0201F0
000000
000000
000000
0000C0
000180
000780
001900
006300
008600
010600
020C00
041C00
082800
103800
305008
60B008
612010
C22020
C46040
F84040
E04080
004100
004600
003800
ENDCHAR
STARTCHAR 00E4
ENCODING 228
SWIDTH 263 0
DWIDTH 19 0
BBX 22 28 2 -3
BITMAP
000C60
001CE0
0018C0
000000
000000
000000
000000
000060
0000C0
000780
001880
002100
00C300
018200
030600
060C00
0C1800
183800
305004
20B008
613010
C22020
C46020
F84040
E04080
004100
004600
003800
ENDCHAR
STARTCHAR 00E5
ENCODING 229
SWIDTH 263 0
DWIDTH 19 0
BBX 22 32 2 -3
BITMAP
0003E0
000C10
000810
001010
001010
001020
001820
000FC0
000000
000000
000000
000070
0000E0
0007C0
0019C0
002380
00C300
010700
020E00
040C00
083C00
185800
305804
20B008
613010
C22020
C46020
F84040
E04080
004100
004600
003800
ENDCHAR
STARTCHAR 00E6
ENCODING 230
SWIDTH 291 0
DWIDTH 21 0
BBX 25 15 2 1
BITMAP
003F1800
00431800
01861800
020C1000
04182000
08384000
08318000
10760080
30F80100
21E00200
62C00400
44C01000
C8E06000
F0FF8000
C07C0000
ENDCHAR
STARTCHAR 00E7
ENCODING 231
SWIDTH 222 0
DWIDTH 16 0
BBX 19 25 2 -10
BITMAP
001C00
007E00
008E00
030600
020400
040000
080000
080020
180040
100080
300100
300600
300800
301000
386000
1F8000
080000
100000
380000
3C0000
0C0000
080000
100000
200000
C00000
ENDCHAR
STARTCHAR 00E8
ENCODING 232
SWIDTH 236 0
DWIDTH 17 0
BBX 22 28 4 1
BITMAP
020000
020000
010000
010000
008000
008000
008000
004000
000000
000000
000000
000000
007000
01B000
063000
042000
08600C
18C3F0
317C00
328000
600000
600000
C00000
C00000
C00000
C00000
C00000
7F0000
ENDCHAR
STARTCHAR 00E9
ENCODING 233
SWIDTH 236 0
DWIDTH 17 0
BBX 22 28 4 1
BITMAP
0000C0
000100
000600
000C00
001000
002000
00C000
010000
020000
000000
000000
000000
007000
01B000
063000
042000
08600C
18C3F0
317C00
328000
600000
600000
C00000
C00000
C00000
C00000
C00000
7F0000
ENDCHAR
STARTCHAR 00EA
ENCODING 234
SWIDTH 236 0
DWIDTH 17 0
BBX 22 28 4 1
BITMAP
000100
000700
000B00
001300
002300
004300
008300
010300
000200
000000
000000
000000
007000
01B000
063000
042000
08600C
18C3F0
317C00
328000
600000
600000
C00000
C00000
C00000
C00000
C00000
7F0000
ENDCHAR
STARTCHAR 00EB
ENCODING 235
SWIDTH 236 0
DWIDTH 17 0
BBX 22 25 4 0
BITMAP
00C600
01CE00
018C00
000000
000000
000000
000000
000000
000000
003000
01D000
031000
061000
0C200C
1843F0
38FC00
310000
700000
600000
E00000
C00000
C00000
C00000
C00000
3FC000
ENDCHAR
STARTCHAR 00EC
ENCODING 236
SWIDTH 166 0
DWIDTH 12 0
BBX 15 28 3 0
BITMAP
0400
0400
0600
0200
0200
0100
0100
0080
0080
0000
0000
0000
0000
3F00
0600
0600
0C00
0C00
1800
3002
3002
6004
6008
4030
C040
C080
E300
7C00
ENDCHAR
STARTCHAR 00ED
ENCODING 237
SWIDTH 166 0
DWIDTH 12 0
BBX 16 28 3 1
BITMAP
0001
0003
0004
0018
0030
0040
0080
0300
0400
0000
0000
0000
0000
3F00
0600
0600
0C00
0C00
1800
3002
3002
6004
6008
4030
C040
C080
E300
7C00
ENDCHAR
STARTCHAR 00EE
ENCODING 238
SWIDTH 166 0
DWIDTH 12 0
BBX 15 28 3 0
BITMAP
0004
000C
003C
004C
008C
010C
060C
080C
000C
0000
0000
0000
0000
3F80
0700
0700
0E00
0C00
1800
3802
3002
6004
6008
6030
C040
C080
E300
7C00
ENDCHAR
STARTCHAR 00EF
ENCODING 239
SWIDTH 166 0
DWIDTH 12 0
BBX 15 25 3 0
BITMAP
018C
039C
0318
0000
0000
0000
0000
0000
0000
0000
1F80
0300
0300
0600
0C00
0800
1802
3002
2004
6008
6030
C040
C080
E300
7C00
ENDCHAR
STARTCHAR 00F0
ENCODING 240
SWIDTH 236 0
DWIDTH 17 0
BBX 18 50 1 -2
BITMAP
800000
C00000
C00000
600000
700000
300000
380000
180000
1C0000
0E0000
060000
070000
030000
038000
018000
01C000
00C000
00C3C0
007C00
00E000
0F3000
083000
001800
001800
000800
000C00
000C00
000400
000400
000200
000200
000200
000200
000600
001A00
002100
004100
00C200
018200
038200
030200
070200
060600
0E0400
0E0C00
0C0800
0C1000
0C2000
0E4000
078000
ENDCHAR
STARTCHAR 00F1
ENCODING 241
SWIDTH 263 0
DWIDTH 19 0
BBX 22 28 2 -3
BITMAP
001C04
002604
004304
008188
0100F0
000000
000000
000000
000000
000000
018C00
079C00
012C00
014C00
038800
031800
061800
043000
0C3000
086000
186008
104010
30C020
30C040
618080
618300
C18C00
C1F000
ENDCHAR
STARTCHAR 00F2
ENCODING 242
SWIDTH 236 0
DWIDTH 17 0
BBX 23 28 3 1
BITMAP
00C000
00C000
006000
003000
001000
001800
000800
000400
000000
000000
000000
000000
003802
01C404
068408
088430
088440
108580
20C600
20FC00
600800
401800
C01000
C02000
C04000
C18000
E20000
7C0000
ENDCHAR
STARTCHAR 00F3
ENCODING 243
SWIDTH 236 0
DWIDTH 17 0
BBX 23 29 3 0
BITMAP
000008
000030
000060
000080
000300
000400
001800
002000
004000
000000
000000
000000
000000
003802
01C404
068408
088430
088440
108580
20CE00
20F800
601000
401000
C02000
C04000
C08000
C10000
E60000
780000
ENDCHAR
STARTCHAR 00F4
ENCODING 244
SWIDTH 236 0
DWIDTH 17 0
BBX 24 28 3 1
BITMAP
0000C0
0003C0
0004C0
0008C0
0010C0
0020C0
0040C0
0080C0
000000
000000
000000
000000
003801
01C402
06840C
088410
088460
108580
20CE00
20F800
601000
401000
C02000
C04000
C08000
C10000
E60000
780000
ENDCHAR
STARTCHAR 00F5
ENCODING 245
SWIDTH 236 0
DWIDTH 17 0
BBX 24 26 3 0
BITMAP
007008
009C08
010E10
020710
0403E0
000000
000000
000000
000000
000000
003801
01C406
068408
088430
088440
108580
20CE00
20F800
601000
401000
C02000
C04000
C08000
C10000
E60000
780000
ENDCHAR
STARTCHAR 00F6
ENCODING 246
SWIDTH 236 0
DWIDTH 17 0
BBX 24 25 3 0
BITMAP
000C60
001CE0
0018C0
000000
000000
000000
000000
000000
000000
003801
01E402
06C40C
088410
088460
108480
20C700
20FC00
600800
401000
C01000
C02000
C04000
C18000
E20000
7C0000
ENDCHAR
STARTCHAR 00F7
ENCODING 247
SWIDTH 402 0
DWIDTH 29 0
BBX 17 12 10 3
BITMAP
003000
007000
006000
000000
000000
FFFF80
3FFF00
000000
000000
060000
0E0000
0C0000
ENDCHAR
STARTCHAR 00F8
ENCODING 248
SWIDTH 236 0
DWIDTH 17 0
BBX 24 19 2 -2
BITMAP
000100
000500
001E00
006703
018CFC
021400
042400
0C4C00
088800
108800
111800
321000
242000
284000
308000
310000
3E0000
400000
800000
ENDCHAR
STARTCHAR 00F9
ENCODING 249
SWIDTH 291 0
DWIDTH 21 0
BBX 22 28 3 1
BITMAP
004000
006000
002000
002000
001000
001000
001000
001000
000000
000000
000000
000000
078100
184180
604380
004700
008600
018E00
030C00
061800
0C3800
187000
30E004
616008
C24010
844020
8840C0
F03F00
ENDCHAR
STARTCHAR 00FA
ENCODING 250
SWIDTH 291 0
DWIDTH 21 0
BBX 22 29 3 0
BITMAP
000008
000010
000060
0000C0
000100
000200
000C00
001000
002000
000000
000000
000000
000000
078100
184180
604380
004700
008600
018E00
030C00
061800
0C3800
187000
30E004
616008
C24010
844020
8840C0
F03F00
ENDCHAR
STARTCHAR 00FB
ENCODING 251
SWIDTH 291 0
DWIDTH 21 0
BBX 22 28 3 1
BITMAP
000060
0000E0
000360
000460
000860
001060
002060
004060
000040
000000
000000
000000
078040
184060
6040C0
0041C0
008380
018300
030600
060C00
0C1800
183000
30B000
60E004
C14018
864020
8840C0
F03F00
ENDCHAR
STARTCHAR 00FC
ENCODING 252
SWIDTH 291 0
DWIDTH 21 0
BBX 22 25 3 0
BITMAP
000630
000E70
000C60
000000
000000
000000
000000
000000
000000
078080
184180
604180
004380
008700
018600
030C00
061C00
0C3800
183000
30F004
616008
C24010
844020
8840C0
F03F00
ENDCHAR
STARTCHAR 00FD
ENCODING 253
SWIDTH 236 0
DWIDTH 17 0
BBX 76 66 -48 -36
BITMAP
00000000000000000060
000000000000000000C0
00000000000000000100
00000000000000000200
00000000000000000C00
00000000000000001000
00000000000000002000
0000000000000000C0F0
000000000000000101F0
00000000000000000630
00000000000000000810
00000000000000001000
00000000000000002000
00000000000000004000
00000000000000604000
00000000000003E08000
0000000000001CE10000
00000000000001C10000
00000000000001820000
00000000000003840000
00000000000003040000
00000000000007080000
00000000000006080000
0000000000000E100000
0000000000001C100000
0000000000001C200000
00000000000038400000
00000000000038400000
0000000000003B800000
00000000000004800000
00000000000001000000
00000000000002000000
00000000000002000000
00000000000004000000
00000000000004000000
00000000000008000000
00000000000010000000
00000000000010000000
00000000000020000000
00000000000040000000
00000000000080000000
00000000000080000000
00000000000100000000
00000000000200000000
00000000000400000000
00000000000400000000
00000000000800000000
00000000001000000000
00000000002000000000
80000000004000000000
80000000008000000000
80000000010000000000
80000000010000000000
80000000020000000000
800000000C0000000000
80000000100000000000
C0000000200000000000
40000000400000000000
60000000800000000000
70000003000000000000
38000004000000000000
3C000018000000000000
1F000060000000000000
07F00780000000000000
03FFFC00000000000000
007FC000000000000000
ENDCHAR
STARTCHAR 00FE
ENCODING 254
SWIDTH 250 0
DWIDTH 18 0
BBX 43 53 -20 -24
BITMAP
000000000800
000000001C00
000000001800
000000003800
000000003000
000000007000
00000000E000
00000000C000
00000001C000
000000018000
000000038000
000000030000
000000060000
0000000E0000
0000000C0000
0000001C0000
000000180000
000000303000
00000030F000
000000637000
000000E46020
000000C8E040
000001B0C180
000001C1C600
000003839800
000007066000
0000061F8000
00000C700000
000008000000
000018000000
000030000000
000070000000
0001E0000000
0002E0000000
0004C0000000
000980000000
001380000000
002300000000
004600000000
008E00000000
010C00000000
021800000000
043800000000
0C3000000000
186000000000
30C000000000
208000000000
418000000000
C30000000000
860000000000
840000000000
980000000000
600000000000
ENDCHAR
STARTCHAR 00FF
ENCODING 255
SWIDTH 236 0
DWIDTH 17 0
BBX 76 62 -48 -37
BITMAP
00000000000000031800
00000000000000073800
00000000000000063000
000000000000000000E0
000000000000000003F0
00000000000000000630
00000000000000000810
00000000000000001000
00000000000000002000
00000000000000004000
00000000000000208000
00000000000003E08000
0000000000000CE10000
00000000000030C20000
00000000000001820000
00000000000001840000
00000000000003040000
00000000000007080000
00000000000006100000
0000000000000E100000
0000000000001C200000
0000000000001C200000
00000000000038400000
00000000000038400000
0000000000003B800000
00000000000005000000
00000000000001000000
00000000000002000000
00000000000002000000
00000000000004000000
00000000000008000000
00000000000008000000
00000000000010000000
00000000000020000000
00000000000020000000
00000000000040000000
00000000000080000000
00000000000080000000
00000000000100000000
00000000000200000000
00000000000400000000
00000000000400000000
00000000000800000000
00000000001000000000
00000000002000000000
80000000004000000000
80000000008000000000
80000000010000000000
80000000020000000000
80000000040000000000
80000000080000000000
80000000100000000000
C0000000200000000000
40000000400000000000
60000000800000000000
70000003000000000000
38000004000000000000
3C000018000000000000
1F000060000000000000
07F00700000000000000
03FFFC00000000000000
007FC000000000000000
ENDCHAR
STARTCHAR 0100
ENCODING 256
SWIDTH 722 0
DWIDTH 52 0
BBX 54 49 4 -5
BITMAP
00000000001FC0
00000000000000
00000000000000
00000000000004
00000000000004
00000000001F84
0000000001FFE4
000000000FFFF4
000000007FFFFC
00000001FF007C
00000007F0001C
0000001F80001C
0000003C00003C
000000F0000070
000001C00000E0
000007800000E0
00000E000001C0
00003800000380
00007000000780
0000E000000F00
00038000001E00
00070000002E00
000E0000005C00
001C000000B800
00380000013800
00700000027000
00E0000004E000
01C0000008E000
0380000011C000
0700000021C000
07000000438000
0E000000878000
1C000003070000
1C0000040F0000
380000080E0000
780000301E0000
780000401C0000
700001803C0000
F0000200380000
F0000C00780000
F0003000780000
F000C000700004
F8030000F00008
7FFC0000F00010
1FC00000F00060
00000000F00080
00000000F80300
000000007C1C00
000000003FE000
ENDCHAR
STARTCHAR 0101
ENCODING 257
SWIDTH 263 0
DWIDTH 19 0
BBX 22 26 2 -3
BITMAP
000FC0
000000
000000
000000
000000
0000C0
0000C0
000780
001900
006300
008600
010600
020C00
041C00
082800
183800
305004
60B008
612010
C22020
C46020
F84040
E04080
004100
004600
003800
ENDCHAR
STARTCHAR 0102
ENCODING 258
SWIDTH 722 0
DWIDTH 52 0
BBX 54 52 4 -5
BITMAP
00000000001000
00000000003004
00000000003018
00000000001820
00000000000FC4
00000000000004
00000000000004
00000000000004
00000000001F84
0000000001FFE4
000000000FFFFC
000000007FFFFC
00000001FE007C
00000007E0001C
0000001F80003C
0000003C00003C
000000F0000070
000003C00000E0
000007000001E0
00001E000003C0
00003800000380
00007000000780
0001C000000F00
00038000001E00
00070000007E00
000E000000FC00
001C0000017800
0038000002F800
0070000004F000
00E0000009E000
01C0000011E000
0380000023C000
0700000043C000
07000000878000
0E000001078000
1C0000020F0000
1C00000C0F0000
380000101E0000
780000201E0000
780000C03C0000
700001003C0000
F0000200380000
F0000C00780000
F0003000780000
F000C000700004
F8070000F00008
7FF80000F00010
3FC00000F00060
00000000F00080
00000000F80300
000000007C1C00
000000003FE000
ENDCHAR
STARTCHAR 0103
ENCODING 259
SWIDTH 263 0
DWIDTH 19 0
BBX 22 28 2 -3
BITMAP
000800
001800
001810
000C60
000780
000000
000000
000060
0000C0
000780
001980
002300
008300
010600
020E00
041400
081800
182800
305004
209008
613010
C22020
C46020
F84040
E04080
004100
004600
003800
ENDCHAR
STARTCHAR 0104
ENCODING 260
SWIDTH 722 0
DWIDTH 52 0
BBX 54 54 4 -11
BITMAP
00000000000004
00000000000004
00000000001F84
0000000001FFE4
000000000FFFF4
000000007FFFFC
00000001FF007C
00000007F0001C
0000001F80001C
0000003C00003C
000000F0000070
000001C00000E0
000007800000E0
00000E000001C0
00003800000380
00007000000780
0000E000000F00
00038000001E00
00070000002E00
000E0000005C00
001C000000B800
00380000013800
00700000027000
00E0000004E000
01C0000008E000
0380000011C000
0700000021C000
07000000438000
0E000000878000
1C000003070000
1C0000040F0000
380000080E0000
780000301E0000
780000401C0000
700001803C0000
F0000200380000
F0000C00780000
F0003000780000
F000C000700004
F8030000F00008
7FFC0000F00010
1FC00000F00060
00000000F00080
00000000F80300
000000007C1C00
000000003FE000
00000000060000
000000000C0000
00000000380000
00000000700000
00000000F00000
00000000F00000
00000000F80000
000000003E0000
ENDCHAR
STARTCHAR 0105
ENCODING 261
SWIDTH 263 0
DWIDTH 19 0
BBX 22 30 2 -11
BITMAP
000040
0000C0
000180
000780
001900
006300
008600
010600
020C00
041C00
082800
183800
305004
60B008
612010
C22020
C46020
F84040
E04080
004100
004600
00B800
070000
080000
300000
400000
C00000
C00000
E00000
780000
ENDCHAR
STARTCHAR 0106
ENCODING 262
SWIDTH 611 0
DWIDTH 44 0
BBX 48 52 4 0
BITMAP
000000000001
000000000003
000000000004
000000000008
000000000030
000000000040
000000000080
000000000300
00000000041C
000000000818
000000000030
000000000030
00000003F860
0000003C0640
000000E003C0
000003800180
00000E000180
000038000100
000070000300
0001E0000200
0003C0000600
000700000E00
000E00000C00
001C00001C00
003C00001C00
007800003800
00F000003000
01E000000000
03C000000000
07C000000000
078000000000
0F0000000000
1F0000000000
1E0000000000
3E0000000000
3C0000000000
7C0000000000
780000000000
780000000000
F80000000000
F00000000000
F00000000000
F00000000000
F00000000000
F00000000000
F00000001F00
70000000FF80
780000078080
3800001C0080
1C0001C00080
0F000E000100
01FFF0000000
ENDCHAR
STARTCHAR 0107
ENCODING 263
SWIDTH 222 0
DWIDTH 16 0
BBX 20 28 3 1
BITMAP
000030
000060
0000C0
000100
000200
000C00
001000
002000
004000
000000
000000
000000
001E00
00EE00
010400
060400
0C0000
180000
180000
300000
700200
600400
E00800
E01000
E02000
E0C000
F30000
7C0000
ENDCHAR
STARTCHAR 0108
ENCODING 264
SWIDTH 611 0
DWIDTH 44 0
BBX 44 52 4 1
BITMAP
000000000200
000000000600
000000001E00
000000002600
000000004600
000000008600
000000010600
000000020600
000000000470
000000000060
000000000060
0000000000C0
00000007F880
000000381C80
000001C00700
000007000700
00001C000600
000038000600
0000E0000400
0001C0000C00
000380000C00
000700001800
001E00001800
003C00003800
007800003000
00F000007000
00E00000E000
01E000000000
03C000000000
078000000000
078000000000
0F0000000000
1F0000000000
1E0000000000
3C0000000000
3C0000000000
7C0000000000
780000000000
780000000000
F80000000000
F00000000000
F00000000000
F00000000000
F00000000000
F00000000000
F00000003C00
70000001FE00
7800000F8100
3800007C0100
1C0003C00200
0E001E000200
01FFE0000600
ENDCHAR
STARTCHAR 0109
ENCODING 265
SWIDTH 222 0
DWIDTH 16 0
BBX 18 28 3 0
BITMAP
000040
0000C0
0003C0
0004C0
0008C0
0010C0
0020C0
0040C0
000080
000000
000000
000000
001E00
00EE00
010400
060400
0C0000
180000
180000
300000
700200
600400
E00800
E01000
E02000
E0C000
F30000
7C0000
ENDCHAR
STARTCHAR 010A
ENCODING 266
SWIDTH 611 0
DWIDTH 44 0
BBX 46 46 4 0
BITMAP
000000006000
00000000E000
00000000C00C
000000000018
000000000030
000000000020
00000007F860
000000380E40
000000C00780
000003000300
00000E000300
000038000200
000070000400
0001C0000400
000380000C00
000700001800
000E00001800
001C00003000
003800007000
007000006000
00F00000C000
01E000000000
03C000000000
078000000000
078000000000
0F0000000000
1F0000000000
1E0000000000
3E0000000000
3C0000000000
7C0000000000
780000000000
780000000000
F80000000000
F00000000000
F00000000000
F00000000000
F00000000000
F00000000000
F00000001F00
70000000FF80
780000078080
3800001C0080
1C0001C00080
0F000E000100
01FFF0000000
ENDCHAR
STARTCHAR 010B
ENCODING 267
SWIDTH 222 0
DWIDTH 16 0
BBX 17 24 4 0
BITMAP
001800
003800
003000
000000
000000
000000
000000
000000
007000
01F800
067800
083800
102000
100000
200000
200080
400100
400200
C00400
C01800
C02000
C04000
E18000
7E0000
ENDCHAR
STARTCHAR 010C
ENCODING 268
SWIDTH 611 0
DWIDTH 44 0
BBX 45 53 4 1
BITMAP
000000002000
000000006080
000000006100
000000006200
000000006400
000000006800
000000007000
000000006000
000000004000
000000000038
000000000030
000000000020
000000000060
00000003F840
0000003C0E80
000000E00380
000003800300
00000E000300
000038000200
000070000200
0001E0000600
000380000400
000700000C00
000E00001C00
001C00001800
003800003800
007800003000
00F000006000
01E000000000
03C000000000
07C000000000
078000000000
0F0000000000
1F0000000000
1E0000000000
3E0000000000
3C0000000000
7C0000000000
780000000000
780000000000
F80000000000
F00000000000
F00000000000
F00000000000
F00000000000
F00000000000
F00000001F00
70000000FF80
780000078080
3800001C0080
1C0001C00080
0F000E000100
01FFF0000000
ENDCHAR
STARTCHAR 010D
ENCODING 269
SWIDTH 222 0
DWIDTH 16 0
BBX 18 29 4 0
BITMAP
001000
003040
003080
003100
003200
003400
003400
003800
002000
000000
000000
000000
000000
006000
01F000
067000
083000
102000
100000
200000
200080
400100
400200
C00400
C01800
C02000
C04000
E18000
7E0000
ENDCHAR
STARTCHAR 010E
ENCODING 270
SWIDTH 888 0
DWIDTH 64 0
BBX 64 59 3 1
BITMAP
0000000000060400
0000000000060400
0000000000061800
0000000000062000
0000000000064000
0000000000068000
0000000000070000
0000000000060000
0000000000000000
0000000000006000
0000000000018000
0000000000030000
00000000000E0000
00000000001C0000
00000000001C0000
0000000000380000
0000000000780000
0000000000700000
0000000000F00000
0000000000E00000
00000000FFFF8000
0000003E01C0F800
000001E003C00F00
00000F0003800380
00001800078001E0
00007000070000F0
0000C0000E000078
000380000E00003C
000700001C00003C
000600001C00001E
000E00003800001E
001C00003800000F
001C00007000000F
001800007000000F
00080000E000000F
00000000E000000F
00000001C000000F
000000038000000F
000000038000000F
000000070000000F
000000070000000E
0000000E0000001E
0000001C0000001E
180000180000001C
3C0000380000003C
3C0000700000003C
3E00006000000078
5F0000C000000070
4F800180000000F0
87C00300000001E0
83E00600000001C0
81F00C0000000380
807C180000000700
C03E200000001C00
C01FC00000003800
E007E0000000E000
7003FE0000070000
780C3FE000380000
1FF000FFFFC00000
ENDCHAR
STARTCHAR 010F
ENCODING 271
SWIDTH 222 0
DWIDTH 16 0
BBX 15 49 3 -1
BITMAP
4000
4000
6000
6000
7000
3000
180C
180E
0C06
0C06
0604
0604
0308
0310
0320
01C0
0180
00C0
00C0
00C0
0060
0060
0020
0020
0030
0030
0010
0010
0010
0010
0008
0008
0008
0078
0088
0308
0608
0C10
1C10
3810
3010
7020
6020
E040
C080
C180
C300
EC00
1000
ENDCHAR
STARTCHAR 0110
ENCODING 272
SWIDTH 888 0
DWIDTH 64 0
BBX 64 50 3 1
BITMAP
0000000000004000
0000000000018000
0000000000060000
00000000000E0000
00000000001C0000
0000000000380000
0000000000380000
0000000000700000
0000000000F00000
0000000000E00000
0000000001E00000
00000001FFFF8000
0000003E01C0F800
000001C003801F00
00000E0007800380
00003800070001E0
000060000F0000F0
0001C0000E000078
000380001C00003C
000700001C00003C
000600003800001E
000E00003800001E
001C00007000000F
001C00007000000F
00180000E000000F
00080000E000000F
00000001C000000F
000000018000000F
000000038000000F
000000070000000F
000000070000000F
0000000E0000000E
18000FFFFF00001E
1800001C0000001E
3C0000380000001C
3E0000700000003C
7F0000600000003C
7F0000E000000078
5F8001C000000070
4FC00380000000F0
87E00300000001E0
83F00600000001C0
80F8080000000380
807C100000000F00
C03F200000001C00
C00FC00000003800
E007F0000000E000
7006FE0000070000
38181FE000380000
1FE000FFFFC00000
ENDCHAR
STARTCHAR 0111
ENCODING 273
SWIDTH 222 0
DWIDTH 16 0
BBX 18 49 3 -1
BITMAP
400000
400000
600000
600000
700000
300000
380000
180000
0C0000
0C0000
0E0000
060000
070000
030000
038000
018000
018000
00C000
00C000
00C000
006000
006000
006000
002000
03FFC0
1C3000
001000
001000
001000
001000
000800
000800
000800
007800
008800
030800
060800
0C1000
1C1000
381000
301000
702000
602000
E04000
C08000
C18000
C20000
EC0000
100000
ENDCHAR
STARTCHAR 0112
ENCODING 274
SWIDTH 777 0
DWIDTH 56 0
BBX 59 48 0 -1
BITMAP
00000000000FC000
0000000000000000
0000000000800000
0000000001000000
0000000006000000
000000000C000000
0000000008000000
0000000018000000
00000007FFFFF000
0000007FFFFFE000
000001F020000000
0000070040000000
0000180040000000
0000600080000000
0000C00180000000
0001800100000000
0003000200000000
0006000200000000
0004000400000000
000C000400000000
0008000800000000
0018001000000000
0018001000000000
0018002000000000
0018004000000000
0018004000000000
001801FFFFF80000
000803FFF0000000
0000010000000000
0000020000000020
0000040000000020
0000080000000020
0000100000000020
0000200000000020
0000400000000020
0001800000000040
1FFF000000000040
203FC00000000080
4007F00000000080
C008FC0000000100
C0103F0000000300
E0200FC000000600
70C003F800000C00
3F0000FF00003800
0000003FF001E000
00000007FFFFC000
00000001FFFF0000
000000001FF80000
ENDCHAR
STARTCHAR 0113
ENCODING 275
SWIDTH 236 0
DWIDTH 17 0
BBX 22 23 4 0
BITMAP
01F800
000000
000000
000000
000000
000000
000000
007000
01B000
063000
042000
08600C
18C3F0
317C00
328000
600000
600000
C00000
C00000
C00000
C00000
C00000
7F0000
ENDCHAR
STARTCHAR 0114
ENCODING 276
SWIDTH 777 0
DWIDTH 56 0
BBX 59 50 0 -1
BITMAP
0000000000040000
00000000000C0800
00000000000C1000
0000000000062000
000000000047C000
0000000001800000
0000000003000000
0000000006000000
000000000C000000
0000000008000000
00000007FFFFE000
0000007FFFFFE000
000001F030000000
0000070020000000
0000180040000000
00002000C0000000
0000C00080000000
0001800180000000
0003000100000000
0002000200000000
0004000600000000
000C000400000000
000C000800000000
0018000800000000
0018001000000000
0018002000000000
0018002000000000
00180040003C0000
001801FFFFC00000
000803FFE0000000
0000010000000000
0000020000000020
0000040000000020
0000080000000020
0000100000000020
0000200000000020
0000400000000020
0001800000000040
1FFF000000000040
203FC00000000080
4007F00000000080
C008FC0000000100
C0103F0000000300
E0200FC000000600
70C003F800000C00
3F0000FF00003800
0000003FF001E000
00000007FFFFC000
00000001FFFF0000
000000001FF80000
ENDCHAR
STARTCHAR 0115
ENCODING 277
SWIDTH 236 0
DWIDTH 17 0
BBX 22 24 4 1
BITMAP
030200
030400
018800
00F000
000000
000000
000000
000000
007000
01B000
063000
042004
0840F8
18BF00
314000
300000
600000
600000
C00000
C00000
C00000
C00000
C00000
7E0000
ENDCHAR
STARTCHAR 0116
ENCODING 278
SWIDTH 777 0
DWIDTH 56 0
BBX 59 49 0 -1
BITMAP
0000000000030000
0000000000070000
0000000000060000
0000000000400000
0000000001800000
0000000002000000
0000000006000000
000000000C000000
0000000008000000
00000007FFFFF000
0000007FFFFFE000
000001F030000000
0000070020000000
0000180040000000
00002000C0000000
0000C00080000000
0001800100000000
0003000100000000
0002000200000000
0004000600000000
000C000400000000
000C000800000000
0018000800000000
0018001000000000
0018002000000000
0018002000000000
0018004000000000
001801FFFFFE0000
000803FFF8000000
0000010000000000
0000020000000020
0000040000000020
0000080000000020
0000100000000020
0000200000000020
0000400000000020
0001800000000040
1FFF000000000040
203FC00000000080
4007F00000000080
C008FC0000000100
C0103F0000000300
E0200FC000000600
70C003F800000C00
3F0000FF00003800
0000003FF001E000
00000007FFFFC000
00000001FFFF0000
000000001FF80000
ENDCHAR
STARTCHAR 0117
ENCODING 279
SWIDTH 236 0
DWIDTH 17 0
BBX 22 24 4 0
BITMAP
003000
007000
006000
000000
000000
000000
000000
000000
007000
03F000
047000
0C6000
08E00C
10C3F0
317C00
228000
600000
600000
C00000
C00000
C00000
C00000
C00000
7F0000
ENDCHAR
STARTCHAR 0118
ENCODING 280
SWIDTH 777 0
DWIDTH 56 0
BBX 59 53 0 -8
BITMAP
0000000000800000
0000000001000000
0000000002000000
0000000004000000
000000000C000000
00000003FFFFF000
0000003FFFFFE000
000001F010000000
0000070030000000
00001C0020000000
0000300040000000
0000C000C0000000
0001800080000000
0003000100000000
0002000100000000
0004000200000000
000C000400000000
000C000400000000
0018000800000000
0018001000000000
0018001000000000
0018002000000000
0018004000000000
001801FFFFFC0000
000801FFF8000000
0000010000000000
0000020000000020
0000040000000020
0000080000000020
0000100000000020
0000200000000020
0000400000000020
0000800000000040
1FFF000000000040
203FC00000000080
4007F00000000080
C008FC0000000100
C0103F0000000300
E0200FC000000600
70C003F800000C00
3F0000FF00003800
0000003FF001E000
00000007FFFFC000
00000001FFFF0000
000000001FF80000
0000000000400000
0000000001800000
0000000002000000
0000000004000000
000000000C000000
000000000C000000
000000000E000000
0000000007800000
ENDCHAR
STARTCHAR 0119
ENCODING 281
SWIDTH 236 0
DWIDTH 17 0
BBX 23 24 3 -8
BITMAP
003800
01D800
031800
061000
0C3006
1861F8
30FE00
330000
600000
600000
E00000
C00000
C00000
C00000
C00000
3F8000
080000
100000
200000
400000
C00000
C00000
E00000
780000
ENDCHAR
STARTCHAR 011A
ENCODING 282
SWIDTH 777 0
DWIDTH 56 0
BBX 59 52 0 0
BITMAP
00000000000C0800
00000000000C1000
00000000000C2000
00000000000C4000
00000000000C8000
00000000000D0000
00000000000E0000
00000000008C0000
0000000003000000
0000000006000000
000000000C000000
0000000008000000
00000007FFFFF000
0000007FFFFFE000
000001F030000000
0000070020000000
0000180040000000
00002000C0000000
0000C00080000000
0001800100000000
0003000100000000
0002000200000000
0004000600000000
000C000400000000
000C000800000000
0018000800000000
0018001000000000
0018002000000000
0018002000000000
00180040001C0000
001801FFFFC00000
000803FFE0000000
0000010000000000
0000020000000020
0000040000000020
0000080000000020
0000100000000020
0000200000000020
0000400000000020
0001800000000040
1FFF000000000040
203FC00000000080
4007F00000000080
C008FC0000000100
C0103F0000000300
E0200FC000000600
70C003F800000C00
3F0000FF00003800
0000003FF001E000
00000007FFFFC000
00000001FFFF0000
000000001FF80000
ENDCHAR
STARTCHAR 011B
ENCODING 283
SWIDTH 236 0
DWIDTH 17 0
BBX 22 28 4 1
BITMAP
003040
003040
003080
003300
003400
003400
003800
002000
000000
000000
000000
000000
003000
01F000
023000
042000
08600C
1841F0
30FE00
320000
600000
600000
C00000
C00000
C00000
C00000
C00000
7F8000
ENDCHAR
STARTCHAR 011C
ENCODING 284
SWIDTH 541 0
DWIDTH 39 0
BBX 63 63 -13 -18
BITMAP
0000000000001800
0000000000003800
0000000000005800
0000000000009800
000000000001FFE0
00000000000E1878
000000000074180C
0000000001881802
0000000006001002
0000000018000000
0000000060000000
0000000080000000
0000000100000000
0000000600000000
0000000C00000000
0000001C00000000
0000003800000000
0000007000000000
000000F0000001E0
000000E000000320
000001E000000620
000001C000001C40
000003C000001880
000003C000003880
0000078000007100
000007800000E200
000007800001E400
000007800001D800
000007800003A000
000007800007C000
000003C000078000
000003C0000E0000
000001E0000E0000
000000F0003C0000
0000007C03F80000
0000000FFC380000
0000000000700000
0000000000700000
0000000000E00000
0000000000C00000
0000000001C00000
0000000003800000
0000000003000000
0000000006000000
0000000006000000
000000000C000000
0000000008000000
0000000010000000
4000000030000000
8000000060000000
8000000040000000
8000000080000000
8000000100000000
8000000200000000
8000000400000000
C000000800000000
C000001000000000
E000006000000000
7000008000000000
7800010000000000
3E000E0000000000
0FC0700000000000
03FF800000000000
ENDCHAR
STARTCHAR 011D
ENCODING 285
SWIDTH 236 0
DWIDTH 17 0
BBX 40 56 -16 -28
BITMAP
0000000010
0000000030
00000000F0
0000000130
0000000230
0000000C30
0000001030
0000002030
0000004030
0000000000
0000000000
0000000000
0000000000
00000007FF
0000001980
0000002180
000000C100
0000018300
0000030200
0000020400
0000060800
00000C1000
00000C2000
00000C4000
00000FC000
0000018000
0000020000
0000020000
0000040000
0000040000
00000C0000
00000C0000
00000E0000
00000E0000
0000070000
0000078000
0000038000
002001C000
00C001E000
010000E000
020000E000
0400006000
1800006000
1000006000
2000004000
6000004000
4000008000
C000008000
C000010000
C000020000
C000040000
E000180000
7000200000
7C01800000
1FFE000000
07E0000000
ENDCHAR
STARTCHAR 011E
ENCODING 286
SWIDTH 541 0
DWIDTH 39 0
BBX 63 66 -13 -18
BITMAP
0000000000006020
0000000000006040
0000000000003080
0000000000001F00
0000000000000000
0000000000000000
0000000000000000
000000000000FFE0
00000000000F0078
000000000070000C
0000000001800006
0000000006000002
0000000018000002
0000000020000000
00000000C0000000
0000000100000000
0000000200000000
0000000E00000000
0000001C00000000
0000003800000000
0000007000000000
00000070000001E0
000000E000000320
000001E000000620
000001C000001C40
000003C000001880
000003C000003880
0000078000007100
000007800000E200
000007800001E400
000007800001C800
000007800003B000
000007800007C000
000003C000078000
000003C0000E0000
000001E0000E0000
000000F0003C0000
0000007C03DC0000
0000000FFC380000
0000000000700000
0000000000700000
0000000000E00000
0000000000C00000
0000000001C00000
0000000003800000
0000000003000000
0000000007000000
0000000006000000
000000000C000000
0000000008000000
0000000018000000
4000000030000000
8000000060000000
8000000040000000
8000000080000000
8000000100000000
8000000200000000
8000000400000000
C000000800000000
C000001000000000
E000002000000000
700000C000000000
7800010000000000
3E000E0000000000
0FC0700000000000
03FF800000000000
ENDCHAR
STARTCHAR 011F
ENCODING 287
SWIDTH 236 0
DWIDTH 17 0
BBX 40 52 -16 -27
BITMAP
0000000C04
0000000C08
0000000630
00000003C0
0000000000
0000000000
0000000000
0000000000
0000000000
0000000000
00000007FF
0000001980
0000006180
0000008100
0000010200
0000030200
0000060400
0000040800
00000C1000
00000C6000
00000FC000
0000018000
0000010000
0000020000
0000040000
0000040000
00000C0000
00000C0000
00000E0000
00000E0000
0000070000
0000078000
0000038000
002001C000
00C001C000
010000E000
020000E000
0400006000
1800006000
1000006000
2000006000
6000004000
4000008000
C000008000
C000010000
C000020000
C000040000
E000180000
7000200000
7C01C00000
1FFE000000
07E0000000
ENDCHAR
STARTCHAR 0120
ENCODING 288
SWIDTH 541 0
DWIDTH 39 0
BBX 63 66 -13 -19
BITMAP
0000000000000300
0000000000000700
0000000000000600
0000000000000000
0000000000000000
0000000000000000
0000000000000000
000000000000FFE0
00000000000F0078
000000000070000C
0000000001800006
0000000006000002
0000000018000002
0000000020000000
00000000C0000000
0000000100000000
0000000200000000
0000000E00000000
0000001C00000000
0000003800000000
0000007000000000
00000070000000E0
000000E000000320
000001E000000620
000001C000000C40
000003C000001C40
000003C000003880
0000078000007100
000007800000F200
000007800000E400
000007800001C800
000007800003D000
000007800003E000
000003C000078000
000003C000070000
000001E0000E0000
000000F0003E0000
0000003E01DC0000
0000000FFE380000
0000000000380000
0000000000700000
0000000000600000
0000000000E00000
0000000001C00000
0000000001800000
0000000003800000
0000000003000000
0000000006000000
000000000C000000
000000000C000000
0000000018000000
4000000030000000
8000000020000000
8000000040000000
8000000080000000
8000000100000000
8000000200000000
8000000400000000
C000000800000000
C000001000000000
E000002000000000
700000C000000000
7800010000000000
3E00060000000000
0FC0780000000000
03FF800000000000
ENDCHAR
STARTCHAR 0121
ENCODING 289
SWIDTH 236 0
DWIDTH 17 0
BBX 39 52 -16 -28
BITMAP
0000000180
0000000180
0000000180
0000000000
0000000000
0000000000
0000000000
0000000000
0000000000
0000000000
0000000FFE
0000003100
0000004100
0000008200
0000010200
0000030400
0000060800
0000041000
00000C2000
00000C4000
00000FC000
0000018000
0000020000
0000020000
0000040000
0000040000
00000C0000
00000C0000
00000E0000
00000E0000
0000070000
0000078000
0000038000
002001C000
00C001C000
010000E000
020000E000
0400006000
1800006000
1000006000
2000006000
6000004000
4000008000
C000008000
C000010000
C000020000
C000040000
E000180000
7000200000
7C01C00000
1FFE000000
07E0000000
ENDCHAR
STARTCHAR 0122
ENCODING 290
SWIDTH 541 0
DWIDTH 39 0
BBX 65 65 -14 -20
BITMAP
000000000000004000
000000000000008000
000000000000010000
000000000000020000
000000000000060000
0000000000003FF000
000000000003EC7E00
00000000001C0E0700
0000000000600E0100
000000000180060080
000000000600000080
000000001800000000
000000002000000000
00000000C000000000
000000018000000000
000000030000000000
000000060000000000
0000000C0000000000
0000001C0000000000
000000380000002000
00000070000000D000
000000700000039000
000000E00000071000
000000E000000E2000
000001E000001C4000
000001E000001C4000
000001C00000388000
000003C00000710000
000003C00000F60000
000003C00000E80000
000001C00001F00000
000001E00001E00000
000001E00003800000
000000F00007800000
00000078000F000000
0000001C007E000000
00000007FF8E000000
00000000001C000000
00000000003C000000
000000000038000000
000000000070000000
000000000070000000
0000000000E0000000
0000000000C0000000
0000000001C0000000
000000000380000000
000000000300000000
000000000600000000
000000000400000000
200000000C00000000
400000001800000000
800000003000000000
800000002000000000
800000004000000000
800000008000000000
800000010000000000
800000020000000000
C00000040000000000
C00000080000000000
E00000100000000000
F00000600000000000
780000800000000000
3E0003000000000000
1FC03C000000000000
07FFC0000000000000
ENDCHAR
STARTCHAR 0123
ENCODING 291
SWIDTH 236 0
DWIDTH 17 0
BBX 38 57 -16 -27
BITMAP
0000000040
0000000080
0000000100
0000000100
0000000200
0000000200
0000000200
0000000200
0000000100
0000000100
0000000000
0000000000
0000000000
0000000000
0000000000
0000000FFC
0000003200
000000C200
0000018200
0000030400
0000030400
0000060800
0000041000
00000C2000
00000C4000
00000FC000
0000018000
0000020000
0000020000
0000040000
0000040000
00000C0000
00000C0000
00000E0000
00000E0000
0000070000
0000078000
0000038000
002001C000
00C001C000
010000E000
020000E000
0400006000
1800006000
1000006000
2000006000
6000004000
4000008000
C000008000
C000010000
C000020000
C000040000
E000180000
7000200000
7C01C00000
1FFE000000
07E0000000
ENDCHAR
STARTCHAR 0124
ENCODING 292
SWIDTH 777 0
DWIDTH 56 0
BBX 64 54 2 -2
BITMAP
0000000000000080
0000000000000180
0000000000000780
0000000000000980
0000000000001180
0000000000002180
0000000000004180
0000000000008180
0000000000010180
0000000000000000
000000000020000F
000000000020001F
0000000000400033
0000000FFFC00063
000000FFFF8000C3
000003E0018001C3
00000C0001000382
0000100001000302
0000200002000606
0000400002000C04
0000400004000C0C
0000800004001808
0000800004003010
0000800008003020
0000800008006080
000080001000C100
0000800010008600
0000C00020019800
0000C0002001E000
0000200040070000
00000000803E0000
0000000081C60000
000000011E0C0000
00000003E00C0000
000000FE00180000
00000F0200180000
0001F00400180000
001E000800300000
00F0001800300000
0380001000700000
0400002000700000
0800004000600000
3000008000600000
2000018000E00000
4000030000E00000
40000E0000E00000
40001C0000E00000
E000780000E00000
E001E00000E00000
F80FC00000F00000
FFFF800000F00100
FFFE000000780600
7FF80000003C1800
3FC00000001FE000
ENDCHAR
STARTCHAR 0125
ENCODING 293
SWIDTH 222 0
DWIDTH 16 0
BBX 54 59 -6 -8
BITMAP
000000000080FC
000000000187FC
00000000029C0C
0000000004A004
0000000008C004
00000000118000
00000000228000
00000000448000
00000000888000
00000000100000
00000000200000
00000000400000
00000000800000
00000001000000
00000002000000
00000002000000
00000004000000
00000008000000
00000010000000
00000030000000
00000020000000
00000040000000
000000C0000000
00000180000000
00000100000000
00000300000000
00000600000000
00000400000000
00000C00000000
00001800000000
00003000000000
00003000000000
00006000000000
00006000000000
0000C000000000
00018000000000
00019C00000000
00033C00000000
00034C00000000
00068C00000000
000F1800000000
000C1800000000
001C1000000000
00183000000000
00303000000000
00306000000000
00606000000000
00E0C000000000
00C08000000000
01818000000000
01010000000000
00020000000000
00040000000000
00080000000000
00100000000000
00200000000000
00C00000000000
07000000000000
F8000000000000
ENDCHAR
STARTCHAR 0126
ENCODING 294
SWIDTH 777 0
DWIDTH 56 0
BBX 64 44 2 -2
BITMAP
000000000020000F
000000000020001F
0000000000400033
0000000FFFC00063
000000FFFF8000C3
000003E001800183
00000C0001000182
0000100001000302
0000200001000606
0000400002000C04
000040000200180C
0000800004001808
0000800004003010
0000800008006020
0000800008006040
000080001007C080
0000800010388300
0000C00023C18400
0000C0003C031800
0000200FC0026000
000001F080078000
00000300801C0000
0000000100EC0000
0000000107080000
0000000278180000
0000000F80180000
000003F400380000
0000FE0800300000
003FE00800300000
01FE001000700000
03E0002000700000
0700002000600000
0C00004000600000
1000008000E00000
2000010000E00000
2000020000E00000
4000040000E00000
C000080000E00000
C000100000F00000
E000600000F00000
E001800000780040
F8060000007C0380
7FF80000003FFC00
3FC00000001FE000
ENDCHAR
STARTCHAR 0127
ENCODING 295
SWIDTH 222 0
DWIDTH 16 0
BBX 54 59 -6 -8
BITMAP
00000000000078
000000000003FC
00000000000E0C
00000000001004
00000000002004
0000000000C000
00000000010000
00000000020000
000000000C0000
00000000100000
00000000200000
00000000400000
00000000400000
00000000800000
00000001000000
00000002000000
00000004000000
00000008000000
00000008000000
00000010000000
00000020000000
00000060000000
00000040000000
00000080000000
00000100000000
00000300000000
00000200000000
00000400000000
0000FFFC000000
00000800000000
00001800000000
00003000000000
00003000000000
00006000000000
0000C000000000
0000C000000000
00018C00000000
00031C00000000
00036C00000000
00068C00000000
00071800000000
000E1800000000
001C1800000000
00183000000000
00303000000000
00302000000000
00606000000000
00604000000000
00C0C000000000
01818000000000
01010000000000
00020000000000
00040000000000
00080000000000
00100000000000
00200000000000
00C00000000000
07000000000000
F8000000000000
ENDCHAR
STARTCHAR 0128
ENCODING 296
SWIDTH 361 0
DWIDTH 26 0
BBX 51 50 -1 0
BITMAP
0000000001C020
00000000027020
00000000043840
00000000081C40
00000000100780
00000000000000
00000000000000
00000000001C00
00000000006C00
00000000008C00
00000000011800
00000000023000
0000000002C000
000000000F0000
00000000780000
00000003980000
0000001C180000
00000060300000
00000180700000
00000600600000
00000C00E00000
00001801C00000
00003001C00000
00007003800000
00007003800000
00006007000000
0000600F000000
0000200E000000
0000001E000000
0000001C000000
00000038000000
00000038000000
00000070000000
00000070000000
000000E0000000
000001C0000000
000001C0000000
00000380000000
00000300000000
00000700000000
00000E00000000
00000C00000000
00001800000000
00003000000000
00006000000000
00008000000000
40030000000000
F80C0000000000
FFF00000000000
7F800000000000
ENDCHAR
STARTCHAR 0129
ENCODING 297
SWIDTH 166 0
DWIDTH 12 0
BBX 17 26 3 0
BITMAP
070080
198080
20C100
407100
003E00
000000
000000
000000
000000
000000
000000
3F0000
070000
060000
0C0000
1C0000
180080
380100
300200
600400
600800
E01000
C02000
C0C000
E30000
7C0000
ENDCHAR
STARTCHAR 012A
ENCODING 298
SWIDTH 361 0
DWIDTH 26 0
BBX 48 47 -1 0
BITMAP
00000000007F
000000000000
000000000000
000000000000
00000000001C
00000000006C
00000000008C
000000000118
000000000230
0000000002C0
000000000F00
000000007800
000000039800
0000001C1800
000000603000
000001807000
000006006000
00000C00E000
00001801C000
00003001C000
000070038000
000070038000
000060070000
0000600F0000
0000200E0000
0000001E0000
0000001C0000
000000380000
000000380000
000000700000
000000700000
000000E00000
000001C00000
000001C00000
000003800000
000003000000
000007000000
00000E000000
00000C000000
000018000000
000030000000
000060000000
000080000000
400300000000
F80C00000000
FFF000000000
7F8000000000
ENDCHAR
STARTCHAR 012B
ENCODING 299
SWIDTH 166 0
DWIDTH 12 0
BBX 15 23 3 0
BITMAP
03F0
0000
0000
0000
0000
0000
0000
0000
3F00
0600
0600
0C00
0C00
1800
3002
3002
6004
6008
4030
C040
C080
E300
7C00
ENDCHAR
STARTCHAR 012E
ENCODING 302
SWIDTH 361 0
DWIDTH 26 0
BBX 46 50 -1 -7
BITMAP
00000000001C
00000000006C
00000000008C
000000000118
000000000230
0000000002C0
000000000F00
000000007800
000000039800
0000001C1800
000000603000
000001807000
000006006000
00000C00E000
00001801C000
00003001C000
000070038000
000070038000
000060070000
0000600F0000
0000200E0000
0000001E0000
0000001C0000
000000380000
000000380000
000000700000
000000F00000
000000E00000
000001C00000
000001C00000
000003800000
000003000000
000007000000
00000E000000
00001C000000
000018000000
000030000000
000060000000
000080000000
C00300000000
F80C00000000
FFF000000000
7F8000000000
020000000000
040000000000
080000000000
180000000000
180000000000
1C0000000000
0F0000000000
ENDCHAR
STARTCHAR 012F
ENCODING 303
SWIDTH 166 0
DWIDTH 12 0
BBX 18 34 0 -8
BITMAP
000300
000700
000600
000000
000000
000000
000000
000000
000000
000000
000000
07E000
00C000
00C000
018000
010000
030000
060040
060040
0C0080
0C0100
080600
180800
181000
1C6000
0F8000
100000
200000
600000
400000
C00000
C00000
E00000
780000
ENDCHAR
STARTCHAR 0130
ENCODING 304
SWIDTH 361 0
DWIDTH 26 0
BBX 45 49 -1 0
BITMAP
000000000018
000000000038
000000000030
000000000000
000000000000
000000000000
000000000038
0000000000F8
000000000138
000000000230
000000000260
000000000580
000000000E00
000000007800
000000039800
0000001C3000
000000603000
000001806000
00000600E000
00000C00C000
00001801C000
000030018000
000070038000
000070070000
000060070000
0000600E0000
0000200E0000
0000001C0000
0000001C0000
000000380000
000000380000
000000700000
000000F00000
000000E00000
000001C00000
000001C00000
000003800000
000007000000
000006000000
00000E000000
00001C000000
000018000000
000030000000
000060000000
000080000000
400300000000
F80C00000000
FFF000000000
7F8000000000
ENDCHAR
STARTCHAR 0131
ENCODING 305
SWIDTH 166 0
DWIDTH 12 0
BBX 15 15 3 0
BITMAP
3F00
0600
0600
0C00
0C00
1800
3002
3002
6004
6008
4030
C040
C080
E300
7C00
ENDCHAR
STARTCHAR 0132
ENCODING 306
SWIDTH 625 0
DWIDTH 45 0
BBX 60 54 -1 -14
BITMAP
0000000000700030
0000000001B000E0
00000000023001C0
0000000004200380
0000000004C00780
000000000B800F00
000000003C801F00
00000001F0C0EE00
0000000E30FF1E00
00000070607C1C00
00000180E0003800
00000601C0003800
00001C01C0007000
0000380380007000
000070070000E000
0000E0070000E000
0000E00E0001C000
0000C00E00018000
0000C01C00038000
0000C01C00030000
0000403800070000
00000038000E0000
00000070000C0000
000000E0001C0000
000000E000180000
000001C000380000
0000018000300000
0000038000600000
0000070000600000
0000060000C00000
00000C0000801C00
000018000183E000
00003000033C0000
000060000FC00000
000080000E000000
600100000C000000
F806000008000000
FFF8000018000000
7F80000010000000
0000000020000000
0000000020000000
0000000040000000
0000000080000000
0000000100000000
0000000100000000
0000000200000000
0000000400000000
0018000800000000
0018003000000000
003C00E000000000
001F038000000000
001FFF0000000000
0007FC0000000000
0003E00000000000
ENDCHAR
STARTCHAR 0133
ENCODING 307
SWIDTH 305 0
DWIDTH 22 0
BBX 44 58 -16 -33
BITMAP
000000030180
000000070380
000000060300
000000000000
000000000000
000000000000
000000000000
000000000000
000000000000
000000000000
000007E3F000
000000E07000
000000C07000
00000180E000
00000180E000
00000301C010
000006018020
000006038040
00000C030080
00000C070100
00000C0E0200
000018160400
0000182C0800
00001C4C3000
00000F984000
000000108000
000000310000
000000260000
000000680000
000000500000
000000E00000
000000800000
000001800000
000007000000
00000B000000
000032000000
000046000000
00008E000000
00020C000000
00041C000000
000818000000
003038000000
006030000000
008070000000
0100E0000000
0200C0000000
0401C0000000
080180000000
100380000000
300700000000
600600000000
400C00000000
C01C00000000
803800000000
803000000000
80C000000000
418000000000
3E0000000000
ENDCHAR
STARTCHAR 0134
ENCODING 308
SWIDTH 291 0
DWIDTH 21 0
BBX 47 65 -11 -11
BITMAP
000000000020
0000000000E0
000000000160
000000000260
000000000460
000000000860
000000001060
000000002060
000000000040
000000000000
000000000006
000000000018
000000000038
000000000070
0000000000F0
0000008001E0
000000C006C0
000000F039C0
000000FFE180
0000007F0380
000000000300
000000000700
000000000600
000000000E00
000000000C00
000000001C00
000000001800
000000003000
000000003000
000000006000
00000000E000
00000000C000
00000001C000
000000018000
000000030000
000000030000
000000060000
000000060000
0000000C0000
000000080000
0000001801E0
000000301E00
00000031E000
0000007E0000
000000E00000
000000C00000
000000800000
000001800000
000001000000
000002000000
000002000000
000004000000
000008000000
000008000000
000010000000
000020000000
000020000000
000040000000
800080000000
C00100000000
E00600000000
F81C00000000
7FF000000000
3FE000000000
1F0000000000
ENDCHAR
STARTCHAR 0135
ENCODING 309
SWIDTH 166 0
DWIDTH 12 0
BBX 45 61 -25 -32
BITMAP
000000000100
000000000300
000000000F00
000000001300
000000002300
000000002300
000000004300
000000008300
000000000200
000000000000
000000000000
000000000000
000000006000
00000003E000
00000000C000
00000000C000
000000018000
000000018000
000000010008
000000030010
000000020020
000000060040
000000040080
000000040300
0000000C0400
000000080800
000000181000
000000102000
00000030C000
000000310000
000000620000
000000640000
000000F80000
000000E00000
000000C00000
000001800000
000003800000
00000F000000
000017000000
000067000000
00008E000000
00010E000000
00061C000000
00083C000000
001038000000
006078000000
00C070000000
0180E0000000
0200E0000000
0401C0000000
0803C0000000
100380000000
300700000000
600700000000
400E00000000
C01C00000000
803800000000
807000000000
80E000000000
418000000000
3E0000000000
ENDCHAR
STARTCHAR 0136
ENCODING 310
SWIDTH 625 0
DWIDTH 45 0
BBX 79 53 -12 -14
BITMAP
000000000000000003F8
00000000080400003FFC
0000000008040000E00E
000000001E1800030002
000000001FE8000C0002
000000000F9000700000
00000000001000800000
00000000002003000000
0000000000200C000000
00000000004010000000
00000000004060000000
00000000008080000000
00000000008100000000
00000000010600000000
00000000010800000000
00000000023000000000
00000000024000000000
00000000048000000000
00000000070000000000
000000000C0000000000
00000000080000000000
00000000180000000000
000000003C0000000000
000000002C0000000000
000000004C0000000000
00000000440000000000
00000000860000000000
00000001060000000000
00000001060000000000
00000002060000000000
00000004030000000000
00000008030000000000
00000008030000000000
00000010018000000000
00000020018000000000
0000004000C000000000
0000008000C000000000
80000100006000000000
80000200007000000000
C0000400003800000000
E0001800001C00000000
70007000000E00020000
7C01C0000003803C0000
3FFF80000000FFC00000
1FFE0000C00000000000
07F00000E00000000000
00000000E00000000000
00000000E00000000000
00000000C00000000000
00000000C00000000000
00000001800000000000
00000003000000000000
00000004000000000000
ENDCHAR
STARTCHAR 0137
ENCODING 311
SWIDTH 263 0
DWIDTH 19 0
BBX 37 57 2 -14
BITMAP
00000000F0
00000003F8
0000000C00
0000001000
0000006000
0000008000
0000010000
0000020000
0000020000
0000040000
0000080000
0000100000
0000200000
0000200000
0000400000
0000800000
0000800000
0001000000
0002000000
0002000000
0004000000
0008000000
0008000000
0010000000
0010000000
0020000000
0040000000
0040000000
008F800000
00B1800000
0141800000
0181000000
0102000000
030C000000
0230000000
07F0000000
0E30000000
0C30000000
1C60000000
1860000000
3840000000
30C0100000
3080200000
0180400000
0180800000
0181000000
05C6000000
0EF8000000
0E00000000
0600000000
0400000000
0C00000000
0800000000
1800000000
3000000000
4000000000
8000000000
ENDCHAR
STARTCHAR 0139
ENCODING 313
SWIDTH 958 0
DWIDTH 69 0
BBX 65 49 3 -6
BITMAP
00000000000000C000
000000000000018000
000000000000030000
000000000001FE0000
000000000006170000
000000000018238000
000000000060C3C000
0000000000C001C000
00000000010001C000
00000000020001C000
00000000060001C000
000000000C0001C000
00000000180001C000
000000003000018000
000000002000038000
000000006000030000
00000000C000030000
000000008000060000
000000010000060000
0000000300000C0000
000000020000080000
000000040000100000
000000040000200000
000000080000400000
000000100000800000
000000100003000000
01FC0020000E000000
060E00400078000000
1807FFE000E0000000
200701780000000000
2000011C0000000000
4000020E0000000000
400002070000000000
C0000403C000000000
C0000801E000000000
C0001000F000000000
E00010007C00000000
700020003E00000000
7800C0000F00000000
3E03000007C0000000
1FFE000003E0000000
07F0000001F8000080
0000000000FC000080
00000000003F000100
00000000001FC00200
00000000000FF80C00
000000000003FFF000
000000000000FFE000
0000000000003F0000
ENDCHAR
STARTCHAR 013A
ENCODING 314
SWIDTH 194 0
DWIDTH 14 0
BBX 38 52 3 1
BITMAP
0000000300
0000000600
0000000800
0000003000
0000006000
00000081F8
000001061C
000006180C
0000082004
0000004000
0000008000
0000010000
0000020000
0000040000
00000C0000
0000080000
0000100000
0000200000
0000600000
0000400000
0000C00000
0001800000
0003000000
0003000000
0006000000
000C000000
000C000000
0018000000
0038000000
0030000000
0060000000
00E0000000
00C0000000
01C0000000
0180000000
0300000000
0700000000
0600000000
0E00000000
0C00000000
1C00000000
1800000000
3800400000
3000800000
7001000000
7002000000
6004000000
E008000000
E010000000
E060000000
F180000000
7E00000000
ENDCHAR
STARTCHAR 013B
ENCODING 315
SWIDTH 958 0
DWIDTH 69 0
BBX 67 52 3 -13
BITMAP
000000000001FE0000
0000000000061F0000
000000000018078000
00000000006003C000
0000000000C003C000
00000000010001C000
00000000020001C000
00000000060001C000
000000000C0001C000
000000001800018000
000000003000018000
000000002000018000
000000006000030000
00000000C000020000
000000008000060000
000000010000040000
000000030000080000
000000020000100000
000000040000200000
000000040000400000
000000080001800000
000000100002000000
00000010000C000000
01FC3E200030000000
060EC7C000C0000000
180700E00000000000
200601780000000000
2000011C0000000000
4000020E0000000000
400002078000000000
C0000403C000000000
C0000801E000000000
C00010007800000000
E00010003C00000000
700020001E00000000
7800C0000F80000000
3E03000007C0000000
1FFE000003F0000000
07F0000000F8000020
00000000007E000040
00000000003F800080
00000000001FE00100
000000080007FC0600
0000001C0001FFF800
0000001C00007FF000
0000000C00001F8000
000000080000000000
000000180000000000
000000100000000000
000000200000000000
000000400000000000
000000800000000000
ENDCHAR
STARTCHAR 013C
ENCODING 316
SWIDTH 194 0
DWIDTH 14 0
BBX 41 60 0 -14
BITMAP
000000003F00
00000000C380
000000030180
000000040080
000000080000
000000100000
000000200000
000000400000
000000800000
000001800000
000001000000
000002000000
000004000000
00000C000000
000008000000
000018000000
000030000000
000060000000
000060000000
0000C0000000
000180000000
000180000000
000300000000
000700000000
000600000000
000C00000000
001C00000000
001800000000
003800000000
003000000000
006000000000
00E000000000
00C000000000
01C000000000
018000000000
038000000000
030000000000
070008000000
060010000000
0E0020000000
0E0040000000
0C0080000000
1C0100000000
1C0200000000
1C0C00000000
1E3000000000
0FC000000000
000000000000
000000000000
040000000000
0C0000000000
0C0000000000
040000000000
040000000000
040000000000
080000000000
080000000000
100000000000
200000000000
C00000000000
ENDCHAR
STARTCHAR 013D
ENCODING 317
SWIDTH 958 0
DWIDTH 69 0
BBX 67 46 3 -6
BITMAP
000000000001FE0000
0000000000061F0300
000000000018078380
00000000006003C380
0000000000C003C300
00000000010001C300
00000000020001C300
00000000060001C200
000000000C0001C400
000000001800018800
000000003000019000
000000002000018000
000000006000030000
00000000C000020000
000000008000060000
000000010000040000
000000030000080000
000000020000100000
000000040000200000
000000040000400000
000000080001800000
000000100002000000
00000010000C000000
01FC3E200030000000
060EC7C000C0000000
180700E00000000000
200601780000000000
2000011C0000000000
4000020E0000000000
400002078000000000
C0000403C000000000
C0000801E000000000
C00010007800000000
E00010003C00000000
700020001E00000000
7800C0000F80000000
3E03000007C0000000
1FFE000003F0000000
07F0000000F8000020
00000000007E000040
00000000003F800080
00000000001FE00100
000000000007FC0600
000000000001FFF800
0000000000007FF000
0000000000001F8000
ENDCHAR
STARTCHAR 013E
ENCODING 318
SWIDTH 208 0
DWIDTH 15 0
BBX 36 43 3 1
BITMAP
0000000FE0
00000030F0
000000C060
0000012000
0000027000
0000047000
0000083000
0000103000
0000102000
0000206000
0000404000
0000C08000
0000810000
0001020000
0003000000
0006000000
0006000000
000C000000
0018000000
0018000000
0030000000
0060000000
0060000000
00C0000000
01C0000000
0180000000
0380000000
0300000000
0600000000
0E00000000
0C00000000
1C00000000
1800000000
3800400000
3000800000
7001000000
7002000000
6004000000
E008000000
E010000000
E060000000
F180000000
7E00000000
ENDCHAR
STARTCHAR 013F
ENCODING 319
SWIDTH 958 0
DWIDTH 69 0
BBX 68 46 3 -7
BITMAP
000000000001FE0000
0000000000060F8000
00000000001803C000
00000000002003C000
0000000000C001C000
00000000018001C000
00000000030001C000
00000000060001C000
000000000C0001C000
00000000080001C000
000000001800018000
000000003000018000
000000006000010000
000000004000030000
00000000C000020000
000000018000040000
000000010000080000
000000030000100000
000000020000200000
000000040000400000
0000000C0000800000
00000008000300E000
01F80010000C00E000
063C001000F0004000
180E00200000000000
20067F400000000000
200783C00000000000
400600F00000000000
4004013C0000000000
C000011E0000000000
C000020F8000000000
C0000403C000000000
C0000801E000000000
E0001000F800000000
600020007C00000000
780040001F00000000
3E0180000FC0000000
1FFE000007E0000010
07F8000003F8000020
0000000000FE000040
00000000007F800080
00000000001FE00100
00000000000FFC0600
000000000003FFFC00
000000000000FFF000
0000000000001FC000
ENDCHAR
STARTCHAR 0140
ENCODING 320
SWIDTH 208 0
DWIDTH 15 0
BBX 36 43 3 0
BITMAP
0000001FE0
0000002070
000000C030
0000010000
0000020000
0000040000
0000080000
0000080000
0000100000
0000200000
0000600000
0000C00000
0000800000
0001800000
0003000000
0002000000
0006000000
000C000000
001C0C0000
00181E0000
00301C0000
0070080000
0060000000
00E0000000
00C0000000
0180000000
0380000000
0300000000
0700000000
0600000000
0E00000000
0C00000000
1C00000000
1800200000
3800400000
3000800000
7001000000
7002000000
E004000000
E008000000
E030000000
F0C0000000
7F00000000
ENDCHAR
STARTCHAR 0141
ENCODING 321
SWIDTH 958 0
DWIDTH 69 0
BBX 67 46 3 -6
BITMAP
000000000001FE0000
0000000000061F0000
000000000018078000
000000000020038000
0000000000C003C000
00000000018001C000
00000000030001C000
00000000060001C000
000000000C0001C000
00000000080001C000
000000001800018000
000000003000018000
000000006000038000
000000004000030000
00000000C000020000
000000008000060000
0000000103000C0000
000000033C00080000
00000003E000100000
000000070000200000
0000001C0000400000
000000680001800000
01F801900007000000
061E0020001E000000
0806004000F8000000
1007FFE000E0000000
200701780000000000
4000011C0000000000
4000020E0000000000
400002078000000000
C0000403C000000000
C0000801E000000000
E00010007800000000
E00010003C00000000
700020001E00000000
7800C0000F80000000
3E03000007C0000000
1FFE000003F0000000
07F0000000F8000020
00000000007E000040
00000000003F800080
00000000001FE00100
000000000007FC0600
000000000001FFF800
0000000000007FF000
0000000000001F8000
ENDCHAR
STARTCHAR 0142
ENCODING 322
SWIDTH 208 0
DWIDTH 15 0
BBX 34 47 3 0
BITMAP
00000001C0
00000007C0
00000009C0
00000031C0
0000006180
000000C180
0000018300
0000030300
0000070200
00000E0600
00001C0400
00001C0800
0000381800
0000701000
0000702000
0000E04000
0000C04000
0001C08000
0003810000
0003020000
0007040000
0006080000
000E100000
001C200000
0018400000
0039800000
0032000000
0064000000
00F8000000
00E0000000
0180000000
0387000000
0378000000
0780000000
3E00000000
CC00000000
1C00200000
1800400000
3800800000
3001000000
7002000000
6004000000
E008000000
E010000000
E060000000
F180000000
7E00000000
ENDCHAR
STARTCHAR 0143
ENCODING 323
SWIDTH 791 0
DWIDTH 57 0
BBX 64 59 3 -7
BITMAP
0000000000000180
0000000000000200
0000000000000C00
0000000000001800
0000000000002000
0000000000004000
0000000000018000
0000000000020000
0000000000040000
0000000000000000
0000000000000000
0000000000000078
00000000000003FE
0000000000001FFE
000000000000781F
000000000000C00F
0000000000030007
0000000000040007
0000000780180007
0000003F80200006
000000E780400006
000003070180000C
00000C070200000C
0000300604000018
0000400608000010
0000800C10000020
0002000C20000040
00040018C00000C0
0008001980000080
0030003300000100
0060002400000200
00C0006C00000400
0180005800000800
030000F000001000
060000A000002000
0400014000004000
0C00038000008000
1800030000030000
3800060000030000
30000E00000E0000
70000C00001C0000
6000180000180000
6000300000300000
E000700000600000
C000600000C00000
C000E00001C00000
C001C00003800000
C001C00007000000
C003800007000000
C00380000F000000
C00300000E000000
400000001E000000
600000001E000000
200000001E000000
200000001E000080
100000001F000300
080000000F001C00
0400000007C1E000
0380000003FE0000
ENDCHAR
STARTCHAR 0144
ENCODING 324
SWIDTH 263 0
DWIDTH 19 0
BBX 24 29 1 -3
BITMAP
000001
000003
000006
000008
000010
000020
0000C0
000100
000200
000400
000000
000000
000000
00C600
078E00
01A600
034600
038C00
070C00
061800
0C1800
083000
18700C
106010
30E020
60C040
61C180
C1C600
C1F800
ENDCHAR
STARTCHAR 0145
ENCODING 325
SWIDTH 791 0
DWIDTH 57 0
BBX 64 53 3 -14
BITMAP
0000000000000078
00000000000003FE
0000000000001FFE
000000000000781F
000000000000C00F
0000000000030007
0000000000040007
0000000780180007
0000003F80200006
000000E780400006
000003070180000C
00000C070200000C
0000300604000018
0000400608000010
0000800C10000020
0002000C20000040
00040018C00000C0
0008001980000080
0030003300000100
0060002400000200
00C0006C00000400
0180005800000800
030000F000001000
060000A000002000
0400014000004000
0C00038000008000
1800030000030000
3800060000030000
30000E00000E0000
70000C00001C0000
6000180000180000
6000300000300000
E000700000600000
C000600000C00000
C000E00001C00000
C001C00003800000
C001C00007000000
C003800007000000
C00380000F000000
C00300000E000000
400000001E000000
600000001E000000
200000001E000000
200000C01E000080
100001C01F000300
080000C00F001C00
040000C007C1E000
038000C003FE0000
0000008000000000
0000018000000000
0000010000000000
0000020000000000
00000C0000000000
ENDCHAR
STARTCHAR 0146
ENCODING 326
SWIDTH 263 0
DWIDTH 19 0
BBX 22 27 1 -13
BITMAP
00C600
038E00
019600
016600
038C00
030C00
071800
061800
0C3000
0C700C
186010
18E020
30C040
31C180
71C600
61F800
040000
0E0000
0E0000
060000
060000
040000
0C0000
080000
100000
200000
C00000
ENDCHAR
STARTCHAR 0147
ENCODING 327
SWIDTH 791 0
DWIDTH 57 0
BBX 64 59 3 -7
BITMAP
000000000000C000
000000000000C080
000000000000C100
000000000000C600
000000000000C800
000000000000D000
000000000000E000
000000000000C000
0000000000008000
0000000000000000
0000000000000000
0000000000000078
00000000000003FE
0000000000001FFE
000000000000781F
000000000000C00F
0000000000030007
0000000000040007
0000000780180007
0000003F80200006
000000E780400006
000003070180000C
00000C070200000C
0000300604000018
0000400608000010
0000800C10000020
0002000C20000040
00040018C00000C0
0008001980000080
0030003300000100
0060002400000200
00C0006C00000400
0180005800000800
030000F000001000
060000A000002000
0400014000004000
0C00038000008000
1800030000030000
3800060000030000
30000E00000E0000
70000C00001C0000
6000180000180000
6000300000300000
E000700000600000
C000600000C00000
C000E00001C00000
C001C00003800000
C001C00007000000
C003800007000000
C00380000F000000
C00300000E000000
400000001E000000
600000001E000000
200000001E000000
200000001E000080
100000001F000300
080000000F001C00
0400000007C1E000
0380000003FE0000
ENDCHAR
STARTCHAR 0148
ENCODING 328
SWIDTH 263 0
DWIDTH 19 0
BBX 23 28 0 1
BITMAP
000302
000304
000308
000310
000320
000340
000380
000300
000000
000000
000000
000000
006300
03C700
00D300
01A300
01C600
038600
030C00
060C00
041800
0C3800
083006
187008
306010
30E060
60E180
E06600
ENDCHAR
STARTCHAR 0149
ENCODING 329
SWIDTH 263 0
DWIDTH 19 0
BBX 23 32 1 -2
BITMAP
006000
00F000
007000
003000
003000
002000
006000
004000
008000
010000
020000
040000
000000
000000
004000
03C000
01C200
018F00
031700
036700
068600
070C00
0E0C00
0C1800
181802
383004
303008
706030
606040
C0E080
00E700
00F800
ENDCHAR
STARTCHAR 014C
ENCODING 332
SWIDTH 597 0
DWIDTH 43 0
BBX 46 45 4 0
BITMAP
000000003F80
000000000000
000000000000
000000000000
000000000000
000000000000
000000007F80
0000000381E0
0000000C0070
000001F80038
00000E70003C
00003060001C
000040C0001C
000100C0001C
00020180001C
000C0180001C
00180180001C
003001800018
006000800018
00C000000030
01C000000030
038000000030
070000000060
070000000060
0E00000000C0
1E0000000080
1C0000000180
3C0000000100
380000000200
780000000400
780000000C00
700000000800
F00000001000
F00000002000
F00000004000
F00000008000
F00000030000
F00000040000
F80000080000
780000300000
7C0000400000
3E0001800000
1F000E000000
0FFFF0000000
01FE00000000
ENDCHAR
STARTCHAR 014D
ENCODING 333
SWIDTH 236 0
DWIDTH 17 0
BBX 23 23 3 0
BITMAP
003F80
000000
000000
000000
000000
000000
000000
003802
01C404
068408
088430
088440
108580
20CE00
20F800
601000
401000
C02000
C04000
C08000
C10000
E60000
780000
ENDCHAR
STARTCHAR 014E
ENCODING 334
SWIDTH 597 0
DWIDTH 43 0
BBX 46 46 4 1
BITMAP
000000001804
000000001808
000000000C30
0000000007C0
000000000000
000000000000
000000000000
000000007F80
0000000181E0
0000000C0070
000001F80038
00000E70003C
00003060001C
000040C0001C
000180C0001C
00020180001C
000C0180001C
00180180001C
003001800018
006000800018
00C000000030
01C000000030
038000000030
070000000060
070000000060
0E00000000C0
1E0000000080
1C0000000180
3C0000000100
380000000200
780000000400
780000000C00
700000000800
F00000001000
F00000002000
F00000004000
F00000008000
F00000030000
F00000040000
F80000080000
780000300000
7C0000400000
3E0001800000
1F000E000000
0FFFF0000000
01FE00000000
ENDCHAR
STARTCHAR 014F
ENCODING 335
SWIDTH 236 0
DWIDTH 17 0
BBX 23 24 3 1
BITMAP
00E040
00E080
00F100
003E00
000000
000000
000000
000000
003802
01C404
068408
088430
088440
108580
20C600
20F800
601000
401000
C02000
C04000
C08000
C10000
E60000
780000
ENDCHAR
STARTCHAR 0150
ENCODING 336
SWIDTH 597 0
DWIDTH 43 0
BBX 46 49 4 1
BITMAP
000000000044
0000000000CC
000000000198
000000000310
000000000620
000000000840
000000000080
000000000000
000000000000
000000000000
000000007F80
0000000381E0
0000000C0070
000001F80038
00000E70003C
00003060001C
000040C0001C
000100C0001C
00020180001C
000C0180001C
00180180001C
003001800018
006000800018
00C000000030
01C000000030
038000000030
070000000060
070000000060
0E00000000C0
1E0000000080
1C0000000180
3C0000000100
380000000200
780000000400
780000000C00
700000000800
F00000001000
F00000002000
F00000004000
F00000008000
F00000030000
F00000040000
F80000080000
780000300000
7C0000400000
3E0001800000
1F000E000000
0FFFF0000000
01FE00000000
ENDCHAR
STARTCHAR 0151
ENCODING 337
SWIDTH 236 0
DWIDTH 17 0
BBX 21 27 3 1
BITMAP
000440
000C40
000880
001080
002100
002200
000000
000000
000000
000000
000000
003800
01C418
068420
088440
088480
108700
20CC00
20F800
601000
401000
C02000
C04000
C08000
C10000
E60000
780000
ENDCHAR
STARTCHAR 0152
ENCODING 338
SWIDTH 750 0
DWIDTH 54 0
BBX 56 38 4 0
BITMAP
00000007C0FE00
00000078030380
000001800C01C0
000006001801C0
000018003000C0
000060006000C0
000080006000C0
00010000E000C0
00060000C000C0
000C0000C00080
00180000C00180
00300000C00180
00600000600100
00C00000600300
01800000180200
030000007F8400
07000007800400
0600001C000800
0E000030001000
1C0000E0001000
1C0001C0002000
38000380004000
38000700008001
78000700010002
70000F00020002
70000E00040002
F0001E00080004
F0001E00100008
F0001E00200008
F0001E00C00010
F0001E01000020
F8001F02000040
78000F0C000180
7C000FB0000200
3E0007C0001C00
1F0007F0006000
0FFBF8FFDF8000
03FF003FF80000
ENDCHAR
STARTCHAR 0153
ENCODING 339
SWIDTH 305 0
DWIDTH 22 0
BBX 26 16 2 0
BITMAP
00783C00
00C4CC00
03050C00
06061800
0C041000
080C2000
1818C000
301B0000
303C0040
60300080
60700100
C0700200
C0F00C00
C1B01000
E6386000
781F8000
ENDCHAR
STARTCHAR 0154
ENCODING 340
SWIDTH 708 0
DWIDTH 51 0
BBX 78 63 -1 -11
BITMAP
00000000000004000000
00000000000008000000
00000000000010000000
00000000000020000000
000000000000C0000000
00000000000100000000
00000000000200000000
00000000004400000000
00000000009800000000
00000000018000000000
00000000010000000000
00000000030000000000
000000007FFE00000000
00000007820FC0000000
000000180401F0000000
000000600400F8000000
00000180080078000000
0000030008007C000000
0000040010003C000000
0000080010003C000000
0000100020003C000000
0000300020003C000000
0000200040003C000000
00004000400038000000
00004000800078000000
0000C000800070000000
000080010000E0000000
000080010001C0000000
00018002000380000000
00018002000F00000000
00018004003C00000000
000180043FC000000000
0001C008380000000000
0001C0083C0000000000
0000E0101C0000000000
0000E0301C0000000000
000070201E0000000000
000038400E0000000000
00001C400F0000000000
00000E800F0000000000
00000F00078000000000
00000700078000000000
0000070003C000000000
0000090003C000000000
0000110001E000000000
0000610001E000000000
0000810000F000000000
0007020000F800000000
00380400007800000000
7FFFF800007C00000000
FFFFE000003E00000000
00000000001E00000000
00000000001F00000000
00000000000F80000000
000000000007C0000000
000000000003E0000000
000000000001F0000000
000000000000F8000004
0000000000003E000008
0000000000001F800030
00000000000007E000C0
00000000000001FC0700
000000000000001FF800
ENDCHAR
STARTCHAR 0155
ENCODING 341
SWIDTH 222 0
DWIDTH 16 0
BBX 23 28 2 0
BITMAP
000006
00000C
000010
000060
0000C0
000100
000200
000C00
001000
000000
000000
000000
000180
3FC300
018E00
019600
01EC00
018C00
030E00
020F20
0400C0
0C0000
180000
100000
300000
600000
E00000
C00000
ENDCHAR
STARTCHAR 0156
ENCODING 342
SWIDTH 708 0
DWIDTH 51 0
BBX 79 58 -1 -14
BITMAP
00000000004000000000
00000000008000000000
00000000010000000000
00000000030000000000
00000000020000000000
00000000FFFC00000000
00000007041FC0000000
000000380C03F0000000
000000400800F8000000
00000180180078000000
0000020010007C000000
0000040010003C000000
0000080020003C000000
0000100020003C000000
0000300040003C000000
0000200040003C000000
00004000800038000000
00004000800078000000
0000C001000070000000
000080010000E0000000
000080030001C0000000
00018002000380000000
00018006000E00000000
00018004007800000000
0001800C7FC000000000
0001C008700000000000
0001C010780000000000
0000E010380000000000
0000E0203C0000000000
000070203C0000000000
000038401E0000000000
00001C401E0000000000
00000E800F0000000000
00000F000F0000000000
00000700078000000000
00000700078000000000
0000090007C000000000
0000110003C000000000
0000610003E000000000
0000810001F000000000
0007020000F000000000
0038040000F800000000
7FFFF800007C00000000
FFFFE000003E00000000
00000000003E00000000
00000000001F00000000
00000000000F80000000
0000000E0007C0000000
0000000E0003E0000000
000000060001F0000000
000000060000FC000000
0000000600003E000006
0000000C00001F800008
00000008000007E00030
00000018000000FC03C0
000000300000000FFC00
00000040000000000000
00000080000000000000
ENDCHAR
STARTCHAR 0157
ENCODING 343
SWIDTH 222 0
DWIDTH 16 0
BBX 20 28 1 -12
BITMAP
0000C0
1FE180
00C700
00CB00
00F600
00C600
018700
010790
020060
060000
0C0000
080000
180000
300000
700000
600000
000000
000000
0C0000
1C0000
0C0000
0C0000
0C0000
080000
180000
300000
600000
800000
ENDCHAR
STARTCHAR 0158
ENCODING 344
SWIDTH 708 0
DWIDTH 51 0
BBX 79 63 -1 -11
BITMAP
00000000000400000000
00000000000C04000000
00000000000C08000000
00000000000C30000000
00000000000C40000000
00000000000C80000000
00000000000D00000000
00000000000E00000000
0000000000C800000000
00000000008000000000
00000000018000000000
00000000010000000000
000000007FFE00000000
00000007820FC0000000
000000180601F0000000
000000600400F8000000
000001800C0078000000
0000030008007C000000
0000040018003C000000
0000080010003C000000
0000180030003C000000
0000100020003C000000
0000200060003C000000
00006000400038000000
00004000C00078000000
0000C000800070000000
000080018000E0000000
000080010001C0000000
00018002000380000000
00018002000F00000000
00018004003C00000000
000180043FE000000000
0001C008380000000000
0001C0083C0000000000
0000E0101C0000000000
0000E0301E0000000000
000070201E0000000000
000038400F0000000000
00001C400F0000000000
00000E80078000000000
00000F00078000000000
0000070003C000000000
0000070003C000000000
0000090003E000000000
0000110001E000000000
0000610001F000000000
0000810000F000000000
00070200007800000000
00380400007C00000000
7FFFF800003E00000000
FFFFE000003E00000000
00000000001F00000000
00000000000F80000000
000000000007C0000000
000000000003E0000000
000000000001F0000000
000000000000F8000000
0000000000007C000000
0000000000003F000006
0000000000000FC00008
00000000000003F00030
00000000000000FE01C0
000000000000000FFE00
ENDCHAR
STARTCHAR 0159
ENCODING 345
SWIDTH 222 0
DWIDTH 16 0
BBX 20 28 2 0
BITMAP
000800
001810
001820
000840
000880
000900
000A00
000C00
000000
000000
000000
000000
000180
3FC300
018E00
019600
01EC00
018C00
030E00
020F20
0400C0
0C0000
180000
100000
300000
600000
E00000
C00000
ENDCHAR
STARTCHAR 015A
ENCODING 346
SWIDTH 583 0
DWIDTH 42 0
BBX 50 57 1 -6
BITMAP
000000000000C0
00000000000180
00000000000200
00000000000400
00000000001800
00000000002000
00000000004000
00000000018000
00000000020000
00000000000000
00000000000000
00000000000000
00000001FF8000
0000000E07E000
0000003001E000
00000040006000
00000080006000
00000100002000
00000200002000
00000200002000
00000200002000
00000600000000
00000600000000
00000600000000
00000600000000
00000700000000
00000700000000
00000780000000
000003E0000000
000003F0000000
000001FC000000
000000FE000000
0000007F800000
0000001FC00000
00000007E00000
00200001F00000
00400000F00000
00400000780000
00800000380000
01000000180000
01000000180000
02000000180000
02000000180000
04000000180000
0C000000180000
0C000000100000
14000000100000
14000000200000
24000000200000
26000000400000
46000000800000
47000001000000
C7800004000000
03E00038000000
01FFEFE0000000
007FFF00000000
000FF000000000
ENDCHAR
STARTCHAR 015B
ENCODING 347
SWIDTH 208 0
DWIDTH 15 0
BBX 27 35 -3 -5
BITMAP
00000020
00000040
00000180
00000300
00000400
00000800
00003000
00004000
00008000
00000000
00000000
00001000
00006000
0000C000
0000C000
0001C000
0003C000
00058000
00098000
00118000
00238000
00438000
00830000
01030000
02030000
04060000
08060000
10060000
E00C0000
C0080000
C0180000
C0300000
E0600000
71C00000
3E000000
ENDCHAR
STARTCHAR 015C
ENCODING 348
SWIDTH 583 0
DWIDTH 42 0
BBX 45 57 1 -5
BITMAP
000000000008
000000000018
000000000068
000000000088
000000000108
000000000208
000000000408
000000000808
000000000008
000000000000
000000000000
000000000000
00000001FF80
0000000E07E0
0000003001E0
000000400060
000000800060
000001000020
000002000020
000002000020
000002000020
000006000000
000006000000
000006000000
000006000000
000007000000
000007000000
000007800000
000003E00000
000003F00000
000001FC0000
000000FE0000
0000007F8000
0000001FC000
00000007E000
00200001F000
00400000F000
004000007800
008000003800
010000001800
010000001800
020000001800
020000001800
040000001800
0C0000001800
0C0000001000
140000001000
140000002000
240000002000
260000004000
460000008000
470000010000
C78000040000
03E000380000
01FFEFE00000
007FFF000000
000FF0000000
ENDCHAR
STARTCHAR 015D
ENCODING 349
SWIDTH 208 0
DWIDTH 15 0
BBX 23 35 -3 -5
BITMAP
000002
000006
00001E
000026
000046
000086
000106
000206
000406
000000
000000
000008
000030
000060
0000E0
0001E0
0001C0
0003C0
0005C0
0009C0
001180
002180
004380
018380
020300
040300
080700
100600
E00600
C00C00
C01800
C01000
E02000
70C000
3F0000
ENDCHAR
STARTCHAR 015E
ENCODING 350
SWIDTH 583 0
DWIDTH 42 0
BBX 43 54 1 -14
BITMAP
00000001FF80
0000000E07E0
0000003001E0
000000400060
000000800060
000001000020
000002000020
000002000020
000002000020
000006000000
000006000000
000006000000
000006000000
000007000000
000007000000
000007800000
000003E00000
000003F00000
000001FC0000
000000FE0000
0000007F8000
0000001FC000
00000007E000
00200001F000
00400000F000
004000007800
008000003800
010000001800
010000001800
020000001800
020000001800
040000001800
0C0000001800
0C0000001000
140000001000
140000002000
240000002000
260000004000
460000008000
470000010000
C78000040000
03E000380000
01FFEFE00000
007FFF000000
000FF4000000
000018000000
000030000000
00003C000000
00001C000000
00000C000000
000010000000
000020000000
0000C0000000
000100000000
ENDCHAR
STARTCHAR 015F
ENCODING 351
SWIDTH 208 0
DWIDTH 15 0
BBX 19 32 -3 -13
BITMAP
000020
0000C0
0000C0
0001C0
0003C0
000580
000B80
001380
002380
004300
008300
010300
020700
040600
080600
100C00
200C00
C01800
C01800
C03000
E06000
71C000
3E0000
040000
0C0000
0F0000
070000
030000
040000
080000
300000
C00000
ENDCHAR
STARTCHAR 0160
ENCODING 352
SWIDTH 583 0
DWIDTH 42 0
BBX 48 56 1 -5
BITMAP
000000000181
000000000182
000000000184
000000000188
000000000190
0000000001A0
0000000001C0
000000000100
000000000000
000000000000
000000000000
00000001FF80
0000000E07E0
0000003001E0
000000400060
000000800060
000001000020
000002000020
000002000020
000002000020
000006000000
000006000000
000006000000
000006000000
000007000000
000007000000
000007800000
000003E00000
000003F00000
000001FC0000
000000FE0000
0000007F8000
0000001FC000
00000007E000
00200001F000
00400000F000
004000007800
008000003800
010000001800
010000001800
020000001800
020000001800
040000001800
0C0000001800
0C0000001000
140000001000
140000002000
240000002000
260000004000
460000008000
470000010000
C78000040000
03E000380000
01FFEFE00000
007FFF000000
000FF0000000
ENDCHAR
STARTCHAR 0161
ENCODING 353
SWIDTH 208 0
DWIDTH 15 0
BBX 26 35 -3 -5
BITMAP
00001000
00003040
00003080
00003100
00003200
00003400
00003800
00003000
00002000
00000000
00000000
00000000
00002000
00006000
0000C000
0000C000
0001C000
0002C000
00048000
00098000
00118000
00218000
00410000
00810000
01030000
06030000
08020000
10060000
E0040000
C00C0000
C0080000
C0100000
E0200000
70C00000
3F000000
ENDCHAR
STARTCHAR 0162
ENCODING 354
SWIDTH 569 0
DWIDTH 41 0
BBX 71 61 2 -16
BITMAP
00000000000040000E
00000000000080000E
00000000000080000C
000000000001000008
0000003FF801000010
000001FFFFF2000060
000007FFFFFFFFFF80
00001FFFFFFFFFF800
00003FE00008000000
00007E000008000000
0000F8000010000000
0001E0000010000000
0003C0000020000000
000300000020000000
000700000040000000
000600000040000000
000C00000080000000
000C00000080000000
000800000100000000
000800000100000000
001000000200000000
001000000200000000
001000000400000000
001000000400000000
000000000800000000
000000001000000000
000000001000000000
000000002000000000
000000002000000000
000000004000000000
000000004000000000
000000008000000000
400000010000000000
400000010000000000
800000020000000000
800000040000000000
800000080000000000
800000080000000000
800000100000000000
C00000200000000000
C00000400000000000
E00000800000000000
700003000000000000
7C000E000000000000
3F8038000000000000
1FFFF0000000000000
0FFFC0000000000000
03FC00000000000000
000000000000000000
000000000000000000
000000000000000000
000C00000000000000
000C00000000000000
000C00000000000000
000C00000000000000
000C00000000000000
000C00000000000000
000800000000000000
001000000000000000
003000000000000000
002000000000000000
ENDCHAR
STARTCHAR 0163
ENCODING 355
SWIDTH 208 0
DWIDTH 15 0
BBX 26 37 0 -14
BITMAP
00004000
00018000
00038000
00030000
00060000
000E0000
000C0000
00180000
00180000
07FFFFC0
00700000
00D00000
00880000
01880000
01080000
03080000
06080000
06100000
0C100000
0C100000
18200000
18400000
18800000
0F000000
00000000
00000000
00000000
0C000000
0C000000
04000000
04000000
08000000
08000000
10000000
20000000
40000000
80000000
ENDCHAR
STARTCHAR 0164
ENCODING 356
SWIDTH 569 0
DWIDTH 41 0
BBX 71 60 2 -4
BITMAP
000000000000100000
000000000000303000
000000000000304000
000000000000308000
000000000000310000
000000000000320000
000000000000340000
000000000000380000
000000000000200000
000000000000000000
000000000000000000
000000000000000000
00000000000040000E
00000000000080000E
00000000000080000C
000000000001000008
0000003FF801000010
000001FFFFF2000060
000007FFFFFFFFFF80
00001FFFFFFFFFF800
00003FF00004000000
00007E000008000000
0000F8000008000000
0001E0000010000000
0003C0000010000000
000380000020000000
000700000020000000
000600000040000000
000C00000080000000
000C00000080000000
000800000100000000
000800000100000000
001000000200000000
001000000200000000
001000000400000000
001000000400000000
000000000800000000
000000000800000000
000000001000000000
000000002000000000
000000002000000000
000000004000000000
000000004000000000
000000008000000000
400000010000000000
400000010000000000
800000020000000000
800000040000000000
800000040000000000
800000080000000000
800000100000000000
C00000200000000000
C00000400000000000
E00000800000000000
700003000000000000
7C0006000000000000
3F8038000000000000
1FFFF0000000000000
0FFFC0000000000000
03FE00000000000000
ENDCHAR
STARTCHAR 0165
ENCODING 357
SWIDTH 236 0
DWIDTH 17 0
BBX 23 29 3 1
BITMAP
000010
000038
000038
000018
000010
000230
000C20
001C40
001880
003100
007000
006000
00C000
00C000
3FFFFE
038000
068000
044000
0C4000
084000
184000
304000
308000
608000
608000
C10000
C20000
C40000
780000
ENDCHAR
STARTCHAR 0166
ENCODING 358
SWIDTH 777 0
DWIDTH 56 0
BBX 66 44 6 -2
BITMAP
000000000000007F00
0000000000000787C0
0000000000003800C0
000000000001C00180
000000FFFFFFFFFE00
00001F0007FFFFF800
0000E0000060000000
000300000080000000
000C00000300000000
001000000C00000000
002000001000000000
004000002000000000
00800000C000000000
010000018000000000
020000060000000000
0600000C0000000000
0C0000180000000000
0C0000300000000000
18007FFFE000000000
380000E00000000000
300001C00000000000
700003800000000000
600007800000000000
E0000F000000000000
E0000E000000000000
40001E000000040000
40001C000000040000
40003C000000040000
000038000000040000
0000780000000C0000
000078000000080000
000070000000180000
000070000000300000
0000F0000000600000
0000F0000000400000
000070000001800000
000070000003000000
000070000004000000
000030000018000000
000038000020000000
0000180000C0000000
00000E000700000000
000003803800000000
0000007FC000000000
ENDCHAR
STARTCHAR 0167
ENCODING 359
SWIDTH 208 0
DWIDTH 15 0
BBX 21 25 3 0
BITMAP
000200
000400
000800
000800
001000
002000
006000
004000
008000
018000
3FFFF8
030000
060000
0C0000
0C0000
180000
FFFFC0
380000
300000
700000
600000
E00000
E01000
F0E000
7F0000
ENDCHAR
STARTCHAR 0168
ENCODING 360
SWIDTH 861 0
DWIDTH 62 0
BBX 66 53 3 -5
BITMAP
000000000000702000
000000000001982000
000000000002084000
000000000002064000
000000000004038000
000000000000000000
000000000000000000
000000000000000000
0000000FE0000000C0
0000007FF000000180
000001C0F800000380
000006007800000300
000018003800000600
000020003800000C00
000040003800000800
000180003000001000
000200003000002000
000400003000004000
000800006000008000
001000004000008000
00200000C000010000
004000018000020000
008000018000020000
0080000300000C0000
0100000200001C0000
020000060000280000
0600000C0000580000
040000080000900000
0C0000180001300000
080000300002200000
180000200004600000
100000600008400000
300000C00010C00000
300001C00020C00000
700001800041800000
600003000081800000
600007000101800000
E00006000603000000
E0000E000803000000
E0001E001003000000
E0001C006003000400
E0001C008007000400
E0003C030007000400
E0003C040007000800
70003E380007000800
70003FC00007801000
70001F000007802000
380000000003C04000
180000000003E08000
0C0000000001FF0000
060000000000FC0000
018000000000000000
007800000000000000
ENDCHAR
STARTCHAR 0169
ENCODING 361
SWIDTH 291 0
DWIDTH 21 0
BBX 22 26 3 0
BITMAP
000C04
001604
006104
004188
0080F0
000000
000000
000000
000000
000000
078100
184180
604380
004300
008600
018E00
030C00
061800
0C3800
187000
30E004
616008
C24010
844020
8840C0
F03F00
ENDCHAR
STARTCHAR 016A
ENCODING 362
SWIDTH 861 0
DWIDTH 62 0
BBX 66 51 3 -6
BITMAP
000000000000FC0000
000000000000000000
000000000000000000
000000000000000000
000000000000000000
000000000000000000
0000000FE0000000C0
0000007FF000000180
000001C0F800000380
000006007800000300
000018003800000600
000020003800000C00
000040003800001800
000180003000001000
000200003000002000
000400003000004000
000800006000008000
001000004000008000
00200000C000010000
004000018000020000
008000018000020000
0080000300000C0000
0100000200000C0000
020000060000380000
0600000C0000580000
040000080000900000
0C0000180001300000
080000300002200000
180000200004600000
100000600008400000
300000C00010C00000
300001C00020C00000
700001800041800000
600003000081800000
600007000101800000
E00006000603000000
E0000E000803000000
E0001E001003000000
E0001C006003000400
E0001C008007000400
E0003C030007000800
E0003C040007000800
70003E380007001000
70003FC00007801000
70001F000007802000
380000000003C04000
180000000003E08000
0C0000000001FF0000
060000000000F80000
018000000000000000
007800000000000000
ENDCHAR
STARTCHAR 016B
ENCODING 363
SWIDTH 291 0
DWIDTH 21 0
BBX 22 23 3 0
BITMAP
001F80
000000
000000
000000
000000
000000
000000
078100
184180
604380
004700
008600
018E00
030C00
061800
0C3800
187000
30E004
616008
C24010
844020
8840C0
F03F00
ENDCHAR
STARTCHAR 016C
ENCODING 364
SWIDTH 861 0
DWIDTH 62 0
BBX 66 53 3 -6
BITMAP
000000000001000000
000000000007010000
000000000007020000
0000000000038C0000
000000000001F00000
000000000000000000
000000000000000000
000000000000000000
0000000FE0000000C0
0000007FF000000180
000001C0F800000300
000006007800000700
000018003800000600
000020003800000C00
000040003800001800
000180003000001000
000200003000002000
000400003000004000
000800006000008000
001000004000008000
00200000C000010000
004000018000020000
008000018000020000
0080000300000C0000
0100000200001C0000
020000060000280000
0600000C0000500000
040000080000900000
0C0000180001300000
080000300002200000
180000200004600000
100000600008400000
300000C00010C00000
300001C00020C00000
700001800041800000
600003000081800000
600007000101800000
E00006000603000000
E0000E000803000000
E0001E001003000000
E0001C006003000400
E0001C008007000400
E0003C030007000800
E0003C040007000800
70003E380007001000
70003FC00007801000
70001F000007802000
380000000003C04000
180000000003E08000
0C0000000001FF0000
060000000000F80000
018000000000000000
007800000000000000
ENDCHAR
STARTCHAR 016D
ENCODING 365
SWIDTH 291 0
DWIDTH 21 0
BBX 20 24 3 1
BITMAP
004040
006080
002100
003E00
000000
000000
000000
000000
078200
184600
604600
004E00
008C00
019C00
031800
063800
0C7000
18F000
316000
616010
C24020
844040
884180
F03E00
ENDCHAR
STARTCHAR 016E
ENCODING 366
SWIDTH 861 0
DWIDTH 62 0
BBX 66 57 3 -6
BITMAP
000000000000FC0000
000000000001820000
000000000003020000
000000000007020000
000000000007020000
000000000007040000
000000000007880000
000000000001D00000
000000000000200000
000000000000000000
000000000000000000
000000000000000000
0000000FE0000000C0
0000007FF000000180
000001C0F800000380
000006007800000300
000018003800000600
000020003800000C00
000040003800001800
000180003000001000
000200003000002000
000400003000004000
000800006000008000
001000004000008000
00200000C000010000
004000018000020000
008000018000020000
0080000300000C0000
0100000200000C0000
020000060000380000
0600000C0000580000
040000080000900000
0C0000180001300000
080000300002200000
180000200004600000
100000600008400000
300000C00010C00000
300001C00020C00000
700001800041800000
600003000081800000
600007000101800000
E00006000603000000
E0000E000803000000
E0001E001003000000
E0001C006003000400
E0001C008007000400
E0003C030007000800
E0003C040007000800
70003E380007001000
70003FC00007801000
70001F000007802000
380000000003C04000
180000000003E08000
0C0000000001FF0000
060000000000FC0000
018000000000000000
007800000000000000
ENDCHAR
STARTCHAR 016F
ENCODING 367
SWIDTH 291 0
DWIDTH 21 0
BBX 22 29 3 0
BITMAP
0001E0
000610
000810
000810
000810
000820
000C20
0006C0
000100
000000
000000
000000
000000
078080
184180
604380
004300
008700
018E00
030C00
061C00
0C3800
183000
30E004
616008
C24010
844020
8840C0
F03F00
ENDCHAR
STARTCHAR 0170
ENCODING 368
SWIDTH 861 0
DWIDTH 62 0
BBX 66 54 3 -6
BITMAP
000000000000088000
00000000000008C000
000000000000118000
000000000000230000
000000000000420000
000000000000840000
000000000000080000
000000000000000000
000000000000000000
0000000FE0000000C0
0000007FF000000180
000001C0F800000380
000006007800000300
000018003800000600
000020003800000C00
000040003800001800
000180003000001000
000200003000002000
000400003000004000
000800006000008000
001000004000008000
00200000C000010000
004000018000020000
008000018000020000
0080000300000C0000
0100000200000C0000
020000060000380000
0600000C0000580000
040000080000900000
0C0000180001300000
080000300002200000
180000200004600000
100000600008400000
300000C00010C00000
300001C00020C00000
700001800041800000
600003000081800000
600007000101800000
E00006000603000000
E0000E000803000000
E0001E001003000000
E0001C006003000400
E0001C008007000400
E0003C030007000800
E0003C040007000800
70003E380007001000
70003FC00007801000
70001F000007802000
380000000003C04000
180000000003E08000
0C0000000001FF0000
060000000000F80000
018000000000000000
007800000000000000
ENDCHAR
STARTCHAR 0171
ENCODING 369
SWIDTH 291 0
DWIDTH 21 0
BBX 20 27 3 1
BITMAP
000220
000660
000C40
001880
001100
002200
004000
000000
000000
000000
000000
078000
184600
604600
004C00
009C00
019800
033800
063800
0C7000
18F000
316010
616020
C24040
844080
884100
F03E00
ENDCHAR
STARTCHAR 0172
ENCODING 370
SWIDTH 861 0
DWIDTH 62 0
BBX 64 50 3 -10
BITMAP
0000000FE0000003
0000007FF0000007
000001C0F8000006
000006007800000C
0000180038000018
0000200038000018
0000400038000030
0001800030000060
0002000030000040
0004000030000080
0008000060000100
0010000040000100
00200000C0000200
0040000180000600
0080000180000C00
0080000300002C00
0100000200003800
0200000600007800
0600000C0000B000
0400000800013000
0C00001800026000
0800003000046000
180000200008C000
100000600010C000
300000C00020C000
300001C000418000
7000018000818000
6000030001018000
6000070002038000
E000060004030000
E0000E0018030000
E0001E0020030008
E0001C0040070010
E0001C0180070010
E0003C0200070010
E0003C0C00070020
70003E3000070020
70003FC000078040
70001E0000078040
380000000007C080
180000000003E100
0C0000000001FE00
060000000000F800
0180000000004000
0078000000008000
0000000000008000
0000000000010000
0000000000010000
0000000000008000
000000000000E000
ENDCHAR
STARTCHAR 0173
ENCODING 371
SWIDTH 291 0
DWIDTH 21 0
BBX 22 24 3 -8
BITMAP
0E0100
398180
608380
008700
010600
020E00
040C00
041800
083800
107000
20E004
416008
C24010
844020
8840C0
F03F00
002000
004000
008000
010000
030000
030000
038000
01E000
ENDCHAR
STARTCHAR 0174
ENCODING 372
SWIDTH 847 0
DWIDTH 61 0
BBX 105 63 1 -7
BITMAP
0000000000000000080000000000
0000000000000000380000000000
0000000000000000580000000000
0000000000000000980000000000
0000000000000001180000000000
0000000000000002180000000000
0000000000000004180000000000
0000000000000008180000000000
00000000000000001000000FF000
00000000000000000000007FFC00
0000000000000000000001FFFE00
0000000000000000000007FFFF00
000000000000000100001FC01F00
000000000000000600003E000780
000000000000000E0000F0000380
000000000002000C0001C0000180
00000000001C001C000300000080
0000000000E0003C000E00000080
000000000720007C001800000080
00000000187000B8003000000080
00000000E0700138004000000100
0000000300F00638008000000100
0000000C00E00870010000000200
0000007001E01070020000000000
0000018001C020700C0000000000
0000060003C040E0100000000000
00001800038080E0200000000000
00002000078100E0400000000000
0000C000070201C0800000000000
00030000070401C1000000000000
000600000E0801C2000000000000
001C00000C100184000000000000
003000001C200384000000000000
0060000018400308000000000000
00C0000038800310000000000000
0180000031000620000000000000
0300000062000640000000000000
0700000064000680000000000000
0E000000C8000C80000000000000
1C000000D0000D00000000000000
1C000001A0000A00000000000000
3800000120001C00000000000000
3000000340001400000000000000
7000000280001800000000000000
7000000500003000000000000000
6000000600003000000000000000
E000000C00006000000000000000
E000000C00004000000000000000
C00000180000C000000000000000
C000003000018000000000000000
C000006000030000000000000000
C00000E000070000000000000000
C00001C000060000000000000000
40000380000E0000000000000000
6000018000040000000000000000
2000000000000000000000000000
3000000000000000000000000000
1000000000000000000000000000
0800000000000000000000000000
0400000000000000000000000000
0300000000000000000000000000
00C0000000000000000000000000
0030000000000000000000000000
ENDCHAR
STARTCHAR 0175
ENCODING 373
SWIDTH 319 0
DWIDTH 23 0
BBX 21 28 2 0
BITMAP
000008
000018
000078
000098
000118
000618
000818
001018
002018
000000
000000
000000
000000
01C018
038018
038018
070018
061018
0E3010
0CF010
1D3020
3A3020
3C3040
783080
783080
F03100
C03E00
803800
ENDCHAR
STARTCHAR 0176
ENCODING 374
SWIDTH 583 0
DWIDTH 42 0
BBX 66 71 -7 -20
BITMAP
000000000000080000
000000000000180000
000000000000780000
000000000000980000
000000000001180000
000000000002180000
000000000004180000
000000000008180000
0000000000001003C0
000000000000000440
000000000000000840
0000000000000018C0
00000007C000001080
00000018E000002180
000000206000004100
000000C0600000C200
000001006000008400
000002006000018C00
00000400E000030800
00000800C000021000
00001001C000062000
00002001C0000C4000
0000000380000C8000
000000038000190000
0000000700003A0000
000000070000340000
0000000E0000780000
0000000E0000700000
0000001C0000E00000
0000001C0001C00000
000000180001C00000
000000380003800000
000000300003800000
00000070000F000000
00000070001E000000
00000060006E000000
00000060009C000000
00000060031C000000
000000601C38000000
00000030E078000000
0000001F0070000000
0000000000E0000000
0000000000E0000000
0000000001C0000000
0000000001C0000000
000000000380000000
000000000300000000
000000000700000000
000000000600000000
000000000E00000000
000000001C00000000
000000001800000000
000000003800000000
000000003000000000
000000006000000000
00000000C000000000
00000000C000000000
000000018000000000
000000030000000000
800000060000000000
800000040000000000
800000080000000000
C00000100000000000
C00000200000000000
C00000400000000000
E00001800000000000
700002000000000000
78000C000000000000
3E0070000000000000
1FFF80000000000000
03FC00000000000000
ENDCHAR
STARTCHAR 0177
ENCODING 375
SWIDTH 236 0
DWIDTH 17 0
BBX 77 66 -48 -36
BITMAP
00000000000000001800
00000000000000003800
00000000000000005800
00000000000000009800
00000000000000011800
00000000000000021800
00000000000000041800
00000000000000081870
000000000000000811F8
00000000000000000218
00000000000000000408
00000000000000001800
00000000000000001000
00000000000000002000
00000000000000204000
00000000000003E08000
0000000000000CE08000
00000000000030C10000
00000000000001C20000
00000000000001820000
00000000000003040000
00000000000007040000
00000000000006080000
0000000000000E100000
0000000000001C100000
0000000000001C200000
00000000000038200000
00000000000038400000
0000000000003BC00000
00000000000004800000
00000000000001000000
00000000000001000000
00000000000002000000
00000000000004000000
00000000000004000000
00000000000008000000
00000000000018000000
00000000000010000000
00000000000020000000
00000000000040000000
00000000000040000000
00000000000080000000
00000000000100000000
00000000000200000000
00000000000200000000
00000000000400000000
00000000000800000000
00000000001000000000
00000000002000000000
80000000002000000000
80000000004000000000
80000000008000000000
80000000010000000000
80000000020000000000
80000000040000000000
80000000080000000000
C0000000300000000000
40000000400000000000
60000000800000000000
70000003000000000000
38000004000000000000
1C000018000000000000
1F000060000000000000
07F00780000000000000
03FFFC00000000000000
007FC000000000000000
ENDCHAR
STARTCHAR 0178
ENCODING 376
SWIDTH 583 0
DWIDTH 42 0
BBX 66 66 -7 -20
BITMAP
000000000006300000
00000000000E700000
00000000000C600000
0000000000000003C0
000000000000000440
000000000000000840
0000000000000010C0
00000007C000002080
00000018E000002180
000000206000004300
000000C06000008200
000001006000018400
000002006000010C00
00000400E000031800
00000800C000063000
00001001C000046000
00002001C0000C4000
000000038000188000
000000038000190000
000000070000320000
000000070000740000
0000000E0000680000
0000000E0000E00000
0000001C0000C00000
0000001C0001C00000
000000180003800000
000000380003000000
000000300007000000
00000070000E000000
00000070001E000000
00000060007C000000
00000060019C000000
000000600638000000
000000601838000000
00000030E070000000
0000001F0060000000
0000000000E0000000
0000000000C0000000
0000000001C0000000
000000000180000000
000000000380000000
000000000700000000
000000000600000000
000000000E00000000
000000000C00000000
000000001800000000
000000001800000000
000000003000000000
000000006000000000
000000006000000000
00000000C000000000
000000018000000000
000000010000000000
000000020000000000
800000060000000000
8000000C0000000000
800000180000000000
C00000100000000000
C00000200000000000
C00000800000000000
E00001000000000000
700002000000000000
78000C000000000000
3E0070000000000000
1FFF80000000000000
03FC00000000000000
ENDCHAR
STARTCHAR 0179
ENCODING 377
SWIDTH 555 0
DWIDTH 40 0
BBX 45 66 0 -13
BITMAP
000000001000
000000002000
000000004000
000000018000
000000030000
000000040000
000000080000
000000300000
000000400000
000000000000
000000000000
000000000000
0003FFFF0000
0003FFFFC000
0001FFF82000
0001FF801000
0001FE000800
0000F0000800
000000000800
000000000800
000000000800
000000001000
000000002000
000000002000
000000004000
000000008000
000000010000
000000010000
000000020000
000000040000
000003FC0000
00001C330000
000070618000
0000C080C000
00018300E000
000304006000
000318006000
0001C0007018
000000007060
000000007180
000000007E00
000000007000
00000003F000
0000001CF000
00000060E000
00000380E000
00000C01C000
00007001C000
000180038000
000600078000
001800070000
0060000E0000
01C0001C0000
030000180000
0E0000300000
180000600000
300000C00000
600001800000
400003000000
C00006000000
800018000000
800030000000
8000C0000000
C00300000000
603C00000000
1FC000000000
ENDCHAR
STARTCHAR 017A
ENCODING 378
SWIDTH 222 0
DWIDTH 16 0
BBX 44 51 -22 -21
BITMAP
000000000030
000000000060
000000000080
000000000300
000000000400
000000000800
000000003000
000000004000
000000008000
000000000000
000000000000
000000000000
000000000200
000000100600
000000100400
000000380800
0000003C3000
0000001FE000
000000004000
000000008000
000000030000
000000040000
000000080000
0000003F0100
000000018E00
00000001F000
000000018000
0000000F8000
000000330000
000001C70000
000006070000
000018060000
0000600C0000
0001801C0000
000600180000
001800300000
006000700000
00C000600000
030000C00000
060001800000
080003000000
100006000000
20000C000000
400018000000
400020000000
8000C0000000
800180000000
800600000000
C01800000000
606000000000
3F8000000000
ENDCHAR
STARTCHAR 017B
ENCODING 379
SWIDTH 555 0
DWIDTH 40 0
BBX 45 61 0 -14
BITMAP
000000300000
000000700000
000000600000
000000000000
000000000000
000000000000
000000000000
000000000000
000000000000
00000007E000
0003FFF87000
0001FE001800
0000F0000800
000000000800
000000000800
000000001000
000000001000
000000002000
000000002000
000000004000
000000008000
000000010000
000000020000
000000040000
000000180000
000007F00000
0000186E0000
000060C18000
0000C381C000
00018600C000
00030C00E000
000330006000
0001C0007018
000000007060
000000007180
000000007E00
000000007000
00000003F000
0000001CF000
00000060E000
00000381E000
00000C01C000
00007001C000
000180038000
000600078000
001800070000
0060000E0000
01C0001C0000
030000180000
0E0000300000
180000600000
300000C00000
600001800000
400003000000
C00006000000
800018000000
800030000000
8000C0000000
C00300000000
603C00000000
1FC000000000
ENDCHAR
STARTCHAR 017C
ENCODING 380
SWIDTH 222 0
DWIDTH 16 0
BBX 40 46 -22 -22
BITMAP
0000000018
0000000038
0000000030
0000000000
0000000000
0000000000
0000000000
0000000002
0000001006
0000001004
0000003808
0000003C30
0000001FE0
0000000040
0000000080
0000000300
0000000400
0000000800
0000003F01
000000018E
00000001F0
0000000180
0000000F80
0000003300
000001C700
0000060700
0000180600
0000600C00
0001801C00
0006001800
0018003000
0060007000
00C0006000
030000C000
0600018000
0800030000
1000060000
20000C0000
4000180000
4000200000
8000C00000
8001800000
8006000000
C018000000
6060000000
3F80000000
ENDCHAR
STARTCHAR 017D
ENCODING 381
SWIDTH 555 0
DWIDTH 40 0
BBX 45 65 0 -13
BITMAP
000000604000
000000604000
000000618000
000000620000
000000640000
000000680000
000000700000
000000600000
000000000000
000000000000
000000000000
0003FFFF0000
0003FFFFC000
0001FFF82000
0001FF801000
0001FE000800
0000F0000800
000000000800
000000000800
000000000800
000000001000
000000002000
000000002000
000000004000
000000008000
000000010000
000000010000
000000020000
000000040000
000003FC0000
00001CF30000
000061E18000
0000C380C000
00018700E000
00030C006000
000338006000
0001C0007018
000000007060
000000007180
000000007E00
000000007000
00000003F000
0000001CF000
00000060E000
00000380E000
00000C01C000
00007001C000
000180038000
000600078000
001800070000
0060000E0000
01C0001C0000
030000180000
0E0000300000
180000600000
300000C00000
600001800000
400003000000
C00006000000
800018000000
800030000000
8000C0000000
C00300000000
603C00000000
1FC000000000
ENDCHAR
STARTCHAR 017E
ENCODING 382
SWIDTH 222 0
DWIDTH 16 0
BBX 40 51 -22 -21
BITMAP
0000000080
0000000181
0000000182
0000000184
0000000088
0000000098
00000000B0
0000000060
0000000040
0000000000
0000000000
0000000000
000000000C
000000100C
0000001008
0000003810
0000003C60
0000001FC0
0000000080
0000000100
0000000200
0000000400
0000000800
0000003F02
000000019C
00000001E0
0000000180
0000000F80
0000003300
000001C700
0000060700
0000180600
0000600C00
0001801C00
0006001800
0018003000
0060007000
00C0006000
030000C000
0600018000
0800030000
1000060000
20000C0000
4000180000
4000200000
8000C00000
8001800000
8006000000
C018000000
6060000000
3F80000000
ENDCHAR
STARTCHAR 0192
ENCODING 402
SWIDTH 361 0
DWIDTH 26 0
BBX 42 39 -7 -8
BITMAP
0000000007C0
0000000019C0
000000006000
000000008000
000000008000
000000010000
000000020000
000000060000
000000040000
0000000C0000
000000180000
000000380000
000000300000
000000700000
000000E00000
000000C00000
00003FFF8000
000021800000
000003800000
000007000000
000007000000
00000E000000
00000C000000
00001C000000
000018000000
000030000000
000070000000
000060000000
0000C0000000
0000C0000000
000180000000
000300000000
000200000000
000600000000
000C00000000
400800000000
C03000000000
E04000000000
7F8000000000
ENDCHAR
STARTCHAR 0218
ENCODING 536
SWIDTH 583 0
DWIDTH 42 0
BBX 43 57 1 -18
BITMAP
00000001FF80
0000000E07E0
0000003001E0
000000400060
000000800060
000001000020
000002000020
000002000020
000002000020
000006000000
000006000000
000006000000
000006000000
000007000000
000007000000
000007800000
000003E00000
000003F00000
000001FC0000
000000FE0000
0000007F8000
0000001FC000
00000007E000
00200001F000
00400000F000
004000007800
008000003800
010000001800
010000001800
020000001800
020000001800
040000001800
0C0000001800
0C0000001000
140000001000
140000002000
240000002000
260000004000
460000008000
470000010000
C78000040000
03E000380000
01FFEFE00000
007FFF000000
000FF0000000
000000000000
000000000000
0000C0000000
0001C0000000
0000C0000000
0000C0000000
0000C0000000
0000C0000000
000180000000
000100000000
000200000000
000400000000
ENDCHAR
STARTCHAR 0219
ENCODING 537
SWIDTH 208 0
DWIDTH 15 0
BBX 20 35 -3 -16
BITMAP
000010
000060
0000C0
0001C0
0001C0
0003C0
000580
000980
001380
002380
004300
008300
010300
020700
040600
080600
100C00
E00C00
C00800
C01800
C03000
E06000
70C000
3E0000
010000
038000
038000
018000
018000
010000
030000
060000
040000
180000
200000
ENDCHAR
STARTCHAR 021A
ENCODING 538
SWIDTH 569 0
DWIDTH 41 0
BBX 71 61 2 -16
BITMAP
00000000000040000E
00000000000080000E
00000000000080000C
000000000001000008
0000003FF801000010
000001FFFFF2000060
000007FFFFFFFFFF80
00001FFFFFFFFFF800
00003FE00008000000
00007E000008000000
0000F8000010000000
0001E0000010000000
0003C0000020000000
000300000020000000
000700000040000000
000600000040000000
000C00000080000000
000C00000080000000
000800000100000000
000800000100000000
001000000200000000
001000000200000000
001000000400000000
001000000400000000
000000000800000000
000000001000000000
000000001000000000
000000002000000000
000000002000000000
000000004000000000
000000004000000000
000000008000000000
400000010000000000
400000010000000000
800000020000000000
800000040000000000
800000080000000000
800000080000000000
800000100000000000
C00000200000000000
C00000400000000000
E00000800000000000
700003000000000000
7C000E000000000000
3F8038000000000000
1FFFF0000000000000
0FFFC0000000000000
03FC00000000000000
000000000000000000
000000000000000000
000000000000000000
000C00000000000000
000C00000000000000
000C00000000000000
000C00000000000000
000C00000000000000
000C00000000000000
000800000000000000
001000000000000000
003000000000000000
002000000000000000
ENDCHAR
STARTCHAR 021B
ENCODING 539
SWIDTH 208 0
DWIDTH 15 0
BBX 26 37 0 -14
BITMAP
00004000
00018000
00038000
00030000
00060000
000E0000
000C0000
00180000
00180000
07FFFFC0
00700000
00D00000
00880000
01880000
01080000
03080000
06080000
06100000
0C100000
0C100000
18200000
18400000
18800000
0F000000
00000000
00000000
00000000
0C000000
0C000000
04000000
04000000
08000000
08000000
10000000
20000000
40000000
80000000
ENDCHAR
STARTCHAR 02C6
ENCODING 710
SWIDTH 236 0
DWIDTH 17 0
BBX 9 9 4 19
BITMAP
0080
0180
0780
0980
1180
2180
4180
8180
8100
ENDCHAR
STARTCHAR 02C7
ENCODING 711
SWIDTH 236 0
DWIDTH 17 0
BBX 9 9 4 19
BITMAP
4080
C080
C100
C600
C800
D000
E000
C000
8000
ENDCHAR
STARTCHAR 02C9
ENCODING 713
SWIDTH 236 0
DWIDTH 17 0
BBX 6 1 6 22
BITMAP
FC
ENDCHAR
STARTCHAR 02D8
ENCODING 728
SWIDTH 236 0
DWIDTH 17 0
BBX 9 5 4 20
BITMAP
4000
C000
C080
6300
3C00
ENDCHAR
STARTCHAR 02D9
ENCODING 729
SWIDTH 236 0
DWIDTH 17 0
BBX 3 3 6 21
BITMAP
60
E0
C0
ENDCHAR
STARTCHAR 02DA
ENCODING 730
SWIDTH 277 0
DWIDTH 20 0
BBX 9 8 4 21
BITMAP
1F00
6080
4080
8080
8080
8100
C100
7E00
ENDCHAR
STARTCHAR 02DB
ENCODING 731
SWIDTH 236 0
DWIDTH 17 0
BBX 6 8 5 -6
BITMAP
04
18
20
40
C0
C0
E0
78
ENDCHAR
STARTCHAR 02DC
ENCODING 732
SWIDTH 236 0
DWIDTH 17 0
BBX 16 5 0 20
BITMAP
0E01
1381
21C2
40E2
807C
ENDCHAR
STARTCHAR 02DD
ENCODING 733
SWIDTH 236 0
DWIDTH 17 0
BBX 10 7 3 19
BITMAP
0440
0CC0
1980
3300
2200
4400
8800
ENDCHAR
STARTCHAR 0394
ENCODING 916
SWIDTH 597 0
DWIDTH 43 0
BBX 32 31 7 0
BITMAP
00000003
00000007
0000000E
0000001E
00000026
0000004E
0000008E
0000010E
0000020C
0000040C
0000080C
0000100C
0000201C
0000401C
0000801C
0001001C
00020018
00040018
00080018
00100038
00200038
00400038
00800038
01000038
02000030
04000030
08000030
10000030
30000070
7FFFFFF0
FFFFFFF0
ENDCHAR
STARTCHAR 03A9
ENCODING 937
SWIDTH 597 0
DWIDTH 43 0
BBX 38 33 5 -2
BITMAP
00003FFE00
0000C00180
00030000E0
000C000070
0018000038
0030000038
006000001C
00E000001C
01C000001C
018000001C
038000001C
030000001C
070000001C
070000001C
0700000018
0600000038
0E00000038
0E00000030
0E00000070
0E00000060
06000000C0
06000000C0
0600000180
0200000300
0300000600
0100000800
0080001040
0080006040
0060018080
3FF01FFF00
7FF01FFF00
4000000000
8000000000
ENDCHAR
STARTCHAR 03BC
ENCODING 956
SWIDTH 402 0
DWIDTH 29 0
BBX 26 32 0 -17
BITMAP
000181C0
00030180
00060300
00060300
000C0600
000C0600
00180C00
00101800
00301800
00703800
00607040
00E0B080
01613100
01627200
027C3C00
04000000
04000000
08000000
08000000
10000000
10000000
10000000
20000000
20000000
60000000
40000000
40000000
C0000000
C0000000
C0000000
C0000000
40000000
ENDCHAR
STARTCHAR 03C0
ENCODING 960
SWIDTH 402 0
DWIDTH 29 0
BBX 23 17 6 -1
BITMAP
000002
000004
03FFFC
03EFF0
042040
084080
084080
004100
008100
010200
010600
020600
020400
040C10
180C20
F00C40
600F80
ENDCHAR
STARTCHAR 2013
ENCODING 8211
SWIDTH 500 0
DWIDTH 36 0
BBX 25 1 9 9
BITMAP
FFFFFF80
ENDCHAR
STARTCHAR 2014
ENCODING 8212
SWIDTH 1000 0
DWIDTH 72 0
BBX 40 1 13 9
BITMAP
FFFFFFFFFF
ENDCHAR
STARTCHAR 2018
ENCODING 8216
SWIDTH 208 0
DWIDTH 15 0
BBX 8 16 11 16
BITMAP
01
02
04
08
10
10
20
20
40
40
40
C0
E0
E0
60
40
ENDCHAR
STARTCHAR 2019
ENCODING 8217
SWIDTH 208 0
DWIDTH 15 0
BBX 8 16 11 16
BITMAP
06
07
07
03
03
03
02
02
04
04
08
10
10
20
40
80
ENDCHAR
STARTCHAR 201A
ENCODING 8218
SWIDTH 208 0
DWIDTH 15 0
BBX 8 16 3 -7
BITMAP
02
06
0F
07
03
02
02
02
04
04
08
10
10
20
40
80
ENDCHAR
STARTCHAR 201C
ENCODING 8220
SWIDTH 277 0
DWIDTH 20 0
BBX 13 17 11 15
BITMAP
0100
0208
0410
0820
1040
1080
2080
4100
4100
4300
C200
C200
C300
C700
E380
E300
C300
ENDCHAR
STARTCHAR 201D
ENCODING 8221
SWIDTH 277 0
DWIDTH 20 0
BBX 14 16 10 16
BITMAP
030C
071C
071C
030C
030C
030C
0208
0208
0210
0410
0820
0820
1040
2080
4100
8200
ENDCHAR
STARTCHAR 201E
ENCODING 8222
SWIDTH 291 0
DWIDTH 21 0
BBX 14 17 3 -7
BITMAP
0218
0618
0F38
071C
0318
0208
0208
0218
0410
0410
0820
1040
1040
2080
4100
8200
0400
ENDCHAR
STARTCHAR 2020
ENCODING 8224
SWIDTH 263 0
DWIDTH 19 0
BBX 20 35 1 -3
BITMAP
000010
000030
000070
000060
0000E0
0000C0
000180
000180
000100
000200
000200
000400
000400
1FFFF0
1F93F0
001030
002000
002000
004000
00C000
008000
018000
030000
030000
060000
0E0000
0C0000
1C0000
380000
380000
780000
F00000
F00000
E00000
C00000
ENDCHAR
STARTCHAR 2021
ENCODING 8225
SWIDTH 263 0
DWIDTH 19 0
BBX 21 35 4 -3
BITMAP
000010
000038
000038
000070
000060
0000E0
0000C0
000080
000180
000100
000200
000200
040400
0FFFF8
1F0BF8
001010
001000
002000
004000
704080
FFFFC0
F083C0
010000
030000
020000
060000
0C0000
0C0000
1C0000
380000
780000
780000
F00000
F00000
400000
ENDCHAR
STARTCHAR 2022
ENCODING 8226
SWIDTH 500 0
DWIDTH 36 0
BBX 11 11 18 11
BITMAP
1F00
3FC0
7FE0
7FE0
FFE0
FFE0
FFE0
7FE0
7FE0
3FC0
0F00
ENDCHAR
STARTCHAR 2026
ENCODING 8230
SWIDTH 583 0
DWIDTH 42 0
BBX 30 4 6 0
BITMAP
3803801C
7807803C
F0070078
E0070070
ENDCHAR
STARTCHAR 2030
ENCODING 8240
SWIDTH 805 0
DWIDTH 58 0
BBX 50 37 6 -6
BITMAP
0001FFF8000000
0001FF3C000000
0002800C000000
000C6004000000
00183008000000
00303008000000
00303010000000
00606010000000
00606020000000
00C04040000000
00C08080000000
00C18080000000
00C10100000000
00C60200000000
00780400000000
00000800000000
00001000000000
00001007F9FF00
00002013869CC0
00004063810C00
000081C1820C00
00010281840C00
00020D830C0C00
000411030C0800
00086303181800
00118702181000
00220604181000
00440604382000
00980608384000
01A00710388000
03C003E01F0000
07000000000000
0E000000000000
1C000000000000
30000000000000
E0000000000000
40000000000000
ENDCHAR
STARTCHAR 2039
ENCODING 8249
SWIDTH 277 0
DWIDTH 20 0
BBX 12 18 9 -1
BITMAP
0030
0040
0080
0300
0400
0800
1000
6000
C000
C000
C000
6000
6000
6000
7000
3000
3800
3000
ENDCHAR
STARTCHAR 203A
ENCODING 8250
SWIDTH 277 0
DWIDTH 20 0
BBX 12 18 6 -2
BITMAP
0700
0700
0380
0180
01C0
00E0
0060
0070
0030
0020
00C0
0100
0200
0400
0800
1000
6000
C000
ENDCHAR
STARTCHAR 2044
ENCODING 8260
SWIDTH 97 0
DWIDTH 7 0
BBX 36 37 -10 -4
BITMAP
0000000030
0000000060
00000000C0
0000000180
0000000300
0000000600
0000000C00
0000001800
0000003000
0000006000
0000004000
0000008000
0000010000
0000020000
0000040000
0000080000
0000100000
0000200000
0000400000
0000800000
0001000000
0002000000
0004000000
000C000000
0018000000
0010000000
0020000000
0040000000
0080000000
0100000000
0200000000
0400000000
0800000000
1800000000
3000000000
6000000000
C000000000
ENDCHAR
STARTCHAR 20AC
ENCODING 8364
SWIDTH 486 0
DWIDTH 35 0
BBX 37 33 5 -1
BITMAP
0000001800
000003E7C0
00000C00E0
0000300070
0000E00038
0001C00038
0003800030
0007000000
000E000000
001C000000
003C000000
0038000000
0070004000
3FFFFF8000
00E0000000
01E0000000
01C0000000
FFFFFF0000
0380000000
0380000000
0780000000
0700000000
0700000000
0700000000
0700000000
0700000000
0700001000
0700002000
0780004000
0380010000
01C0060000
00FCF80000
0003000000
ENDCHAR
STARTCHAR 2113
ENCODING 8467
SWIDTH 208 0
DWIDTH 15 0
BBX 34 47 3 0
BITMAP
00000001C0
00000007C0
00000019C0
0000002180
0000004180
000000C300
0000018300
0000030200
0000060600
00000E0400
00001C0C00
0000180800
0000381000
0000703000
0000602000
0000E04000
0000C08000
0001810000
0003820000
0003040000
0007040000
0006080000
000C300000
001C400000
0018800000
0031000000
0036000000
0068000000
0070000000
00C0000000
0180000000
0180000000
0300000000
0700000000
0600000000
0C00000000
0C00000000
1800200000
1800400000
3800800000
3001000000
7002000000
7004000000
6008000000
E030000000
70C0000000
7F00000000
ENDCHAR
STARTCHAR 2122
ENCODING 8482
SWIDTH 500 0
DWIDTH 36 0
BBX 29 14 10 17
BITMAP
3FFC6008
0100E018
0300E038
02016058
06026090
04046110
0C084230
08084230
18104430
30204820
30405060
60406060
6080C060
C1008060
ENDCHAR
STARTCHAR 2126
ENCODING 8486
SWIDTH 597 0
DWIDTH 43 0
BBX 38 33 5 -2
BITMAP
00003FFE00
0000C00180
00030000E0
000C000070
0018000038
0030000038
006000001C
00E000001C
01C000001C
018000001C
038000001C
030000001C
070000001C
070000001C
0700000018
0600000038
0E00000038
0E00000030
0E00000070
0E00000060
06000000C0
06000000C0
0600000180
0200000300
0300000600
0100000800
0080001040
0080006040
0060018080
3FF01FFF00
7FF01FFF00
4000000000
8000000000
ENDCHAR
STARTCHAR 212E
ENCODING 8494
SWIDTH 597 0
DWIDTH 43 0
BBX 37 39 3 -2
BITMAP
0000F80000
001FFF8000
007FFFE000
00FC01F800
03E0007C00
07C0001E00
0780000F00
0F00000780
1F000007C0
1F000007C0
3F000007E0
3F000007E0
7F000007E0
7F000007F0
7F000007F0
FF000007F0
FF000007F0
FFFFFFFFF8
FFFFFFFFF8
FFFFFFFFF8
FF00000000
FF00000000
FF00000000
FF00000000
7F00000000
7F00000000
7F00000000
7F00000000
3F00000000
3F000001C0
1F000003C0
0F00000380
0F00000700
0780000F00
03E0003E00
01F000FC00
007F87F000
003FFFE000
0007FF0000
ENDCHAR
STARTCHAR 2202
ENCODING 8706
SWIDTH 402 0
DWIDTH 29 0
BBX 19 32 8 0
BITMAP
00FE00
010300
020180
0200C0
0600C0
0200E0
000060
000060
000060
000060
000060
000060
000060
000060
000060
000040
0070C0
0180C0
030080
060180
0C0180
180100
300200
300200
600400
600800
E00800
C01000
C02000
E0C000
610000
1E0000
ENDCHAR
STARTCHAR 2206
ENCODING 8710
SWIDTH 597 0
DWIDTH 43 0
BBX 32 31 7 0
BITMAP
00000003
00000007
0000000E
0000001E
00000026
0000004E
0000008E
0000010E
0000020C
0000040C
0000080C
0000100C
0000201C
0000401C
0000801C
0001001C
00020018
00040018
00080018
00100038
00200038
00400038
00800038
01000038
02000030
04000030
08000030
10000030
30000070
7FFFFFF0
FFFFFFF0
ENDCHAR
STARTCHAR 220F
ENCODING 8719
SWIDTH 597 0
DWIDTH 43 0
BBX 48 39 3 -8
BITMAP
00007F000001
00000FFFFFFE
00000F000038
00000E000070
00000C000060
00001C0000E0
0000180000C0
0000380001C0
000070000380
000060000380
0000E0000700
0000C0000600
0001C0000E00
000180000C00
000380001C00
000700001800
000700003800
000E00007000
000C00006000
001C0000E000
00180000C000
00380001C000
007000018000
007000038000
00E000070000
00E000070000
01C0000E0000
03C0000E0000
0380001C0000
070000180000
070000380000
0E0000700000
0E0000700000
1C0000F00000
3C0000E00000
380001E00000
780003C00000
700003FC0000
800003800000
ENDCHAR
STARTCHAR 2211
ENCODING 8721
SWIDTH 597 0
DWIDTH 43 0
BBX 35 39 3 -8
BITMAP
0000F01FC0
0003FFFFE0
0003800060
0003C00040
0001C00040
0001C00040
0001C00040
0000E00000
0000E00000
0000E00000
0000700000
0000700000
0000700000
0000380000
0000380000
0000380000
00001C0000
00001C0000
0000180000
0000100000
0000200000
0000400000
0000800000
0001000000
0002000000
0004000000
0008000000
0010000000
0020000000
0040000000
0080000000
0100000000
0200000100
0400000200
0800000600
1800FFFC00
3FFFFFF800
7FFFFFF800
8000000000
ENDCHAR
STARTCHAR 2212
ENCODING 8722
SWIDTH 402 0
DWIDTH 29 0
BBX 16 2 10 9
BITMAP
FFFF
FFFF
ENDCHAR
STARTCHAR 2215
ENCODING 8725
SWIDTH 97 0
DWIDTH 7 0
BBX 36 37 -10 -4
BITMAP
0000000030
0000000060
00000000C0
0000000180
0000000300
0000000600
0000000C00
0000001800
0000003000
0000006000
0000004000
0000008000
0000010000
0000020000
0000040000
0000080000
0000100000
0000200000
0000400000
0000800000
0001000000
0002000000
0004000000
000C000000
0018000000
0010000000
0020000000
0040000000
0080000000
0100000000
0200000000
0400000000
0800000000
1800000000
3000000000
6000000000
C000000000
ENDCHAR
STARTCHAR 2219
ENCODING 8729
SWIDTH 222 0
DWIDTH 16 0
BBX 4 5 10 11
BITMAP
20
70
F0
E0
C0
ENDCHAR
ENDFONT
